<?xml version="1.0" encoding="utf-8" standalone="no"?>
<!DOCTYPE svg PUBLIC "-//W3C//DTD SVG 1.1//EN"
  "http://www.w3.org/Graphics/SVG/1.1/DTD/svg11.dtd">
<!-- Created with matplotlib (http://matplotlib.org/) -->
<svg height="230pt" version="1.1" viewBox="0 0 421 230" width="421pt" xmlns="http://www.w3.org/2000/svg" xmlns:xlink="http://www.w3.org/1999/xlink">
 <defs>
  <style type="text/css">
*{stroke-linecap:butt;stroke-linejoin:round;stroke-miterlimit:100000;}
  </style>
 </defs>
 <g id="figure_1">
  <g id="patch_1">
   <path d="M -0 230.039687 
L 421.56 230.039687 
L 421.56 0 
L -0 0 
L -0 230.039687 
z
" style="fill:none;"/>
  </g>
  <g id="axes_1">
   <g id="patch_2">
    <path d="M 47.16 185.4 
L 225.36 185.4 
L 225.36 7.2 
L 47.16 7.2 
L 47.16 185.4 
z
" style="fill:none;"/>
   </g>
   <g id="PathCollection_1">
    <defs>
     <path d="M 0 0.707107 
C 0.187527 0.707107 0.367398 0.632602 0.5 0.5 
C 0.632602 0.367398 0.707107 0.187527 0.707107 0 
C 0.707107 -0.187527 0.632602 -0.367398 0.5 -0.5 
C 0.367398 -0.632602 0.187527 -0.707107 0 -0.707107 
C -0.187527 -0.707107 -0.367398 -0.632602 -0.5 -0.5 
C -0.632602 -0.367398 -0.707107 -0.187527 -0.707107 0 
C -0.707107 0.187527 -0.632602 0.367398 -0.5 0.5 
C -0.367398 0.632602 -0.187527 0.707107 0 0.707107 
z
" id="m2b0666e80f" style="stroke:#0000ff;"/>
    </defs>
    <g clip-path="url(#p37faf89aea)">
     <use style="fill:#0000ff;stroke:#0000ff;" x="187.8765479" xlink:href="#m2b0666e80f" y="37.2394295231"/>
     <use style="fill:#0000ff;stroke:#0000ff;" x="165.157286337" xlink:href="#m2b0666e80f" y="51.4199694262"/>
     <use style="fill:#0000ff;stroke:#0000ff;" x="203.08499832" xlink:href="#m2b0666e80f" y="56.2049923186"/>
     <use style="fill:#0000ff;stroke:#0000ff;" x="192.265714066" xlink:href="#m2b0666e80f" y="36.9000002449"/>
     <use style="fill:#0000ff;stroke:#0000ff;" x="187.174280082" xlink:href="#m2b0666e80f" y="39.7675896881"/>
     <use style="fill:#0000ff;stroke:#0000ff;" x="180.810000978" xlink:href="#m2b0666e80f" y="56.2049999564"/>
     <use style="fill:#0000ff;stroke:#0000ff;" x="186.575293761" xlink:href="#m2b0666e80f" y="39.2759992513"/>
     <use style="fill:#0000ff;stroke:#0000ff;" x="191.699991696" xlink:href="#m2b0666e80f" y="50.4771460764"/>
     <use style="fill:#0000ff;stroke:#0000ff;" x="187.174285283" xlink:href="#m2b0666e80f" y="56.7000004193"/>
     <use style="fill:#0000ff;stroke:#0000ff;" x="182.382361508" xlink:href="#m2b0666e80f" y="58.2839889825"/>
     <use style="fill:#0000ff;stroke:#0000ff;" x="183.101147377" xlink:href="#m2b0666e80f" y="39.7675798397"/>
     <use style="fill:#0000ff;stroke:#0000ff;" x="193.28399911" xlink:href="#m2b0666e80f" y="37.5988232247"/>
     <use style="fill:#0000ff;stroke:#0000ff;" x="179.028030484" xlink:href="#m2b0666e80f" y="62.7563853952"/>
     <use style="fill:#0000ff;stroke:#0000ff;" x="186.575320551" xlink:href="#m2b0666e80f" y="48.7800049559"/>
     <use style="fill:#0000ff;stroke:#0000ff;" x="199.154125417" xlink:href="#m2b0666e80f" y="29.7719927553"/>
     <use style="fill:#0000ff;stroke:#0000ff;" x="183.101140751" xlink:href="#m2b0666e80f" y="44.6834498631"/>
     <use style="fill:#0000ff;stroke:#0000ff;" x="178.296924505" xlink:href="#m2b0666e80f" y="47.8296001746"/>
     <use style="fill:#0000ff;stroke:#0000ff;" x="192.792413616" xlink:href="#m2b0666e80f" y="37.2394290461"/>
     <use style="fill:#0000ff;stroke:#0000ff;" x="182.082856994" xlink:href="#m2b0666e80f" y="48.7800003397"/>
     <use style="fill:#0000ff;stroke:#0000ff;" x="191.700000661" xlink:href="#m2b0666e80f" y="40.431891764"/>
     <use style="fill:#0000ff;stroke:#0000ff;" x="179.02800357" xlink:href="#m2b0666e80f" y="41.7917647436"/>
     <use style="fill:#0000ff;stroke:#0000ff;" x="183.779998635" xlink:href="#m2b0666e80f" y="41.7917621546"/>
     <use style="fill:#0000ff;stroke:#0000ff;" x="196.573846798" xlink:href="#m2b0666e80f" y="43.7778941651"/>
     <use style="fill:#0000ff;stroke:#0000ff;" x="190.259999701" xlink:href="#m2b0666e80f" y="48.0135485756"/>
     <use style="fill:#0000ff;stroke:#0000ff;" x="192.792413616" xlink:href="#m2b0666e80f" y="37.2394290461"/>
     <use style="fill:#0000ff;stroke:#0000ff;" x="179.819998887" xlink:href="#m2b0666e80f" y="75.9342907494"/>
     <use style="fill:#0000ff;stroke:#0000ff;" x="200.036841941" xlink:href="#m2b0666e80f" y="46.9523087783"/>
     <use style="fill:#0000ff;stroke:#0000ff;" x="187.876551204" xlink:href="#m2b0666e80f" y="33.1662860038"/>
     <use style="fill:#0000ff;stroke:#0000ff;" x="198.342580407" xlink:href="#m2b0666e80f" y="46.6200005482"/>
     <use style="fill:#0000ff;stroke:#0000ff;" x="188.945217642" xlink:href="#m2b0666e80f" y="42.4053659561"/>
     <use style="fill:#0000ff;stroke:#0000ff;" x="174.954857103" xlink:href="#m2b0666e80f" y="54.5151729994"/>
     <use style="fill:#0000ff;stroke:#0000ff;" x="170.750323639" xlink:href="#m2b0666e80f" y="42.2999999091"/>
     <use style="fill:#0000ff;stroke:#0000ff;" x="174.275999363" xlink:href="#m2b0666e80f" y="37.5988237612"/>
     <use style="fill:#0000ff;stroke:#0000ff;" x="185.940000309" xlink:href="#m2b0666e80f" y="43.4148392801"/>
     <use style="fill:#0000ff;stroke:#0000ff;" x="193.283999647" xlink:href="#m2b0666e80f" y="41.7917645355"/>
     <use style="fill:#0000ff;stroke:#0000ff;" x="182.960689112" xlink:href="#m2b0666e80f" y="53.5320005721"/>
     <use style="fill:#0000ff;stroke:#0000ff;" x="188.275134582" xlink:href="#m2b0666e80f" y="30.3000004011"/>
     <use style="fill:#0000ff;stroke:#0000ff;" x="202.941290453" xlink:href="#m2b0666e80f" y="59.5800065013"/>
     <use style="fill:#0000ff;stroke:#0000ff;" x="197.708292586" xlink:href="#m2b0666e80f" y="49.458846145"/>
     <use style="fill:#0000ff;stroke:#0000ff;" x="194.579999757" xlink:href="#m2b0666e80f" y="43.4148392364"/>
     <use style="fill:#0000ff;stroke:#0000ff;" x="199.154118278" xlink:href="#m2b0666e80f" y="34.524004196"/>
     <use style="fill:#0000ff;stroke:#0000ff;" x="189.145161082" xlink:href="#m2b0666e80f" y="42.3000008889"/>
     <use style="fill:#0000ff;stroke:#0000ff;" x="176.355000043" xlink:href="#m2b0666e80f" y="51.7499990335"/>
     <use style="fill:#0000ff;stroke:#0000ff;" x="181.619999334" xlink:href="#m2b0666e80f" y="52.6122586299"/>
     <use style="fill:#0000ff;stroke:#0000ff;" x="192.792413616" xlink:href="#m2b0666e80f" y="37.2394290461"/>
     <use style="fill:#0000ff;stroke:#0000ff;" x="198.900002588" xlink:href="#m2b0666e80f" y="48.0135432235"/>
     <use style="fill:#0000ff;stroke:#0000ff;" x="182.38236548" xlink:href="#m2b0666e80f" y="67.7880126218"/>
     <use style="fill:#0000ff;stroke:#0000ff;" x="183.779999855" xlink:href="#m2b0666e80f" y="54.3705887585"/>
     <use style="fill:#0000ff;stroke:#0000ff;" x="191.24742805" xlink:href="#m2b0666e80f" y="29.9358621061"/>
     <use style="fill:#0000ff;stroke:#0000ff;" x="189.145161108" xlink:href="#m2b0666e80f" y="37.9800002453"/>
     <use style="fill:#0000ff;stroke:#0000ff;" x="193.743859086" xlink:href="#m2b0666e80f" y="50.9400093824"/>
     <use style="fill:#0000ff;stroke:#0000ff;" x="198.629999568" xlink:href="#m2b0666e80f" y="47.2949999937"/>
     <use style="fill:#0000ff;stroke:#0000ff;" x="185.939999832" xlink:href="#m2b0666e80f" y="52.612258682"/>
     <use style="fill:#0000ff;stroke:#0000ff;" x="192.918460382" xlink:href="#m2b0666e80f" y="59.2343998154"/>
     <use style="fill:#0000ff;stroke:#0000ff;" x="167.939999654" xlink:href="#m2b0666e80f" y="45.3857144382"/>
     <use style="fill:#0000ff;stroke:#0000ff;" x="183.101143039" xlink:href="#m2b0666e80f" y="64.3469000041"/>
     <use style="fill:#0000ff;stroke:#0000ff;" x="183.101142279" xlink:href="#m2b0666e80f" y="54.5151722553"/>
     <use style="fill:#0000ff;stroke:#0000ff;" x="182.382350214" xlink:href="#m2b0666e80f" y="44.0280026307"/>
     <use style="fill:#0000ff;stroke:#0000ff;" x="191.699991696" xlink:href="#m2b0666e80f" y="50.4771460764"/>
     <use style="fill:#0000ff;stroke:#0000ff;" x="183.101140751" xlink:href="#m2b0666e80f" y="44.6834498631"/>
     <use style="fill:#0000ff;stroke:#0000ff;" x="187.174285545" xlink:href="#m2b0666e80f" y="44.8200001805"/>
     <use style="fill:#0000ff;stroke:#0000ff;" x="178.189411683" xlink:href="#m2b0666e80f" y="48.7800006077"/>
     <use style="fill:#0000ff;stroke:#0000ff;" x="187.174285376" xlink:href="#m2b0666e80f" y="48.7800002659"/>
     <use style="fill:#0000ff;stroke:#0000ff;" x="179.028000484" xlink:href="#m2b0666e80f" y="44.6834478936"/>
     <use style="fill:#0000ff;stroke:#0000ff;" x="181.27894261" xlink:href="#m2b0666e80f" y="35.9861563436"/>
     <use style="fill:#0000ff;stroke:#0000ff;" x="193.284000896" xlink:href="#m2b0666e80f" y="41.2200012209"/>
     <use style="fill:#0000ff;stroke:#0000ff;" x="196.97999972" xlink:href="#m2b0666e80f" y="55.843783819"/>
     <use style="fill:#0000ff;stroke:#0000ff;" x="179.02799906" xlink:href="#m2b0666e80f" y="46.9523086953"/>
     <use style="fill:#0000ff;stroke:#0000ff;" x="191.247428409" xlink:href="#m2b0666e80f" y="54.5151741441"/>
     <use style="fill:#0000ff;stroke:#0000ff;" x="185.26500023" xlink:href="#m2b0666e80f" y="56.2049992261"/>
     <use style="fill:#0000ff;stroke:#0000ff;" x="189.719999471" xlink:href="#m2b0666e80f" y="47.2950001717"/>
     <use style="fill:#0000ff;stroke:#0000ff;" x="193.283998697" xlink:href="#m2b0666e80f" y="66.9494125965"/>
     <use style="fill:#0000ff;stroke:#0000ff;" x="203.085001686" xlink:href="#m2b0666e80f" y="47.2950075614"/>
     <use style="fill:#0000ff;stroke:#0000ff;" x="199.834053987" xlink:href="#m2b0666e80f" y="56.7000016077"/>
     <use style="fill:#0000ff;stroke:#0000ff;" x="179.027997833" xlink:href="#m2b0666e80f" y="39.7675814096"/>
     <use style="fill:#0000ff;stroke:#0000ff;" x="191.247414275" xlink:href="#m2b0666e80f" y="34.8517255894"/>
     <use style="fill:#0000ff;stroke:#0000ff;" x="170.750322004" xlink:href="#m2b0666e80f" y="29.340000377"/>
     <use style="fill:#0000ff;stroke:#0000ff;" x="158.534999603" xlink:href="#m2b0666e80f" y="42.840000185"/>
     <use style="fill:#0000ff;stroke:#0000ff;" x="189.263075052" xlink:href="#m2b0666e80f" y="59.2343989695"/>
     <use style="fill:#0000ff;stroke:#0000ff;" x="194.579999746" xlink:href="#m2b0666e80f" y="57.2109679217"/>
     <use style="fill:#0000ff;stroke:#0000ff;" x="185.607703549" xlink:href="#m2b0666e80f" y="70.6391927326"/>
     <use style="fill:#0000ff;stroke:#0000ff;" x="189.71999982" xlink:href="#m2b0666e80f" y="38.3850004855"/>
     <use style="fill:#0000ff;stroke:#0000ff;" x="191.699992364" xlink:href="#m2b0666e80f" y="55.5685662293"/>
     <use style="fill:#0000ff;stroke:#0000ff;" x="169.80352882" xlink:href="#m2b0666e80f" y="44.0280016359"/>
     <use style="fill:#0000ff;stroke:#0000ff;" x="181.278947157" xlink:href="#m2b0666e80f" y="46.952308182"/>
     <use style="fill:#0000ff;stroke:#0000ff;" x="196.573845898" xlink:href="#m2b0666e80f" y="40.026316119"/>
     <use style="fill:#0000ff;stroke:#0000ff;" x="185.607692174" xlink:href="#m2b0666e80f" y="47.5294738272"/>
     <use style="fill:#0000ff;stroke:#0000ff;" x="190.260001697" xlink:href="#m2b0666e80f" y="34.2174180596"/>
     <use style="fill:#0000ff;stroke:#0000ff;" x="185.030530304" xlink:href="#m2b0666e80f" y="57.9184605668"/>
     <use style="fill:#0000ff;stroke:#0000ff;" x="187.876552491" xlink:href="#m2b0666e80f" y="53.5319995557"/>
     <use style="fill:#0000ff;stroke:#0000ff;" x="193.743872745" xlink:href="#m2b0666e80f" y="59.5799984054"/>
     <use style="fill:#0000ff;stroke:#0000ff;" x="179.819999807" xlink:href="#m2b0666e80f" y="50.4771437029"/>
     <use style="fill:#0000ff;stroke:#0000ff;" x="181.619999906" xlink:href="#m2b0666e80f" y="43.4148388644"/>
     <use style="fill:#0000ff;stroke:#0000ff;" x="185.939999832" xlink:href="#m2b0666e80f" y="52.612258682"/>
     <use style="fill:#0000ff;stroke:#0000ff;" x="198.035999546" xlink:href="#m2b0666e80f" y="29.2129414845"/>
     <use style="fill:#0000ff;stroke:#0000ff;" x="176.355000605" xlink:href="#m2b0666e80f" y="38.385004431"/>
     <use style="fill:#0000ff;stroke:#0000ff;" x="191.247427228" xlink:href="#m2b0666e80f" y="49.5993107086"/>
     <use style="fill:#0000ff;stroke:#0000ff;" x="180.809999875" xlink:href="#m2b0666e80f" y="51.7500001062"/>
     <use style="fill:#0000ff;stroke:#0000ff;" x="181.62001708" xlink:href="#m2b0666e80f" y="57.2109540284"/>
     <use style="fill:#0000ff;stroke:#0000ff;" x="183.779999592" xlink:href="#m2b0666e80f" y="30.1114288809"/>
     <use style="fill:#0000ff;stroke:#0000ff;" x="194.58000034" xlink:href="#m2b0666e80f" y="48.0135488892"/>
     <use style="fill:#0000ff;stroke:#0000ff;" x="187.174285283" xlink:href="#m2b0666e80f" y="56.7000004193"/>
     <use style="fill:#0000ff;stroke:#0000ff;" x="177.527367429" xlink:href="#m2b0666e80f" y="57.9184622884"/>
     <use style="fill:#0000ff;stroke:#0000ff;" x="185.264999846" xlink:href="#m2b0666e80f" y="47.2950001527"/>
     <use style="fill:#0000ff;stroke:#0000ff;" x="192.792420447" xlink:href="#m2b0666e80f" y="49.4588522065"/>
     <use style="fill:#0000ff;stroke:#0000ff;" x="188.531999522" xlink:href="#m2b0666e80f" y="37.5988237598"/>
     <use style="fill:#0000ff;stroke:#0000ff;" x="195.320571202" xlink:href="#m2b0666e80f" y="39.7675866557"/>
     <use style="fill:#0000ff;stroke:#0000ff;" x="176.354997616" xlink:href="#m2b0666e80f" y="60.6600365431"/>
     <use style="fill:#0000ff;stroke:#0000ff;" x="187.174285545" xlink:href="#m2b0666e80f" y="44.8200001805"/>
     <use style="fill:#0000ff;stroke:#0000ff;" x="186.419997896" xlink:href="#m2b0666e80f" y="51.9908232323"/>
     <use style="fill:#0000ff;stroke:#0000ff;" x="184.546457967" xlink:href="#m2b0666e80f" y="59.5799972812"/>
     <use style="fill:#0000ff;stroke:#0000ff;" x="181.619992095" xlink:href="#m2b0666e80f" y="34.2174427164"/>
     <use style="fill:#0000ff;stroke:#0000ff;" x="189.14516686" xlink:href="#m2b0666e80f" y="59.5800024919"/>
     <use style="fill:#0000ff;stroke:#0000ff;" x="190.768234807" xlink:href="#m2b0666e80f" y="34.5240001857"/>
     <use style="fill:#0000ff;stroke:#0000ff;" x="192.792420447" xlink:href="#m2b0666e80f" y="49.4588522065"/>
     <use style="fill:#0000ff;stroke:#0000ff;" x="190.768234773" xlink:href="#m2b0666e80f" y="44.0280005356"/>
     <use style="fill:#0000ff;stroke:#0000ff;" x="183.101142279" xlink:href="#m2b0666e80f" y="54.5151722553"/>
     <use style="fill:#0000ff;stroke:#0000ff;" x="194.174999661" xlink:href="#m2b0666e80f" y="33.9300005816"/>
     <use style="fill:#0000ff;stroke:#0000ff;" x="189.719999114" xlink:href="#m2b0666e80f" y="42.8400009048"/>
     <use style="fill:#0000ff;stroke:#0000ff;" x="193.743872745" xlink:href="#m2b0666e80f" y="59.5799984054"/>
     <use style="fill:#0000ff;stroke:#0000ff;" x="202.941290239" xlink:href="#m2b0666e80f" y="50.9400002593"/>
     <use style="fill:#0000ff;stroke:#0000ff;" x="181.952307593" xlink:href="#m2b0666e80f" y="53.5320000303"/>
     <use style="fill:#0000ff;stroke:#0000ff;" x="190.259999511" xlink:href="#m2b0666e80f" y="38.8161292731"/>
     <use style="fill:#0000ff;stroke:#0000ff;" x="207.54" xlink:href="#m2b0666e80f" y="48.0135500905"/>
     <use style="fill:#0000ff;stroke:#0000ff;" x="178.044827541" xlink:href="#m2b0666e80f" y="57.6051428897"/>
     <use style="fill:#0000ff;stroke:#0000ff;" x="178.044825811" xlink:href="#m2b0666e80f" y="41.3125715879"/>
     <use style="fill:#0000ff;stroke:#0000ff;" x="183.10114461" xlink:href="#m2b0666e80f" y="49.5993114962"/>
     <use style="fill:#0000ff;stroke:#0000ff;" x="183.779999402" xlink:href="#m2b0666e80f" y="50.4771430343"/>
    </g>
   </g>
   <g id="line2d_1">
    <path clip-path="url(#p37faf89aea)" d="M 136.26 25.02 
L 139.757544 25.10586 
L 143.246662 25.363233 
L 146.718948 25.791498 
L 150.166038 26.389625 
L 153.579627 27.156172 
L 156.951492 28.089293 
L 160.273509 29.186739 
L 163.537675 30.445867 
L 166.736127 31.863643 
L 169.861159 33.436652 
L 172.905244 35.161105 
L 175.861046 37.032846 
L 178.721446 39.047367 
L 181.479553 41.199815 
L 184.128722 43.485004 
L 186.662571 45.897429 
L 189.074996 48.431278 
L 191.360185 51.080447 
L 193.512633 53.838554 
L 195.527154 56.698954 
L 197.398895 59.654756 
L 199.123348 62.698841 
L 200.696357 65.823873 
L 202.114133 69.022325 
L 203.373261 72.286491 
L 204.470707 75.608508 
L 205.403828 78.980373 
L 206.170375 82.393962 
L 206.768502 85.841052 
L 207.196767 89.313338 
L 207.45414 92.802456 
L 207.54 96.3 
L 207.45414 99.797544 
L 207.196767 103.286662 
L 206.768502 106.758948 
L 206.170375 110.206038 
L 205.403828 113.619627 
L 204.470707 116.991492 
L 203.373261 120.313509 
L 202.114133 123.577675 
L 200.696357 126.776127 
L 199.123348 129.901159 
L 197.398895 132.945244 
L 195.527154 135.901046 
L 193.512633 138.761446 
L 191.360185 141.519553 
L 189.074996 144.168722 
L 186.662571 146.702571 
L 184.128722 149.114996 
L 181.479553 151.400185 
L 178.721446 153.552633 
L 175.861046 155.567154 
L 172.905244 157.438895 
L 169.861159 159.163348 
L 166.736127 160.736357 
L 163.537675 162.154133 
L 160.273509 163.413261 
L 156.951492 164.510707 
L 153.579627 165.443828 
L 150.166038 166.210375 
L 146.718948 166.808502 
L 143.246662 167.236767 
L 139.757544 167.49414 
L 136.26 167.58 
L 132.762456 167.49414 
L 129.273338 167.236767 
L 125.801052 166.808502 
L 122.353962 166.210375 
L 118.940373 165.443828 
L 115.568508 164.510707 
L 112.246491 163.413261 
L 108.982325 162.154133 
L 105.783873 160.736357 
L 102.658841 159.163348 
L 99.614756 157.438895 
L 96.658954 155.567154 
L 93.798554 153.552633 
L 91.040447 151.400185 
L 88.391278 149.114996 
L 85.857429 146.702571 
L 83.445004 144.168722 
L 81.159815 141.519553 
L 79.007367 138.761446 
L 76.992846 135.901046 
L 75.121105 132.945244 
L 73.396652 129.901159 
L 71.823643 126.776127 
L 70.405867 123.577675 
L 69.146739 120.313509 
L 68.049293 116.991492 
L 67.116172 113.619627 
L 66.349625 110.206038 
L 65.751498 106.758948 
L 65.323233 103.286662 
L 65.06586 99.797544 
L 64.98 96.3 
L 65.06586 92.802456 
L 65.323233 89.313338 
L 65.751498 85.841052 
L 66.349625 82.393962 
L 67.116172 78.980373 
L 68.049293 75.608508 
L 69.146739 72.286491 
L 70.405867 69.022325 
L 71.823643 65.823873 
L 73.396652 62.698841 
L 75.121105 59.654756 
L 76.992846 56.698954 
L 79.007367 53.838554 
L 81.159815 51.080447 
L 83.445004 48.431278 
L 85.857429 45.897429 
L 88.391278 43.485004 
L 91.040447 41.199815 
L 93.798554 39.047367 
L 96.658954 37.032846 
L 99.614756 35.161105 
L 102.658841 33.436652 
L 105.783873 31.863643 
L 108.982325 30.445867 
L 112.246491 29.186739 
L 115.568508 28.089293 
L 118.940373 27.156172 
L 122.353962 26.389625 
L 125.801052 25.791498 
L 129.273338 25.363233 
L 132.762456 25.10586 
L 136.26 25.02 
L 136.26 25.02 
" style="fill:none;stroke:#000000;stroke-linecap:square;"/>
   </g>
   <g id="line2d_2">
    <path clip-path="url(#p37faf89aea)" d="M 186.662571 45.897429 
" style="fill:none;"/>
    <defs>
     <path d="M 0 4 
C 1.060812 4 2.078319 3.578535 2.828427 2.828427 
C 3.578535 2.078319 4 1.060812 4 0 
C 4 -1.060812 3.578535 -2.078319 2.828427 -2.828427 
C 2.078319 -3.578535 1.060812 -4 0 -4 
C -1.060812 -4 -2.078319 -3.578535 -2.828427 -2.828427 
C -3.578535 -2.078319 -4 -1.060812 -4 0 
C -4 1.060812 -3.578535 2.078319 -2.828427 2.828427 
C -2.078319 3.578535 -1.060812 4 0 4 
z
" id="mc962ee9398" style="stroke:#000000;stroke-width:0.5;"/>
    </defs>
    <g clip-path="url(#p37faf89aea)">
     <use style="fill:#ff0000;stroke:#000000;stroke-width:0.5;" x="186.662571363" xlink:href="#mc962ee9398" y="45.897428637"/>
    </g>
   </g>
   <g id="line2d_3">
    <path clip-path="url(#p37faf89aea)" d="M 187.721976 28.882897 
L 189.5975 28.938972 
L 191.440942 29.23735 
L 193.228145 29.774123 
L 194.935689 30.542256 
L 196.541197 31.531682 
L 198.023631 32.729437 
L 199.363562 34.119824 
L 200.543433 35.684622 
L 201.547782 37.403327 
L 202.363447 39.253415 
L 202.979741 41.210642 
L 203.388585 43.24936 
L 203.584623 45.342852 
L 203.565286 47.463685 
L 203.330828 49.584065 
L 202.884319 51.676208 
L 202.231613 53.712695 
L 201.381262 55.666841 
L 200.34441 57.513037 
L 199.134643 59.22709 
L 197.767816 60.786538 
L 196.26184 62.170945 
L 194.63645 63.362171 
L 192.912945 64.344603 
L 191.113911 65.105368 
L 189.262924 65.634497 
L 187.38424 65.925056 
L 185.502477 65.973237 
L 183.642295 65.778408 
L 181.828072 65.343124 
L 180.083581 64.673087 
L 178.431682 63.777078 
L 176.894024 62.66684 
L 175.490755 61.356921 
L 174.240267 59.864487 
L 173.158944 58.209095 
L 172.260957 56.412439 
L 171.558075 54.498062 
L 171.059508 52.491052 
L 170.771788 50.417709 
L 170.698688 48.305203 
L 170.841164 46.181218 
L 171.197349 44.073586 
L 171.762577 42.009928 
L 172.529439 40.017287 
L 173.487888 38.121774 
L 174.625362 36.34823 
L 175.926955 34.719896 
L 177.375612 33.25811 
L 178.952348 31.982028 
L 180.636501 30.908373 
L 182.406001 30.051214 
L 184.23766 29.421784 
L 186.107475 29.02833 
L 187.721976 28.882897 
L 187.721976 28.882897 
" style="fill:none;stroke:#000000;stroke-linecap:square;"/>
   </g>
   <g id="patch_3">
    <path d="M 47.16 185.4 
L 47.16 7.2 
" style="fill:none;stroke:#000000;stroke-linecap:square;stroke-linejoin:miter;"/>
   </g>
   <g id="patch_4">
    <path d="M 225.36 185.4 
L 225.36 7.2 
" style="fill:none;stroke:#000000;stroke-linecap:square;stroke-linejoin:miter;"/>
   </g>
   <g id="patch_5">
    <path d="M 47.16 185.4 
L 225.36 185.4 
" style="fill:none;stroke:#000000;stroke-linecap:square;stroke-linejoin:miter;"/>
   </g>
   <g id="patch_6">
    <path d="M 47.16 7.2 
L 225.36 7.2 
" style="fill:none;stroke:#000000;stroke-linecap:square;stroke-linejoin:miter;"/>
   </g>
   <g id="matplotlib.axis_1">
    <g id="xtick_1">
     <g id="line2d_4">
      <defs>
       <path d="M 0 0 
L 0 -4 
" id="m4cb69b445c" style="stroke:#000000;stroke-width:0.5;"/>
      </defs>
      <g>
       <use style="stroke:#000000;stroke-width:0.5;" x="64.98" xlink:href="#m4cb69b445c" y="185.4"/>
      </g>
     </g>
     <g id="line2d_5">
      <defs>
       <path d="M 0 0 
L 0 4 
" id="meafccc7f76" style="stroke:#000000;stroke-width:0.5;"/>
      </defs>
      <g>
       <use style="stroke:#000000;stroke-width:0.5;" x="64.98" xlink:href="#meafccc7f76" y="7.2"/>
      </g>
     </g>
     <g id="text_1">
      <!-- −1 -->
      <defs>
       <path d="M 7.40625 37.15625 
L 50.59375 37.15625 
L 50.59375 29.953125 
L 7.40625 29.953125 
z
" id="Lato-Medium-2212"/>
       <path d="M 12.34375 7.25 
L 27.59375 7.25 
L 27.59375 54.90625 
Q 27.59375 57.09375 27.75 59.453125 
L 15.40625 48.90625 
Q 14.703125 48.34375 14.015625 48.1875 
Q 13.34375 48.046875 12.75 48.171875 
Q 12.15625 48.296875 11.65625 48.59375 
Q 11.15625 48.90625 10.90625 49.25 
L 7.953125 53.40625 
L 29.40625 71.90625 
L 37.09375 71.90625 
L 37.09375 7.25 
L 51.046875 7.25 
L 51.046875 0 
L 12.34375 0 
z
" id="Lato-Medium-31"/>
      </defs>
      <g transform="translate(59.18 196.775)scale(0.1 -0.1)">
       <use xlink:href="#Lato-Medium-2212"/>
       <use x="58.0" xlink:href="#Lato-Medium-31"/>
      </g>
     </g>
    </g>
    <g id="xtick_2">
     <g id="line2d_6">
      <g>
       <use style="stroke:#000000;stroke-width:0.5;" x="136.26" xlink:href="#m4cb69b445c" y="185.4"/>
      </g>
     </g>
     <g id="line2d_7">
      <g>
       <use style="stroke:#000000;stroke-width:0.5;" x="136.26" xlink:href="#meafccc7f76" y="7.2"/>
      </g>
     </g>
     <g id="text_2">
      <!-- 0 -->
      <defs>
       <path d="M 55.09375 35.90625 
Q 55.09375 26.5 53.0625 19.59375 
Q 51.046875 12.703125 47.515625 8.171875 
Q 44 3.65625 39.21875 1.453125 
Q 34.453125 -0.75 28.953125 -0.75 
Q 23.453125 -0.75 18.703125 1.453125 
Q 13.953125 3.65625 10.421875 8.171875 
Q 6.90625 12.703125 4.90625 19.59375 
Q 2.90625 26.5 2.90625 35.90625 
Q 2.90625 45.296875 4.90625 52.1875 
Q 6.90625 59.09375 10.421875 63.625 
Q 13.953125 68.15625 18.703125 70.34375 
Q 23.453125 72.546875 28.953125 72.546875 
Q 34.453125 72.546875 39.21875 70.34375 
Q 44 68.15625 47.515625 63.625 
Q 51.046875 59.09375 53.0625 52.1875 
Q 55.09375 45.296875 55.09375 35.90625 
M 45.25 35.90625 
Q 45.25 44 43.890625 49.5 
Q 42.546875 55 40.296875 58.34375 
Q 38.046875 61.703125 35.09375 63.125 
Q 32.15625 64.546875 28.953125 64.546875 
Q 25.75 64.546875 22.796875 63.125 
Q 19.84375 61.703125 17.59375 58.34375 
Q 15.34375 55 14.015625 49.5 
Q 12.703125 44 12.703125 35.90625 
Q 12.703125 27.75 14.015625 22.25 
Q 15.34375 16.75 17.59375 13.421875 
Q 19.84375 10.09375 22.796875 8.671875 
Q 25.75 7.25 28.953125 7.25 
Q 32.15625 7.25 35.09375 8.671875 
Q 38.046875 10.09375 40.296875 13.421875 
Q 42.546875 16.75 43.890625 22.25 
Q 45.25 27.75 45.25 35.90625 
" id="Lato-Medium-30"/>
      </defs>
      <g transform="translate(133.36 196.775)scale(0.1 -0.1)">
       <use xlink:href="#Lato-Medium-30"/>
      </g>
     </g>
    </g>
    <g id="xtick_3">
     <g id="line2d_8">
      <g>
       <use style="stroke:#000000;stroke-width:0.5;" x="207.54" xlink:href="#m4cb69b445c" y="185.4"/>
      </g>
     </g>
     <g id="line2d_9">
      <g>
       <use style="stroke:#000000;stroke-width:0.5;" x="207.54" xlink:href="#meafccc7f76" y="7.2"/>
      </g>
     </g>
     <g id="text_3">
      <!-- 1 -->
      <g transform="translate(204.64 196.775)scale(0.1 -0.1)">
       <use xlink:href="#Lato-Medium-31"/>
      </g>
     </g>
    </g>
    <g id="text_4">
     <!-- $\langle X\rangle$ -->
     <defs>
      <path d="M 7.8125 -114.015625 
Q 7.8125 -113.484375 8.015625 -113.28125 
L 33.109375 -56 
L 8.015625 1.3125 
Q 7.8125 1.515625 7.8125 2 
Q 7.8125 2.734375 8.390625 3.359375 
Q 8.984375 4 9.8125 4 
Q 10.984375 4 11.71875 2.78125 
L 37.203125 -55.328125 
Q 37.3125 -55.515625 37.3125 -56 
Q 37.3125 -56.5 37.203125 -56.78125 
L 11.71875 -114.796875 
Q 10.9375 -116.015625 9.8125 -116.015625 
Q 8.984375 -116.015625 8.390625 -115.375 
Q 7.8125 -114.75 7.8125 -114.015625 
" id="Cmex10-ae"/>
      <path d="M 3.609375 0 
Q 2.59375 0 2.59375 1.3125 
Q 2.640625 1.5625 2.8125 2.1875 
Q 2.984375 2.828125 3.25 3.171875 
Q 3.515625 3.515625 4 3.515625 
Q 13.09375 3.515625 19.578125 10.296875 
Q 19.671875 10.40625 19.796875 10.453125 
Q 19.921875 10.5 19.921875 10.5 
L 41.796875 34.078125 
L 29.890625 62.796875 
Q 28.859375 64.109375 26.5625 64.453125 
Q 24.265625 64.796875 21.1875 64.796875 
Q 20.21875 64.796875 20.21875 66.109375 
Q 20.5625 67.390625 20.75 67.84375 
Q 20.953125 68.3125 21.921875 68.3125 
L 46.921875 68.3125 
Q 47.90625 68.3125 47.90625 67 
Q 47.859375 66.75 47.6875 66.109375 
Q 47.515625 65.484375 47.234375 65.140625 
Q 46.96875 64.796875 46.484375 64.796875 
Q 44.625 64.796875 42.640625 64.1875 
Q 40.671875 63.578125 39.890625 62.203125 
L 48.484375 41.5 
L 64.890625 59.078125 
Q 65.046875 59.421875 65.578125 60.28125 
Q 66.109375 61.140625 66.109375 61.921875 
Q 66.109375 63.375 64.84375 64.078125 
Q 63.578125 64.796875 61.8125 64.796875 
Q 60.796875 64.796875 60.796875 66.109375 
Q 61.140625 67.390625 61.328125 67.84375 
Q 61.53125 68.3125 62.5 68.3125 
L 84.1875 68.3125 
Q 84.71875 68.3125 84.953125 67.921875 
Q 85.203125 67.53125 85.203125 67 
Q 85.15625 66.75 85 66.15625 
Q 84.859375 65.578125 84.609375 65.1875 
Q 84.375 64.796875 83.890625 64.796875 
Q 79.25 64.796875 75.359375 63.109375 
Q 71.484375 61.421875 68.21875 58.015625 
Q 68.171875 57.953125 68.09375 57.921875 
Q 68.015625 57.90625 67.921875 57.8125 
L 49.8125 38.28125 
L 63.484375 5.515625 
Q 65.09375 3.515625 72.21875 3.515625 
Q 73.1875 3.515625 73.1875 2.203125 
Q 72.859375 0.875 72.625 0.4375 
Q 72.40625 0 71.484375 0 
L 46.484375 0 
Q 45.515625 0 45.515625 1.3125 
Q 45.5625 1.5625 45.703125 2.171875 
Q 45.84375 2.78125 46.109375 3.140625 
Q 46.390625 3.515625 46.78125 3.515625 
Q 48.734375 3.515625 50.734375 4.125 
Q 52.734375 4.734375 53.515625 6.109375 
L 43.109375 31 
L 22.90625 9.1875 
Q 22.75 8.84375 22.21875 8 
Q 21.6875 7.171875 21.6875 6.390625 
Q 21.6875 4.9375 23.046875 4.21875 
Q 24.421875 3.515625 25.984375 3.515625 
Q 27 3.515625 27 2.203125 
Q 26.65625 0.78125 26.453125 0.390625 
Q 26.265625 0 25.296875 0 
z
" id="Cmmi10-58"/>
      <path d="M 35.5 -114.796875 
L 10.015625 -56.78125 
Q 9.8125 -56.5 9.8125 -56 
Q 9.8125 -55.515625 10.015625 -55.328125 
L 35.5 2.78125 
Q 35.984375 4 37.3125 4 
Q 38.03125 4 38.671875 3.359375 
Q 39.3125 2.734375 39.3125 2 
Q 39.3125 1.515625 39.203125 1.3125 
L 14.015625 -56 
L 39.203125 -113.28125 
Q 39.3125 -113.484375 39.3125 -114.015625 
Q 39.3125 -114.75 38.671875 -115.375 
Q 38.03125 -116.015625 37.3125 -116.015625 
Q 36.03125 -116.015625 35.5 -114.796875 
" id="Cmex10-ad"/>
     </defs>
     <g transform="translate(122.02 219.1596875)scale(0.16 -0.16)">
      <use transform="translate(0.0 94.0)" xlink:href="#Cmex10-ad"/>
      <use transform="translate(47.216796875 0.6588541666666572)" xlink:href="#Cmmi10-58"/>
      <use transform="translate(130.029296875 94.0)" xlink:href="#Cmex10-ae"/>
     </g>
    </g>
   </g>
   <g id="matplotlib.axis_2">
    <g id="ytick_1">
     <g id="line2d_10">
      <defs>
       <path d="M 0 0 
L 4 0 
" id="md9cd0ac990" style="stroke:#000000;stroke-width:0.5;"/>
      </defs>
      <g>
       <use style="stroke:#000000;stroke-width:0.5;" x="47.16" xlink:href="#md9cd0ac990" y="167.58"/>
      </g>
     </g>
     <g id="line2d_11">
      <defs>
       <path d="M 0 0 
L -4 0 
" id="md8d73f6cf0" style="stroke:#000000;stroke-width:0.5;"/>
      </defs>
      <g>
       <use style="stroke:#000000;stroke-width:0.5;" x="225.36" xlink:href="#md8d73f6cf0" y="167.58"/>
      </g>
     </g>
     <g id="text_5">
      <!-- −1 -->
      <g transform="translate(31.56 170.41515625)scale(0.1 -0.1)">
       <use xlink:href="#Lato-Medium-2212"/>
       <use x="58.0" xlink:href="#Lato-Medium-31"/>
      </g>
     </g>
    </g>
    <g id="ytick_2">
     <g id="line2d_12">
      <g>
       <use style="stroke:#000000;stroke-width:0.5;" x="47.16" xlink:href="#md9cd0ac990" y="96.3"/>
      </g>
     </g>
     <g id="line2d_13">
      <g>
       <use style="stroke:#000000;stroke-width:0.5;" x="225.36" xlink:href="#md8d73f6cf0" y="96.3"/>
      </g>
     </g>
     <g id="text_6">
      <!-- 0 -->
      <g transform="translate(37.36 99.13515625)scale(0.1 -0.1)">
       <use xlink:href="#Lato-Medium-30"/>
      </g>
     </g>
    </g>
    <g id="ytick_3">
     <g id="line2d_14">
      <g>
       <use style="stroke:#000000;stroke-width:0.5;" x="47.16" xlink:href="#md9cd0ac990" y="25.02"/>
      </g>
     </g>
     <g id="line2d_15">
      <g>
       <use style="stroke:#000000;stroke-width:0.5;" x="225.36" xlink:href="#md8d73f6cf0" y="25.02"/>
      </g>
     </g>
     <g id="text_7">
      <!-- 1 -->
      <g transform="translate(37.36 27.85515625)scale(0.1 -0.1)">
       <use xlink:href="#Lato-Medium-31"/>
      </g>
     </g>
    </g>
    <g id="text_8">
     <!-- $\langle Z\rangle$ -->
     <defs>
      <path d="M 5.8125 0.78125 
Q 5.8125 2.25 6.5 3.078125 
L 61.53125 64.796875 
L 46.78125 64.796875 
Q 39.453125 64.796875 34.640625 63.0625 
Q 29.828125 61.328125 26.671875 57.296875 
Q 23.53125 53.265625 21.390625 46.296875 
Q 21.1875 45.40625 20.40625 45.40625 
L 19.484375 45.40625 
Q 18.5 45.40625 18.5 46.6875 
L 24.8125 67.390625 
Q 25 68.3125 25.78125 68.3125 
L 71.390625 68.3125 
Q 72.21875 68.3125 72.21875 67.484375 
Q 72.21875 66.015625 71.578125 65.375 
L 16.796875 3.8125 
L 31.984375 3.8125 
Q 40.828125 3.8125 45.875 5.984375 
Q 50.921875 8.15625 53.875 12.84375 
Q 56.84375 17.53125 59.625 26.21875 
Q 59.71875 26.5625 59.984375 26.828125 
Q 60.25 27.09375 60.59375 27.09375 
L 61.53125 27.09375 
Q 62.5 27.09375 62.5 25.78125 
L 54.59375 0.875 
Q 54.15625 0 53.609375 0 
L 6.6875 0 
Q 5.8125 0 5.8125 0.78125 
" id="Cmmi10-5a"/>
     </defs>
     <g transform="translate(22.88 109.34)rotate(-90.0)scale(0.16 -0.16)">
      <use transform="translate(0.0 94.0)" xlink:href="#Cmex10-ad"/>
      <use transform="translate(47.216796875 0.6588541666666572)" xlink:href="#Cmmi10-5a"/>
      <use transform="translate(115.4296875 94.0)" xlink:href="#Cmex10-ae"/>
     </g>
    </g>
   </g>
   <g id="legend_1">
    <g id="patch_7">
     <path d="M 53.16 179.4 
L 147.495 179.4 
L 147.495 142.00875 
L 53.16 142.00875 
z
" style="fill:#ffffff;opacity:0.75;stroke:#ffffff;stroke-linejoin:miter;"/>
    </g>
    <g id="line2d_16">
     <path d="M 57.96 151.45875 
L 81.96 151.45875 
" style="fill:none;"/>
    </g>
    <g id="line2d_17">
     <g>
      <use style="fill:#ff0000;stroke:#000000;stroke-width:0.5;" x="69.96" xlink:href="#mc962ee9398" y="151.45875"/>
     </g>
    </g>
    <g id="text_9">
     <!-- Truth -->
     <defs>
      <path d="M 6.90625 0 
L 6.90625 50.75 
L 12.34375 50.75 
Q 13.90625 50.75 14.46875 50.203125 
Q 15.046875 49.65625 15.25 48.203125 
L 15.84375 40.796875 
Q 18.25 45.84375 21.75 48.75 
Q 25.25 51.65625 30.15625 51.65625 
Q 31.796875 51.65625 33.265625 51.296875 
Q 34.75 50.953125 35.84375 50.203125 
L 35.203125 43.09375 
Q 34.90625 41.75 33.59375 41.75 
Q 32.90625 41.75 31.53125 42.046875 
Q 30.15625 42.34375 28.5 42.34375 
Q 26.15625 42.34375 24.328125 41.640625 
Q 22.5 40.953125 21.046875 39.59375 
Q 19.59375 38.25 18.46875 36.296875 
Q 17.34375 34.34375 16.40625 31.84375 
L 16.40625 0 
z
" id="Lato-Medium-72"/>
      <path d="M 6.90625 0 
L 6.90625 73.75 
L 16.40625 73.75 
L 16.40625 44.25 
Q 19.59375 47.546875 23.5 49.546875 
Q 27.40625 51.546875 32.5 51.546875 
Q 36.65625 51.546875 39.828125 50.140625 
Q 43 48.75 45.140625 46.21875 
Q 47.296875 43.703125 48.390625 40.171875 
Q 49.5 36.65625 49.5 32.34375 
L 49.5 0 
L 40 0 
L 40 32.34375 
Q 40 37.84375 37.453125 40.921875 
Q 34.90625 44 29.703125 44 
Q 25.84375 44 22.546875 42.203125 
Q 19.25 40.40625 16.40625 37.25 
L 16.40625 0 
z
" id="Lato-Medium-68"/>
      <path d="M 22.703125 -0.796875 
Q 16.59375 -0.796875 13.296875 2.59375 
Q 10 6 10 12.40625 
L 10 43 
L 4.046875 43 
Q 3.203125 43 2.640625 43.515625 
Q 2.09375 44.046875 2.09375 45.046875 
L 2.09375 48.84375 
L 10.34375 49.953125 
L 12.5 65.296875 
Q 12.703125 66.09375 13.25 66.5625 
Q 13.796875 67.046875 14.703125 67.046875 
L 19.5 67.046875 
L 19.5 49.90625 
L 33.953125 49.90625 
L 33.953125 43 
L 19.5 43 
L 19.5 13.046875 
Q 19.5 10 20.96875 8.46875 
Q 22.453125 6.953125 24.84375 6.953125 
Q 26.203125 6.953125 27.203125 7.296875 
Q 28.203125 7.65625 28.890625 8.09375 
Q 29.59375 8.546875 30.125 8.890625 
Q 30.65625 9.25 31.046875 9.25 
Q 31.5 9.25 31.765625 9.046875 
Q 32.046875 8.84375 32.34375 8.34375 
L 35.15625 3.796875 
Q 32.75 1.59375 29.46875 0.390625 
Q 26.203125 -0.796875 22.703125 -0.796875 
" id="Lato-Medium-74"/>
      <path d="M 15.90625 50.75 
L 15.90625 18.40625 
Q 15.90625 12.90625 18.453125 9.828125 
Q 21 6.75 26.203125 6.75 
Q 30 6.75 33.328125 8.515625 
Q 36.65625 10.296875 39.5 13.453125 
L 39.5 50.75 
L 49 50.75 
L 49 0 
L 43.296875 0 
Q 41.296875 0 40.796875 1.90625 
L 40.046875 7.15625 
Q 36.75 3.59375 32.71875 1.390625 
Q 28.703125 -0.796875 23.40625 -0.796875 
Q 19.203125 -0.796875 16.015625 0.59375 
Q 12.84375 2 10.71875 4.515625 
Q 8.59375 7.046875 7.5 10.5625 
Q 6.40625 14.09375 6.40625 18.40625 
L 6.40625 50.75 
z
" id="Lato-Medium-75"/>
      <path d="M 57.75 71.75 
L 57.75 63.09375 
L 34.796875 63.09375 
L 34.796875 0 
L 24.5 0 
L 24.5 63.09375 
L 1.5 63.09375 
L 1.5 71.75 
z
" id="Lato-Medium-54"/>
     </defs>
     <g transform="translate(91.56 155.65875)scale(0.12 -0.12)">
      <use xlink:href="#Lato-Medium-54"/>
      <use x="59.04376220703125" xlink:href="#Lato-Medium-72"/>
      <use x="95.59376525878906" xlink:href="#Lato-Medium-75"/>
      <use x="151.4437713623047" xlink:href="#Lato-Medium-74"/>
      <use x="187.4937744140625" xlink:href="#Lato-Medium-68"/>
     </g>
    </g>
    <g id="PathCollection_2">
     <path d="M 61.56 170.111482 
C 61.747527 170.111482 61.927398 170.036977 62.06 169.904375 
C 62.192602 169.771773 62.267107 169.591902 62.267107 169.404375 
C 62.267107 169.216848 62.192602 169.036977 62.06 168.904375 
C 61.927398 168.771773 61.747527 168.697268 61.56 168.697268 
C 61.372473 168.697268 61.192602 168.771773 61.06 168.904375 
C 60.927398 169.036977 60.852893 169.216848 60.852893 169.404375 
C 60.852893 169.591902 60.927398 169.771773 61.06 169.904375 
C 61.192602 170.036977 61.372473 170.111482 61.56 170.111482 
z
" style="fill:#0000ff;stroke:#0000ff;"/>
     <path d="M 69.96 169.061482 
C 70.147527 169.061482 70.327398 168.986977 70.46 168.854375 
C 70.592602 168.721773 70.667107 168.541902 70.667107 168.354375 
C 70.667107 168.166848 70.592602 167.986977 70.46 167.854375 
C 70.327398 167.721773 70.147527 167.647268 69.96 167.647268 
C 69.772473 167.647268 69.592602 167.721773 69.46 167.854375 
C 69.327398 167.986977 69.252893 168.166848 69.252893 168.354375 
C 69.252893 168.541902 69.327398 168.721773 69.46 168.854375 
C 69.592602 168.986977 69.772473 169.061482 69.96 169.061482 
z
" style="fill:#0000ff;stroke:#0000ff;"/>
     <path d="M 78.36 170.636482 
C 78.547527 170.636482 78.727398 170.561977 78.86 170.429375 
C 78.992602 170.296773 79.067107 170.116902 79.067107 169.929375 
C 79.067107 169.741848 78.992602 169.561977 78.86 169.429375 
C 78.727398 169.296773 78.547527 169.222268 78.36 169.222268 
C 78.172473 169.222268 77.992602 169.296773 77.86 169.429375 
C 77.727398 169.561977 77.652893 169.741848 77.652893 169.929375 
C 77.652893 170.116902 77.727398 170.296773 77.86 170.429375 
C 77.992602 170.561977 78.172473 170.636482 78.36 170.636482 
z
" style="fill:#0000ff;stroke:#0000ff;"/>
    </g>
    <g id="text_10">
     <!-- Estimates -->
     <defs>
      <path d="M 6.90625 0 
L 6.90625 50.75 
L 12.59375 50.75 
Q 14.59375 50.75 15.09375 48.84375 
L 15.75 43.90625 
Q 18.546875 47.25 22 49.390625 
Q 25.453125 51.546875 30.046875 51.546875 
Q 35.15625 51.546875 38.296875 48.765625 
Q 41.453125 46 42.84375 41.25 
Q 43.953125 43.953125 45.703125 45.890625 
Q 47.453125 47.84375 49.59375 49.09375 
Q 51.75 50.34375 54.171875 50.9375 
Q 56.59375 51.546875 59.09375 51.546875 
Q 67.25 51.546875 71.703125 46.5625 
Q 76.15625 41.59375 76.15625 32.34375 
L 76.15625 0 
L 66.65625 0 
L 66.65625 32.34375 
Q 66.65625 38.09375 64.125 41.046875 
Q 61.59375 44 56.796875 44 
Q 54.65625 44 52.71875 43.25 
Q 50.796875 42.5 49.34375 41.046875 
Q 47.90625 39.59375 47.046875 37.390625 
Q 46.203125 35.203125 46.203125 32.34375 
L 46.203125 0 
L 36.703125 0 
L 36.703125 32.34375 
Q 36.703125 38.25 34.328125 41.125 
Q 31.953125 44 27.34375 44 
Q 24.203125 44 21.421875 42.328125 
Q 18.65625 40.65625 16.40625 37.703125 
L 16.40625 0 
z
" id="Lato-Medium-6d"/>
      <path d="M 16.84375 50.75 
L 16.84375 0 
L 7.34375 0 
L 7.34375 50.75 
z
M 18.703125 66.5 
Q 18.703125 65.15625 18.171875 63.96875 
Q 17.65625 62.796875 16.71875 61.890625 
Q 15.796875 61 14.5625 60.46875 
Q 13.34375 59.953125 12 59.953125 
Q 10.703125 59.953125 9.515625 60.46875 
Q 8.34375 61 7.4375 61.890625 
Q 6.546875 62.796875 6.015625 63.96875 
Q 5.5 65.15625 5.5 66.5 
Q 5.5 67.84375 6.015625 69.0625 
Q 6.546875 70.296875 7.4375 71.1875 
Q 8.34375 72.09375 9.515625 72.625 
Q 10.703125 73.15625 12 73.15625 
Q 13.34375 73.15625 14.5625 72.625 
Q 15.796875 72.09375 16.71875 71.1875 
Q 17.65625 70.296875 18.171875 69.0625 
Q 18.703125 67.84375 18.703125 66.5 
" id="Lato-Medium-69"/>
      <path d="M 39.34375 0 
Q 37.953125 0 37.203125 0.453125 
Q 36.453125 0.90625 36 2.203125 
L 34.953125 6.75 
Q 33 4.953125 31.09375 3.515625 
Q 29.203125 2.09375 27.125 1.140625 
Q 25.046875 0.203125 22.6875 -0.296875 
Q 20.34375 -0.796875 17.453125 -0.796875 
Q 14.453125 -0.796875 11.84375 0.015625 
Q 9.25 0.84375 7.328125 2.546875 
Q 5.40625 4.25 4.28125 6.765625 
Q 3.15625 9.296875 3.15625 12.75 
Q 3.15625 15.75 4.78125 18.5 
Q 6.40625 21.25 10.078125 23.421875 
Q 13.75 25.59375 19.671875 27 
Q 25.59375 28.40625 34.25 28.59375 
L 34.25 32.40625 
Q 34.25 38.15625 31.765625 41.078125 
Q 29.296875 44 24.5 44 
Q 21.25 44 19.078125 43.171875 
Q 16.90625 42.34375 15.328125 41.375 
Q 13.75 40.40625 12.546875 39.59375 
Q 11.34375 38.796875 10.15625 38.796875 
Q 9.15625 38.796875 8.46875 39.3125 
Q 7.796875 39.84375 7.296875 40.546875 
L 5.59375 43.65625 
Q 9.84375 47.65625 14.765625 49.65625 
Q 19.703125 51.65625 25.65625 51.65625 
Q 29.953125 51.65625 33.296875 50.25 
Q 36.65625 48.84375 38.921875 46.3125 
Q 41.203125 43.796875 42.375 40.25 
Q 43.546875 36.703125 43.546875 32.40625 
L 43.546875 0 
z
M 20.296875 5.84375 
Q 22.546875 5.84375 24.46875 6.296875 
Q 26.40625 6.75 28.078125 7.59375 
Q 29.75 8.453125 31.25 9.671875 
Q 32.75 10.90625 34.25 12.453125 
L 34.25 22.65625 
Q 28.25 22.453125 24.046875 21.703125 
Q 19.84375 20.953125 17.21875 19.75 
Q 14.59375 18.546875 13.390625 16.875 
Q 12.203125 15.203125 12.203125 13.203125 
Q 12.203125 11.25 12.828125 9.84375 
Q 13.453125 8.453125 14.546875 7.578125 
Q 15.65625 6.703125 17.125 6.265625 
Q 18.59375 5.84375 20.296875 5.84375 
" id="Lato-Medium-61"/>
      <path d="M 53.34375 71.75 
L 53.34375 63.34375 
L 19.296875 63.34375 
L 19.296875 40.25 
L 46.75 40.25 
L 46.75 32.15625 
L 19.296875 32.15625 
L 19.296875 8.40625 
L 53.40625 8.40625 
L 53.34375 0 
L 8.953125 0 
L 8.953125 71.75 
z
" id="Lato-Medium-45"/>
      <path d="M 36.703125 42.15625 
Q 36 40.953125 34.75 40.953125 
Q 33.953125 40.953125 32.96875 41.5 
Q 32 42.046875 30.640625 42.71875 
Q 29.296875 43.40625 27.421875 43.953125 
Q 25.546875 44.5 23 44.5 
Q 20.84375 44.5 19.09375 43.953125 
Q 17.34375 43.40625 16.125 42.453125 
Q 14.90625 41.5 14.21875 40.21875 
Q 13.546875 38.953125 13.546875 37.453125 
Q 13.546875 35.546875 14.671875 34.265625 
Q 15.796875 33 17.625 32.078125 
Q 19.453125 31.15625 21.796875 30.421875 
Q 24.15625 29.703125 26.59375 28.890625 
Q 29.046875 28.09375 31.390625 27.0625 
Q 33.75 26.046875 35.578125 24.546875 
Q 37.40625 23.046875 38.53125 20.875 
Q 39.65625 18.703125 39.65625 15.65625 
Q 39.65625 12.09375 38.375 9.09375 
Q 37.09375 6.09375 34.625 3.890625 
Q 32.15625 1.703125 28.546875 0.453125 
Q 24.953125 -0.796875 20.25 -0.796875 
Q 14.953125 -0.796875 10.578125 0.953125 
Q 6.203125 2.703125 3.203125 5.40625 
L 5.40625 9 
Q 5.796875 9.703125 6.390625 10.078125 
Q 7 10.453125 7.90625 10.453125 
Q 8.84375 10.453125 9.84375 9.75 
Q 10.84375 9.046875 12.265625 8.21875 
Q 13.703125 7.40625 15.71875 6.703125 
Q 17.75 6 20.75 6 
Q 23.296875 6 25.171875 6.640625 
Q 27.046875 7.296875 28.296875 8.375 
Q 29.546875 9.453125 30.140625 10.890625 
Q 30.75 12.34375 30.75 13.953125 
Q 30.75 16 29.625 17.34375 
Q 28.5 18.703125 26.671875 19.640625 
Q 24.84375 20.59375 22.5 21.296875 
Q 20.15625 22 17.671875 22.796875 
Q 15.203125 23.59375 12.84375 24.625 
Q 10.5 25.65625 8.671875 27.25 
Q 6.84375 28.84375 5.71875 31.125 
Q 4.59375 33.40625 4.59375 36.703125 
Q 4.59375 39.65625 5.796875 42.34375 
Q 7 45.046875 9.328125 47.09375 
Q 11.65625 49.15625 15.046875 50.34375 
Q 18.453125 51.546875 22.796875 51.546875 
Q 27.796875 51.546875 31.875 49.96875 
Q 35.953125 48.40625 38.796875 45.59375 
z
" id="Lato-Medium-73"/>
      <path d="M 27.84375 51.546875 
Q 32.453125 51.546875 36.34375 50.015625 
Q 40.25 48.5 43.09375 45.59375 
Q 45.953125 42.703125 47.546875 38.46875 
Q 49.15625 34.25 49.15625 28.796875 
Q 49.15625 26.59375 48.671875 25.84375 
Q 48.203125 25.09375 46.90625 25.09375 
L 13.40625 25.09375 
Q 13.546875 20.453125 14.71875 17 
Q 15.90625 13.546875 17.921875 11.265625 
Q 19.953125 9 22.796875 7.875 
Q 25.65625 6.75 29.15625 6.75 
Q 32.453125 6.75 34.828125 7.5 
Q 37.203125 8.25 38.921875 9.140625 
Q 40.65625 10.046875 41.84375 10.796875 
Q 43.046875 11.546875 43.953125 11.546875 
Q 45.15625 11.546875 45.703125 10.65625 
L 48.40625 7.203125 
Q 46.65625 5.09375 44.34375 3.625 
Q 42.046875 2.15625 39.390625 1.171875 
Q 36.75 0.203125 33.921875 -0.25 
Q 31.09375 -0.703125 28.34375 -0.703125 
Q 23.09375 -0.703125 18.625 1.0625 
Q 14.15625 2.84375 10.90625 6.265625 
Q 7.65625 9.703125 5.828125 14.765625 
Q 4 19.84375 4 26.453125 
Q 4 31.75 5.640625 36.328125 
Q 7.296875 40.90625 10.375 44.28125 
Q 13.453125 47.65625 17.875 49.59375 
Q 22.296875 51.546875 27.84375 51.546875 
M 28 44.59375 
Q 21.75 44.59375 18.171875 40.96875 
Q 14.59375 37.34375 13.703125 30.953125 
L 40.65625 30.953125 
Q 40.65625 33.953125 39.796875 36.453125 
Q 38.953125 38.953125 37.328125 40.75 
Q 35.703125 42.546875 33.34375 43.5625 
Q 31 44.59375 28 44.59375 
" id="Lato-Medium-65"/>
     </defs>
     <g transform="translate(91.56 172.554375)scale(0.12 -0.12)">
      <use xlink:href="#Lato-Medium-45"/>
      <use x="57.70001220703125" xlink:href="#Lato-Medium-73"/>
      <use x="101.10002136230469" xlink:href="#Lato-Medium-74"/>
      <use x="137.1500244140625" xlink:href="#Lato-Medium-69"/>
      <use x="161.3500213623047" xlink:href="#Lato-Medium-6d"/>
      <use x="243.85003662109375" xlink:href="#Lato-Medium-61"/>
      <use x="293.7500457763672" xlink:href="#Lato-Medium-74"/>
      <use x="329.800048828125" xlink:href="#Lato-Medium-65"/>
      <use x="382.70005798339844" xlink:href="#Lato-Medium-73"/>
     </g>
    </g>
   </g>
  </g>
  <g id="axes_2">
   <g id="patch_8">
    <path d="M 236.16 185.4 
L 414.36 185.4 
L 414.36 7.2 
L 236.16 7.2 
L 236.16 185.4 
z
" style="fill:none;"/>
   </g>
   <g id="PathCollection_3">
    <g clip-path="url(#p7d0b4ac0f8)">
     <use style="fill:#0000ff;stroke:#0000ff;" x="392.085001686" xlink:href="#m2b0666e80f" y="47.2950075614"/>
     <use style="fill:#0000ff;stroke:#0000ff;" x="396.54" xlink:href="#m2b0666e80f" y="91.8449996949"/>
     <use style="fill:#0000ff;stroke:#0000ff;" x="392.084999687" xlink:href="#m2b0666e80f" y="87.3899995152"/>
     <use style="fill:#0000ff;stroke:#0000ff;" x="387.035999757" xlink:href="#m2b0666e80f" y="66.9494116837"/>
     <use style="fill:#0000ff;stroke:#0000ff;" x="396.54" xlink:href="#m2b0666e80f" y="71.2556757916"/>
     <use style="fill:#0000ff;stroke:#0000ff;" x="391.624137936" xlink:href="#m2b0666e80f" y="65.7514299362"/>
     <use style="fill:#0000ff;stroke:#0000ff;" x="385.980003392" xlink:href="#m2b0666e80f" y="63.5497202258"/>
     <use style="fill:#0000ff;stroke:#0000ff;" x="392.579994734" xlink:href="#m2b0666e80f" y="55.5685488528"/>
     <use style="fill:#0000ff;stroke:#0000ff;" x="392.46685672" xlink:href="#m2b0666e80f" y="59.4310357058"/>
     <use style="fill:#0000ff;stroke:#0000ff;" x="392.5799996" xlink:href="#m2b0666e80f" y="70.8428575398"/>
     <use style="fill:#0000ff;stroke:#0000ff;" x="392.466856818" xlink:href="#m2b0666e80f" y="88.9262076947"/>
     <use style="fill:#0000ff;stroke:#0000ff;" x="392.34705856" xlink:href="#m2b0666e80f" y="63.0360004566"/>
     <use style="fill:#0000ff;stroke:#0000ff;" x="382.283999647" xlink:href="#m2b0666e80f" y="41.7917645355"/>
     <use style="fill:#0000ff;stroke:#0000ff;" x="381.127128718" xlink:href="#m2b0666e80f" y="121.341386148"/>
     <use style="fill:#0000ff;stroke:#0000ff;" x="396.54" xlink:href="#m2b0666e80f" y="82.0440004029"/>
     <use style="fill:#0000ff;stroke:#0000ff;" x="382.743872745" xlink:href="#m2b0666e80f" y="59.5799984054"/>
     <use style="fill:#0000ff;stroke:#0000ff;" x="392.580000044" xlink:href="#m2b0666e80f" y="86.1171469728"/>
     <use style="fill:#0000ff;stroke:#0000ff;" x="396.54" xlink:href="#m2b0666e80f" y="75.6058067847"/>
     <use style="fill:#0000ff;stroke:#0000ff;" x="396.54" xlink:href="#m2b0666e80f" y="78.4800003162"/>
     <use style="fill:#0000ff;stroke:#0000ff;" x="396.54" xlink:href="#m2b0666e80f" y="50.47714345"/>
     <use style="fill:#0000ff;stroke:#0000ff;" x="380.247428435" xlink:href="#m2b0666e80f" y="74.1786210162"/>
     <use style="fill:#0000ff;stroke:#0000ff;" x="396.54" xlink:href="#m2b0666e80f" y="72.5400003423"/>
     <use style="fill:#0000ff;stroke:#0000ff;" x="391.259999694" xlink:href="#m2b0666e80f" y="48.1378383804"/>
     <use style="fill:#0000ff;stroke:#0000ff;" x="383.174999403" xlink:href="#m2b0666e80f" y="82.9349994869"/>
     <use style="fill:#0000ff;stroke:#0000ff;" x="392.788420739" xlink:href="#m2b0666e80f" y="57.9184621401"/>
     <use style="fill:#0000ff;stroke:#0000ff;" x="387.036000235" xlink:href="#m2b0666e80f" y="50.1776472296"/>
     <use style="fill:#0000ff;stroke:#0000ff;" x="396.54" xlink:href="#m2b0666e80f" y="69.8245717983"/>
     <use style="fill:#0000ff;stroke:#0000ff;" x="396.54" xlink:href="#m2b0666e80f" y="86.1171424332"/>
     <use style="fill:#0000ff;stroke:#0000ff;" x="396.54" xlink:href="#m2b0666e80f" y="64.3468965588"/>
     <use style="fill:#0000ff;stroke:#0000ff;" x="385.573845908" xlink:href="#m2b0666e80f" y="96.3000007778"/>
     <use style="fill:#0000ff;stroke:#0000ff;" x="392.219998664" xlink:href="#m2b0666e80f" y="75.6058083403"/>
     <use style="fill:#0000ff;stroke:#0000ff;" x="392.219999654" xlink:href="#m2b0666e80f" y="66.4083874714"/>
     <use style="fill:#0000ff;stroke:#0000ff;" x="392.687026706" xlink:href="#m2b0666e80f" y="61.9800000296"/>
     <use style="fill:#0000ff;stroke:#0000ff;" x="371.746956408" xlink:href="#m2b0666e80f" y="52.8365854695"/>
     <use style="fill:#0000ff;stroke:#0000ff;" x="396.54" xlink:href="#m2b0666e80f" y="75.6058067847"/>
     <use style="fill:#0000ff;stroke:#0000ff;" x="392.788420739" xlink:href="#m2b0666e80f" y="57.9184621401"/>
     <use style="fill:#0000ff;stroke:#0000ff;" x="387.629999726" xlink:href="#m2b0666e80f" y="65.1150003634"/>
     <use style="fill:#0000ff;stroke:#0000ff;" x="396.54" xlink:href="#m2b0666e80f" y="93.8420697747"/>
     <use style="fill:#0000ff;stroke:#0000ff;" x="396.54" xlink:href="#m2b0666e80f" y="67.2600001627"/>
     <use style="fill:#0000ff;stroke:#0000ff;" x="396.54" xlink:href="#m2b0666e80f" y="89.4019350387"/>
     <use style="fill:#0000ff;stroke:#0000ff;" x="392.084999413" xlink:href="#m2b0666e80f" y="82.935000585"/>
     <use style="fill:#0000ff;stroke:#0000ff;" x="392.219999696" xlink:href="#m2b0666e80f" y="48.0135489387"/>
     <use style="fill:#0000ff;stroke:#0000ff;" x="396.54" xlink:href="#m2b0666e80f" y="101.051999893"/>
     <use style="fill:#0000ff;stroke:#0000ff;" x="379.768234895" xlink:href="#m2b0666e80f" y="67.7879997626"/>
     <use style="fill:#0000ff;stroke:#0000ff;" x="392.788420672" xlink:href="#m2b0666e80f" y="90.8169237756"/>
     <use style="fill:#0000ff;stroke:#0000ff;" x="389.03684185" xlink:href="#m2b0666e80f" y="85.3338453895"/>
     <use style="fill:#0000ff;stroke:#0000ff;" x="393.145713598" xlink:href="#m2b0666e80f" y="70.3800000462"/>
     <use style="fill:#0000ff;stroke:#0000ff;" x="396.54" xlink:href="#m2b0666e80f" y="86.1171424332"/>
     <use style="fill:#0000ff;stroke:#0000ff;" x="396.54" xlink:href="#m2b0666e80f" y="74.9160004254"/>
     <use style="fill:#0000ff;stroke:#0000ff;" x="396.54" xlink:href="#m2b0666e80f" y="70.0389477732"/>
     <use style="fill:#0000ff;stroke:#0000ff;" x="396.54" xlink:href="#m2b0666e80f" y="80.8043485716"/>
     <use style="fill:#0000ff;stroke:#0000ff;" x="396.54" xlink:href="#m2b0666e80f" y="63.9000003588"/>
     <use style="fill:#0000ff;stroke:#0000ff;" x="396.54" xlink:href="#m2b0666e80f" y="64.6200003535"/>
     <use style="fill:#0000ff;stroke:#0000ff;" x="387.036004317" xlink:href="#m2b0666e80f" y="83.7211654552"/>
     <use style="fill:#0000ff;stroke:#0000ff;" x="396.54" xlink:href="#m2b0666e80f" y="68.8846153357"/>
     <use style="fill:#0000ff;stroke:#0000ff;" x="396.54" xlink:href="#m2b0666e80f" y="74.0250002393"/>
     <use style="fill:#0000ff;stroke:#0000ff;" x="392.084999687" xlink:href="#m2b0666e80f" y="87.3899995152"/>
     <use style="fill:#0000ff;stroke:#0000ff;" x="396.54" xlink:href="#m2b0666e80f" y="77.9708575255"/>
     <use style="fill:#0000ff;stroke:#0000ff;" x="392.084999593" xlink:href="#m2b0666e80f" y="96.2999995394"/>
     <use style="fill:#0000ff;stroke:#0000ff;" x="379.259999701" xlink:href="#m2b0666e80f" y="48.0135485756"/>
     <use style="fill:#0000ff;stroke:#0000ff;" x="391.259997371" xlink:href="#m2b0666e80f" y="55.843777497"/>
     <use style="fill:#0000ff;stroke:#0000ff;" x="381.792413946" xlink:href="#m2b0666e80f" y="65.7514285911"/>
     <use style="fill:#0000ff;stroke:#0000ff;" x="396.54" xlink:href="#m2b0666e80f" y="59.4310344306"/>
     <use style="fill:#0000ff;stroke:#0000ff;" x="392.46685672" xlink:href="#m2b0666e80f" y="59.4310357058"/>
     <use style="fill:#0000ff;stroke:#0000ff;" x="396.54" xlink:href="#m2b0666e80f" y="81.1800003454"/>
     <use style="fill:#0000ff;stroke:#0000ff;" x="392.466856734" xlink:href="#m2b0666e80f" y="93.8420692291"/>
     <use style="fill:#0000ff;stroke:#0000ff;" x="396.54" xlink:href="#m2b0666e80f" y="70.0389477732"/>
     <use style="fill:#0000ff;stroke:#0000ff;" x="396.54" xlink:href="#m2b0666e80f" y="62.7564704248"/>
     <use style="fill:#0000ff;stroke:#0000ff;" x="396.54" xlink:href="#m2b0666e80f" y="70.842857368"/>
     <use style="fill:#0000ff;stroke:#0000ff;" x="392.579999686" xlink:href="#m2b0666e80f" y="50.4771429669"/>
     <use style="fill:#0000ff;stroke:#0000ff;" x="396.54" xlink:href="#m2b0666e80f" y="69.8245717983"/>
     <use style="fill:#0000ff;stroke:#0000ff;" x="396.54" xlink:href="#m2b0666e80f" y="85.500000358"/>
     <use style="fill:#0000ff;stroke:#0000ff;" x="387.035999757" xlink:href="#m2b0666e80f" y="66.9494116837"/>
     <use style="fill:#0000ff;stroke:#0000ff;" x="392.084999613" xlink:href="#m2b0666e80f" y="69.5700006758"/>
     <use style="fill:#0000ff;stroke:#0000ff;" x="392.466856828" xlink:href="#m2b0666e80f" y="74.1786210907"/>
     <use style="fill:#0000ff;stroke:#0000ff;" x="396.54" xlink:href="#m2b0666e80f" y="91.2085709593"/>
     <use style="fill:#0000ff;stroke:#0000ff;" x="387.629999434" xlink:href="#m2b0666e80f" y="56.2049982876"/>
     <use style="fill:#0000ff;stroke:#0000ff;" x="396.54" xlink:href="#m2b0666e80f" y="96.3000010959"/>
     <use style="fill:#0000ff;stroke:#0000ff;" x="390.837599682" xlink:href="#m2b0666e80f" y="76.1953850193"/>
     <use style="fill:#0000ff;stroke:#0000ff;" x="396.54" xlink:href="#m2b0666e80f" y="74.0250002393"/>
     <use style="fill:#0000ff;stroke:#0000ff;" x="391.624137936" xlink:href="#m2b0666e80f" y="65.7514299362"/>
     <use style="fill:#0000ff;stroke:#0000ff;" x="392.347051526" xlink:href="#m2b0666e80f" y="82.0439989554"/>
     <use style="fill:#0000ff;stroke:#0000ff;" x="391.259999875" xlink:href="#m2b0666e80f" y="82.8145953751"/>
     <use style="fill:#0000ff;stroke:#0000ff;" x="396.54" xlink:href="#m2b0666e80f" y="76.500000127"/>
     <use style="fill:#0000ff;stroke:#0000ff;" x="396.54" xlink:href="#m2b0666e80f" y="65.7514289195"/>
     <use style="fill:#0000ff;stroke:#0000ff;" x="391.941289947" xlink:href="#m2b0666e80f" y="68.220000117"/>
     <use style="fill:#0000ff;stroke:#0000ff;" x="396.54" xlink:href="#m2b0666e80f" y="69.5700005141"/>
     <use style="fill:#0000ff;stroke:#0000ff;" x="390.341738695" xlink:href="#m2b0666e80f" y="63.2678049112"/>
     <use style="fill:#0000ff;stroke:#0000ff;" x="386.357142369" xlink:href="#m2b0666e80f" y="64.620000814"/>
     <use style="fill:#0000ff;stroke:#0000ff;" x="396.54" xlink:href="#m2b0666e80f" y="81.025715037"/>
     <use style="fill:#0000ff;stroke:#0000ff;" x="396.54" xlink:href="#m2b0666e80f" y="76.8600000042"/>
     <use style="fill:#0000ff;stroke:#0000ff;" x="396.54" xlink:href="#m2b0666e80f" y="83.1000006912"/>
     <use style="fill:#0000ff;stroke:#0000ff;" x="391.624137237" xlink:href="#m2b0666e80f" y="61.6782864022"/>
     <use style="fill:#0000ff;stroke:#0000ff;" x="388.154117324" xlink:href="#m2b0666e80f" y="77.2919999253"/>
     <use style="fill:#0000ff;stroke:#0000ff;" x="396.54" xlink:href="#m2b0666e80f" y="76.8600000042"/>
     <use style="fill:#0000ff;stroke:#0000ff;" x="391.448570865" xlink:href="#m2b0666e80f" y="60.6600002532"/>
     <use style="fill:#0000ff;stroke:#0000ff;" x="391.941290103" xlink:href="#m2b0666e80f" y="76.8599912312"/>
     <use style="fill:#0000ff;stroke:#0000ff;" x="396.54" xlink:href="#m2b0666e80f" y="69.5700005141"/>
     <use style="fill:#0000ff;stroke:#0000ff;" x="392.219999555" xlink:href="#m2b0666e80f" y="84.8032256655"/>
     <use style="fill:#0000ff;stroke:#0000ff;" x="396.54" xlink:href="#m2b0666e80f" y="75.3352947223"/>
     <use style="fill:#0000ff;stroke:#0000ff;" x="396.54" xlink:href="#m2b0666e80f" y="88.7968428428"/>
     <use style="fill:#0000ff;stroke:#0000ff;" x="380.123307726" xlink:href="#m2b0666e80f" y="118.329923177"/>
     <use style="fill:#0000ff;stroke:#0000ff;" x="388.834052065" xlink:href="#m2b0666e80f" y="77.8200242505"/>
     <use style="fill:#0000ff;stroke:#0000ff;" x="392.5799996" xlink:href="#m2b0666e80f" y="70.8428575398"/>
     <use style="fill:#0000ff;stroke:#0000ff;" x="388.834053987" xlink:href="#m2b0666e80f" y="56.7000016077"/>
     <use style="fill:#0000ff;stroke:#0000ff;" x="396.54" xlink:href="#m2b0666e80f" y="99.3991307372"/>
     <use style="fill:#0000ff;stroke:#0000ff;" x="387.342580397" xlink:href="#m2b0666e80f" y="55.2600006477"/>
     <use style="fill:#0000ff;stroke:#0000ff;" x="387.342601398" xlink:href="#m2b0666e80f" y="72.5400479802"/>
     <use style="fill:#0000ff;stroke:#0000ff;" x="392.219999912" xlink:href="#m2b0666e80f" y="80.2045166388"/>
     <use style="fill:#0000ff;stroke:#0000ff;" x="386.708275435" xlink:href="#m2b0666e80f" y="57.6051427412"/>
     <use style="fill:#0000ff;stroke:#0000ff;" x="392.976001073" xlink:href="#m2b0666e80f" y="60.6599918058"/>
     <use style="fill:#0000ff;stroke:#0000ff;" x="388.154117324" xlink:href="#m2b0666e80f" y="77.2919999253"/>
     <use style="fill:#0000ff;stroke:#0000ff;" x="387.900000007" xlink:href="#m2b0666e80f" y="66.4083875204"/>
     <use style="fill:#0000ff;stroke:#0000ff;" x="396.54" xlink:href="#m2b0666e80f" y="82.0440007112"/>
     <use style="fill:#0000ff;stroke:#0000ff;" x="396.54" xlink:href="#m2b0666e80f" y="59.5800006425"/>
     <use style="fill:#0000ff;stroke:#0000ff;" x="391.448572282" xlink:href="#m2b0666e80f" y="68.5800039011"/>
     <use style="fill:#0000ff;stroke:#0000ff;" x="392.084999603" xlink:href="#m2b0666e80f" y="60.6600005946"/>
     <use style="fill:#0000ff;stroke:#0000ff;" x="384.143475113" xlink:href="#m2b0666e80f" y="59.7907361508"/>
     <use style="fill:#0000ff;stroke:#0000ff;" x="392.084999835" xlink:href="#m2b0666e80f" y="91.8450003281"/>
     <use style="fill:#0000ff;stroke:#0000ff;" x="376.174285173" xlink:href="#m2b0666e80f" y="64.6200003631"/>
     <use style="fill:#0000ff;stroke:#0000ff;" x="396.54" xlink:href="#m2b0666e80f" y="84.8032265749"/>
     <use style="fill:#0000ff;stroke:#0000ff;" x="389.03684061" xlink:href="#m2b0666e80f" y="74.3676960068"/>
     <use style="fill:#0000ff;stroke:#0000ff;" x="392.884615361" xlink:href="#m2b0666e80f" y="53.5319927624"/>
     <use style="fill:#0000ff;stroke:#0000ff;" x="396.54" xlink:href="#m2b0666e80f" y="90.1902852208"/>
     <use style="fill:#0000ff;stroke:#0000ff;" x="396.54" xlink:href="#m2b0666e80f" y="90.1902852208"/>
     <use style="fill:#0000ff;stroke:#0000ff;" x="392.347058437" xlink:href="#m2b0666e80f" y="58.2840003683"/>
     <use style="fill:#0000ff;stroke:#0000ff;" x="392.34705864" xlink:href="#m2b0666e80f" y="44.0280001306"/>
     <use style="fill:#0000ff;stroke:#0000ff;" x="382.743870402" xlink:href="#m2b0666e80f" y="85.5000007754"/>
    </g>
   </g>
   <g id="line2d_18">
    <path clip-path="url(#p7d0b4ac0f8)" d="M 325.26 25.02 
L 328.757544 25.10586 
L 332.246662 25.363233 
L 335.718948 25.791498 
L 339.166038 26.389625 
L 342.579627 27.156172 
L 345.951492 28.089293 
L 349.273509 29.186739 
L 352.537675 30.445867 
L 355.736127 31.863643 
L 358.861159 33.436652 
L 361.905244 35.161105 
L 364.861046 37.032846 
L 367.721446 39.047367 
L 370.479553 41.199815 
L 373.128722 43.485004 
L 375.662571 45.897429 
L 378.074996 48.431278 
L 380.360185 51.080447 
L 382.512633 53.838554 
L 384.527154 56.698954 
L 386.398895 59.654756 
L 388.123348 62.698841 
L 389.696357 65.823873 
L 391.114133 69.022325 
L 392.373261 72.286491 
L 393.470707 75.608508 
L 394.403828 78.980373 
L 395.170375 82.393962 
L 395.768502 85.841052 
L 396.196767 89.313338 
L 396.45414 92.802456 
L 396.54 96.3 
L 396.45414 99.797544 
L 396.196767 103.286662 
L 395.768502 106.758948 
L 395.170375 110.206038 
L 394.403828 113.619627 
L 393.470707 116.991492 
L 392.373261 120.313509 
L 391.114133 123.577675 
L 389.696357 126.776127 
L 388.123348 129.901159 
L 386.398895 132.945244 
L 384.527154 135.901046 
L 382.512633 138.761446 
L 380.360185 141.519553 
L 378.074996 144.168722 
L 375.662571 146.702571 
L 373.128722 149.114996 
L 370.479553 151.400185 
L 367.721446 153.552633 
L 364.861046 155.567154 
L 361.905244 157.438895 
L 358.861159 159.163348 
L 355.736127 160.736357 
L 352.537675 162.154133 
L 349.273509 163.413261 
L 345.951492 164.510707 
L 342.579627 165.443828 
L 339.166038 166.210375 
L 335.718948 166.808502 
L 332.246662 167.236767 
L 328.757544 167.49414 
L 325.26 167.58 
L 321.762456 167.49414 
L 318.273338 167.236767 
L 314.801052 166.808502 
L 311.353962 166.210375 
L 307.940373 165.443828 
L 304.568508 164.510707 
L 301.246491 163.413261 
L 297.982325 162.154133 
L 294.783873 160.736357 
L 291.658841 159.163348 
L 288.614756 157.438895 
L 285.658954 155.567154 
L 282.798554 153.552633 
L 280.040447 151.400185 
L 277.391278 149.114996 
L 274.857429 146.702571 
L 272.445004 144.168722 
L 270.159815 141.519553 
L 268.007367 138.761446 
L 265.992846 135.901046 
L 264.121105 132.945244 
L 262.396652 129.901159 
L 260.823643 126.776127 
L 259.405867 123.577675 
L 258.146739 120.313509 
L 257.049293 116.991492 
L 256.116172 113.619627 
L 255.349625 110.206038 
L 254.751498 106.758948 
L 254.323233 103.286662 
L 254.06586 99.797544 
L 253.98 96.3 
L 254.06586 92.802456 
L 254.323233 89.313338 
L 254.751498 85.841052 
L 255.349625 82.393962 
L 256.116172 78.980373 
L 257.049293 75.608508 
L 258.146739 72.286491 
L 259.405867 69.022325 
L 260.823643 65.823873 
L 262.396652 62.698841 
L 264.121105 59.654756 
L 265.992846 56.698954 
L 268.007367 53.838554 
L 270.159815 51.080447 
L 272.445004 48.431278 
L 274.857429 45.897429 
L 277.391278 43.485004 
L 280.040447 41.199815 
L 282.798554 39.047367 
L 285.658954 37.032846 
L 288.614756 35.161105 
L 291.658841 33.436652 
L 294.783873 31.863643 
L 297.982325 30.445867 
L 301.246491 29.186739 
L 304.568508 28.089293 
L 307.940373 27.156172 
L 311.353962 26.389625 
L 314.801052 25.791498 
L 318.273338 25.363233 
L 321.762456 25.10586 
L 325.26 25.02 
L 325.26 25.02 
" style="fill:none;stroke:#000000;stroke-linecap:square;"/>
   </g>
   <g id="line2d_19">
    <path clip-path="url(#p7d0b4ac0f8)" d="M 391.936335 71.098714 
" style="fill:none;"/>
    <g clip-path="url(#p7d0b4ac0f8)">
     <use style="fill:#ff0000;stroke:#000000;stroke-width:0.5;" x="391.936334632" xlink:href="#mc962ee9398" y="71.0987143185"/>
    </g>
   </g>
   <g id="line2d_20">
    <path clip-path="url(#p7d0b4ac0f8)" d="M 390.749678 43.960821 
L 391.58428 44.157759 
L 392.588846 44.645579 
L 393.587595 45.403214 
L 394.570909 46.423367 
L 395.685978 47.932097 
L 396.752547 49.764901 
L 397.8942 52.225366 
L 398.934742 55.035511 
L 399.85637 58.147253 
L 400.731515 61.942 
L 401.417321 65.968806 
L 401.898942 70.140504 
L 402.165953 74.366788 
L 402.212575 78.556173 
L 402.037796 82.61797 
L 401.645402 86.464254 
L 401.043887 90.011766 
L 400.344076 92.852032 
L 399.501237 95.346843 
L 398.657706 97.212707 
L 397.726731 98.756849 
L 396.868374 99.808877 
L 395.962987 100.599467 
L 395.019287 101.121007 
L 394.210153 101.346395 
L 393.386132 101.379899 
L 392.552738 101.221295 
L 391.548143 100.778973 
L 390.547754 100.06587 
L 389.561204 99.088855 
L 388.440386 97.628137 
L 387.366016 95.840255 
L 386.352174 93.748637 
L 385.284612 91.021625 
L 384.331692 87.980477 
L 383.416908 84.248667 
L 382.687594 80.266044 
L 382.159538 76.118821 
L 381.84417 71.896771 
L 381.748317 67.691291 
L 381.874054 63.593415 
L 382.218659 59.69185 
L 382.774673 56.071053 
L 383.436755 53.151804 
L 384.245097 50.566382 
L 385.06156 48.612913 
L 385.968748 46.974596 
L 386.954775 45.672901 
L 387.852918 44.838139 
L 388.790855 44.271339 
L 389.759551 43.977957 
L 390.583571 43.944453 
L 390.749678 43.960821 
L 390.749678 43.960821 
" style="fill:none;stroke:#000000;stroke-linecap:square;"/>
   </g>
   <g id="patch_9">
    <path d="M 236.16 185.4 
L 236.16 7.2 
" style="fill:none;stroke:#000000;stroke-linecap:square;stroke-linejoin:miter;"/>
   </g>
   <g id="patch_10">
    <path d="M 414.36 185.4 
L 414.36 7.2 
" style="fill:none;stroke:#000000;stroke-linecap:square;stroke-linejoin:miter;"/>
   </g>
   <g id="patch_11">
    <path d="M 236.16 185.4 
L 414.36 185.4 
" style="fill:none;stroke:#000000;stroke-linecap:square;stroke-linejoin:miter;"/>
   </g>
   <g id="patch_12">
    <path d="M 236.16 7.2 
L 414.36 7.2 
" style="fill:none;stroke:#000000;stroke-linecap:square;stroke-linejoin:miter;"/>
   </g>
   <g id="matplotlib.axis_3">
    <g id="xtick_4">
     <g id="line2d_21">
      <g>
       <use style="stroke:#000000;stroke-width:0.5;" x="253.98" xlink:href="#m4cb69b445c" y="185.4"/>
      </g>
     </g>
     <g id="line2d_22">
      <g>
       <use style="stroke:#000000;stroke-width:0.5;" x="253.98" xlink:href="#meafccc7f76" y="7.2"/>
      </g>
     </g>
     <g id="text_11">
      <!-- −1 -->
      <g transform="translate(248.18 196.775)scale(0.1 -0.1)">
       <use xlink:href="#Lato-Medium-2212"/>
       <use x="58.0" xlink:href="#Lato-Medium-31"/>
      </g>
     </g>
    </g>
    <g id="xtick_5">
     <g id="line2d_23">
      <g>
       <use style="stroke:#000000;stroke-width:0.5;" x="325.26" xlink:href="#m4cb69b445c" y="185.4"/>
      </g>
     </g>
     <g id="line2d_24">
      <g>
       <use style="stroke:#000000;stroke-width:0.5;" x="325.26" xlink:href="#meafccc7f76" y="7.2"/>
      </g>
     </g>
     <g id="text_12">
      <!-- 0 -->
      <g transform="translate(322.36 196.775)scale(0.1 -0.1)">
       <use xlink:href="#Lato-Medium-30"/>
      </g>
     </g>
    </g>
    <g id="xtick_6">
     <g id="line2d_25">
      <g>
       <use style="stroke:#000000;stroke-width:0.5;" x="396.54" xlink:href="#m4cb69b445c" y="185.4"/>
      </g>
     </g>
     <g id="line2d_26">
      <g>
       <use style="stroke:#000000;stroke-width:0.5;" x="396.54" xlink:href="#meafccc7f76" y="7.2"/>
      </g>
     </g>
     <g id="text_13">
      <!-- 1 -->
      <g transform="translate(393.64 196.775)scale(0.1 -0.1)">
       <use xlink:href="#Lato-Medium-31"/>
      </g>
     </g>
    </g>
    <g id="text_14">
     <!-- $\langle X\rangle$ -->
     <g transform="translate(311.02 219.1596875)scale(0.16 -0.16)">
      <use transform="translate(0.0 94.0)" xlink:href="#Cmex10-ad"/>
      <use transform="translate(47.216796875 0.6588541666666572)" xlink:href="#Cmmi10-58"/>
      <use transform="translate(130.029296875 94.0)" xlink:href="#Cmex10-ae"/>
     </g>
    </g>
   </g>
   <g id="matplotlib.axis_4">
    <g id="ytick_4">
     <g id="line2d_27">
      <g>
       <use style="stroke:#000000;stroke-width:0.5;" x="236.16" xlink:href="#md9cd0ac990" y="167.58"/>
      </g>
     </g>
     <g id="line2d_28">
      <g>
       <use style="stroke:#000000;stroke-width:0.5;" x="414.36" xlink:href="#md8d73f6cf0" y="167.58"/>
      </g>
     </g>
    </g>
    <g id="ytick_5">
     <g id="line2d_29">
      <g>
       <use style="stroke:#000000;stroke-width:0.5;" x="236.16" xlink:href="#md9cd0ac990" y="96.3"/>
      </g>
     </g>
     <g id="line2d_30">
      <g>
       <use style="stroke:#000000;stroke-width:0.5;" x="414.36" xlink:href="#md8d73f6cf0" y="96.3"/>
      </g>
     </g>
    </g>
    <g id="ytick_6">
     <g id="line2d_31">
      <g>
       <use style="stroke:#000000;stroke-width:0.5;" x="236.16" xlink:href="#md9cd0ac990" y="25.02"/>
      </g>
     </g>
     <g id="line2d_32">
      <g>
       <use style="stroke:#000000;stroke-width:0.5;" x="414.36" xlink:href="#md8d73f6cf0" y="25.02"/>
      </g>
     </g>
    </g>
   </g>
   <g id="legend_2">
    <g id="patch_13">
     <path d="M 242.16 179.4 
L 336.495 179.4 
L 336.495 142.00875 
L 242.16 142.00875 
z
" style="fill:#ffffff;opacity:0.75;stroke:#ffffff;stroke-linejoin:miter;"/>
    </g>
    <g id="line2d_33">
     <path d="M 246.96 151.45875 
L 270.96 151.45875 
" style="fill:none;"/>
    </g>
    <g id="line2d_34">
     <g>
      <use style="fill:#ff0000;stroke:#000000;stroke-width:0.5;" x="258.96" xlink:href="#mc962ee9398" y="151.45875"/>
     </g>
    </g>
    <g id="text_15">
     <!-- Truth -->
     <g transform="translate(280.56 155.65875)scale(0.12 -0.12)">
      <use xlink:href="#Lato-Medium-54"/>
      <use x="59.04376220703125" xlink:href="#Lato-Medium-72"/>
      <use x="95.59376525878906" xlink:href="#Lato-Medium-75"/>
      <use x="151.4437713623047" xlink:href="#Lato-Medium-74"/>
      <use x="187.4937744140625" xlink:href="#Lato-Medium-68"/>
     </g>
    </g>
    <g id="PathCollection_4">
     <path d="M 250.56 170.111482 
C 250.747527 170.111482 250.927398 170.036977 251.06 169.904375 
C 251.192602 169.771773 251.267107 169.591902 251.267107 169.404375 
C 251.267107 169.216848 251.192602 169.036977 251.06 168.904375 
C 250.927398 168.771773 250.747527 168.697268 250.56 168.697268 
C 250.372473 168.697268 250.192602 168.771773 250.06 168.904375 
C 249.927398 169.036977 249.852893 169.216848 249.852893 169.404375 
C 249.852893 169.591902 249.927398 169.771773 250.06 169.904375 
C 250.192602 170.036977 250.372473 170.111482 250.56 170.111482 
z
" style="fill:#0000ff;stroke:#0000ff;"/>
     <path d="M 258.96 169.061482 
C 259.147527 169.061482 259.327398 168.986977 259.46 168.854375 
C 259.592602 168.721773 259.667107 168.541902 259.667107 168.354375 
C 259.667107 168.166848 259.592602 167.986977 259.46 167.854375 
C 259.327398 167.721773 259.147527 167.647268 258.96 167.647268 
C 258.772473 167.647268 258.592602 167.721773 258.46 167.854375 
C 258.327398 167.986977 258.252893 168.166848 258.252893 168.354375 
C 258.252893 168.541902 258.327398 168.721773 258.46 168.854375 
C 258.592602 168.986977 258.772473 169.061482 258.96 169.061482 
z
" style="fill:#0000ff;stroke:#0000ff;"/>
     <path d="M 267.36 170.636482 
C 267.547527 170.636482 267.727398 170.561977 267.86 170.429375 
C 267.992602 170.296773 268.067107 170.116902 268.067107 169.929375 
C 268.067107 169.741848 267.992602 169.561977 267.86 169.429375 
C 267.727398 169.296773 267.547527 169.222268 267.36 169.222268 
C 267.172473 169.222268 266.992602 169.296773 266.86 169.429375 
C 266.727398 169.561977 266.652893 169.741848 266.652893 169.929375 
C 266.652893 170.116902 266.727398 170.296773 266.86 170.429375 
C 266.992602 170.561977 267.172473 170.636482 267.36 170.636482 
z
" style="fill:#0000ff;stroke:#0000ff;"/>
    </g>
    <g id="text_16">
     <!-- Estimates -->
     <g transform="translate(280.56 172.554375)scale(0.12 -0.12)">
      <use xlink:href="#Lato-Medium-45"/>
      <use x="57.70001220703125" xlink:href="#Lato-Medium-73"/>
      <use x="101.10002136230469" xlink:href="#Lato-Medium-74"/>
      <use x="137.1500244140625" xlink:href="#Lato-Medium-69"/>
      <use x="161.3500213623047" xlink:href="#Lato-Medium-6d"/>
      <use x="243.85003662109375" xlink:href="#Lato-Medium-61"/>
      <use x="293.7500457763672" xlink:href="#Lato-Medium-74"/>
      <use x="329.800048828125" xlink:href="#Lato-Medium-65"/>
      <use x="382.70005798339844" xlink:href="#Lato-Medium-73"/>
     </g>
    </g>
   </g>
  </g>
 </g>
 <defs>
  <clipPath id="p37faf89aea">
   <rect height="178.2" width="178.2" x="47.16" y="7.2"/>
  </clipPath>
  <clipPath id="p7d0b4ac0f8">
   <rect height="178.2" width="178.2" x="236.16" y="7.2"/>
  </clipPath>
 </defs>
</svg>
