<?xml version="1.0" encoding="utf-8" standalone="no"?>
<!DOCTYPE svg PUBLIC "-//W3C//DTD SVG 1.1//EN"
  "http://www.w3.org/Graphics/SVG/1.1/DTD/svg11.dtd">
<!-- Created with matplotlib (http://matplotlib.org/) -->
<svg height="288pt" version="1.1" viewBox="0 0 432 288" width="432pt" xmlns="http://www.w3.org/2000/svg" xmlns:xlink="http://www.w3.org/1999/xlink">
 <defs>
  <style type="text/css">
*{stroke-linecap:butt;stroke-linejoin:round;stroke-miterlimit:100000;}
  </style>
 </defs>
 <g id="figure_1">
  <g id="patch_1">
   <path d="M 0 288 
L 432 288 
L 432 0 
L 0 0 
z
" style="fill:#ffffff;"/>
  </g>
  <g id="axes_1">
   <g id="patch_2">
    <path d="M 109.8 252 
L 333 252 
L 333 28.8 
L 109.8 28.8 
z
" style="fill:#ffffff;"/>
   </g>
   <g id="PathCollection_1">
    <defs>
     <path d="M 0 0.707107 
C 0.187527 0.707107 0.367398 0.632602 0.5 0.5 
C 0.632602 0.367398 0.707107 0.187527 0.707107 0 
C 0.707107 -0.187527 0.632602 -0.367398 0.5 -0.5 
C 0.367398 -0.632602 0.187527 -0.707107 0 -0.707107 
C -0.187527 -0.707107 -0.367398 -0.632602 -0.5 -0.5 
C -0.632602 -0.367398 -0.707107 -0.187527 -0.707107 0 
C -0.707107 0.187527 -0.632602 0.367398 -0.5 0.5 
C -0.367398 0.632602 -0.187527 0.707107 0 0.707107 
z
" id="m8953f36c8c" style="stroke:#0000ff;"/>
    </defs>
    <g clip-path="url(#p7e5c3d7938)">
     <use style="fill:#0000ff;stroke:#0000ff;" x="305.100002112" xlink:href="#m8953f36c8c" y="79.0200094708"/>
     <use style="fill:#0000ff;stroke:#0000ff;" x="310.68" xlink:href="#m8953f36c8c" y="134.819999618"/>
     <use style="fill:#0000ff;stroke:#0000ff;" x="305.099999608" xlink:href="#m8953f36c8c" y="129.239999393"/>
     <use style="fill:#0000ff;stroke:#0000ff;" x="298.775999696" xlink:href="#m8953f36c8c" y="103.637646957"/>
     <use style="fill:#0000ff;stroke:#0000ff;" x="310.68" xlink:href="#m8953f36c8c" y="109.031351497"/>
     <use style="fill:#0000ff;stroke:#0000ff;" x="304.522758626" xlink:href="#m8953f36c8c" y="102.137144567"/>
     <use style="fill:#0000ff;stroke:#0000ff;" x="297.453337582" xlink:href="#m8953f36c8c" y="99.3794475556"/>
     <use style="fill:#0000ff;stroke:#0000ff;" x="305.719993404" xlink:href="#m8953f36c8c" y="89.3828288661"/>
     <use style="fill:#0000ff;stroke:#0000ff;" x="305.578285184" xlink:href="#m8953f36c8c" y="94.220691187"/>
     <use style="fill:#0000ff;stroke:#0000ff;" x="305.719999499" xlink:href="#m8953f36c8c" y="108.514286211"/>
     <use style="fill:#0000ff;stroke:#0000ff;" x="305.578285308" xlink:href="#m8953f36c8c" y="131.164138931"/>
     <use style="fill:#0000ff;stroke:#0000ff;" x="305.428234964" xlink:href="#m8953f36c8c" y="98.7360005719"/>
     <use style="fill:#0000ff;stroke:#0000ff;" x="292.823999558" xlink:href="#m8953f36c8c" y="72.1270586102"/>
     <use style="fill:#0000ff;stroke:#0000ff;" x="291.374989505" xlink:href="#m8953f36c8c" y="171.764968509"/>
     <use style="fill:#0000ff;stroke:#0000ff;" x="310.68" xlink:href="#m8953f36c8c" y="122.544000505"/>
     <use style="fill:#0000ff;stroke:#0000ff;" x="293.400002226" xlink:href="#m8953f36c8c" y="94.40727073"/>
     <use style="fill:#0000ff;stroke:#0000ff;" x="305.720000055" xlink:href="#m8953f36c8c" y="127.645719441"/>
     <use style="fill:#0000ff;stroke:#0000ff;" x="310.68" xlink:href="#m8953f36c8c" y="114.480000417"/>
     <use style="fill:#0000ff;stroke:#0000ff;" x="310.68" xlink:href="#m8953f36c8c" y="118.080000396"/>
     <use style="fill:#0000ff;stroke:#0000ff;" x="310.68" xlink:href="#m8953f36c8c" y="83.0057150283"/>
     <use style="fill:#0000ff;stroke:#0000ff;" x="290.273142686" xlink:href="#m8953f36c8c" y="112.692414202"/>
     <use style="fill:#0000ff;stroke:#0000ff;" x="310.68" xlink:href="#m8953f36c8c" y="110.640000429"/>
     <use style="fill:#0000ff;stroke:#0000ff;" x="304.066666283" xlink:href="#m8953f36c8c" y="80.0756763552"/>
     <use style="fill:#0000ff;stroke:#0000ff;" x="293.939999253" xlink:href="#m8953f36c8c" y="123.659999357"/>
     <use style="fill:#0000ff;stroke:#0000ff;" x="305.981052239" xlink:href="#m8953f36c8c" y="92.3261545997"/>
     <use style="fill:#0000ff;stroke:#0000ff;" x="298.776000295" xlink:href="#m8953f36c8c" y="82.6305884491"/>
     <use style="fill:#0000ff;stroke:#0000ff;" x="310.68" xlink:href="#m8953f36c8c" y="107.238857606"/>
     <use style="fill:#0000ff;stroke:#0000ff;" x="310.68" xlink:href="#m8953f36c8c" y="127.645713755"/>
     <use style="fill:#0000ff;stroke:#0000ff;" x="310.68" xlink:href="#m8953f36c8c" y="100.377931043"/>
     <use style="fill:#0000ff;stroke:#0000ff;" x="296.944615077" xlink:href="#m8953f36c8c" y="140.400000974"/>
     <use style="fill:#0000ff;stroke:#0000ff;" x="305.269089235" xlink:href="#m8953f36c8c" y="114.480002366"/>
     <use style="fill:#0000ff;stroke:#0000ff;" x="305.269090475" xlink:href="#m8953f36c8c" y="102.960000469"/>
     <use style="fill:#0000ff;stroke:#0000ff;" x="305.854053652" xlink:href="#m8953f36c8c" y="97.4133333704"/>
     <use style="fill:#0000ff;stroke:#0000ff;" x="279.626086814" xlink:href="#m8953f36c8c" y="85.9609757396"/>
     <use style="fill:#0000ff;stroke:#0000ff;" x="310.68" xlink:href="#m8953f36c8c" y="114.480000417"/>
     <use style="fill:#0000ff;stroke:#0000ff;" x="305.981052239" xlink:href="#m8953f36c8c" y="92.3261545997"/>
     <use style="fill:#0000ff;stroke:#0000ff;" x="299.519999657" xlink:href="#m8953f36c8c" y="101.340000455"/>
     <use style="fill:#0000ff;stroke:#0000ff;" x="310.68" xlink:href="#m8953f36c8c" y="137.321380324"/>
     <use style="fill:#0000ff;stroke:#0000ff;" x="310.68" xlink:href="#m8953f36c8c" y="104.026666871"/>
     <use style="fill:#0000ff;stroke:#0000ff;" x="310.68" xlink:href="#m8953f36c8c" y="131.759999442"/>
     <use style="fill:#0000ff;stroke:#0000ff;" x="305.099999265" xlink:href="#m8953f36c8c" y="123.660000733"/>
     <use style="fill:#0000ff;stroke:#0000ff;" x="305.269090528" xlink:href="#m8953f36c8c" y="79.9200006909"/>
     <use style="fill:#0000ff;stroke:#0000ff;" x="310.68" xlink:href="#m8953f36c8c" y="146.351999865"/>
     <use style="fill:#0000ff;stroke:#0000ff;" x="289.672940677" xlink:href="#m8953f36c8c" y="104.687999703"/>
     <use style="fill:#0000ff;stroke:#0000ff;" x="305.981052155" xlink:href="#m8953f36c8c" y="133.532308567"/>
     <use style="fill:#0000ff;stroke:#0000ff;" x="301.282104943" xlink:href="#m8953f36c8c" y="126.664614427"/>
     <use style="fill:#0000ff;stroke:#0000ff;" x="306.428570568" xlink:href="#m8953f36c8c" y="107.934545512"/>
     <use style="fill:#0000ff;stroke:#0000ff;" x="310.68" xlink:href="#m8953f36c8c" y="127.645713755"/>
     <use style="fill:#0000ff;stroke:#0000ff;" x="310.68" xlink:href="#m8953f36c8c" y="113.616000533"/>
     <use style="fill:#0000ff;stroke:#0000ff;" x="310.68" xlink:href="#m8953f36c8c" y="107.507368928"/>
     <use style="fill:#0000ff;stroke:#0000ff;" x="310.68" xlink:href="#m8953f36c8c" y="120.991305282"/>
     <use style="fill:#0000ff;stroke:#0000ff;" x="310.68" xlink:href="#m8953f36c8c" y="99.8181822676"/>
     <use style="fill:#0000ff;stroke:#0000ff;" x="310.68" xlink:href="#m8953f36c8c" y="100.720000443"/>
     <use style="fill:#0000ff;stroke:#0000ff;" x="298.776005407" xlink:href="#m8953f36c8c" y="124.644692085"/>
     <use style="fill:#0000ff;stroke:#0000ff;" x="310.68" xlink:href="#m8953f36c8c" y="106.0615384"/>
     <use style="fill:#0000ff;stroke:#0000ff;" x="310.68" xlink:href="#m8953f36c8c" y="112.5000003"/>
     <use style="fill:#0000ff;stroke:#0000ff;" x="305.099999608" xlink:href="#m8953f36c8c" y="129.239999393"/>
     <use style="fill:#0000ff;stroke:#0000ff;" x="310.68" xlink:href="#m8953f36c8c" y="117.442286194"/>
     <use style="fill:#0000ff;stroke:#0000ff;" x="305.09999949" xlink:href="#m8953f36c8c" y="140.399999423"/>
     <use style="fill:#0000ff;stroke:#0000ff;" x="289.036363261" xlink:href="#m8953f36c8c" y="79.9200002361"/>
     <use style="fill:#0000ff;stroke:#0000ff;" x="304.066663374" xlink:href="#m8953f36c8c" y="89.7275596933"/>
     <use style="fill:#0000ff;stroke:#0000ff;" x="292.208276054" xlink:href="#m8953f36c8c" y="102.137142882"/>
     <use style="fill:#0000ff;stroke:#0000ff;" x="310.68" xlink:href="#m8953f36c8c" y="94.2206895899"/>
     <use style="fill:#0000ff;stroke:#0000ff;" x="305.578285184" xlink:href="#m8953f36c8c" y="94.220691187"/>
     <use style="fill:#0000ff;stroke:#0000ff;" x="310.68" xlink:href="#m8953f36c8c" y="121.461818615"/>
     <use style="fill:#0000ff;stroke:#0000ff;" x="305.578285202" xlink:href="#m8953f36c8c" y="137.321379641"/>
     <use style="fill:#0000ff;stroke:#0000ff;" x="310.68" xlink:href="#m8953f36c8c" y="107.507368928"/>
     <use style="fill:#0000ff;stroke:#0000ff;" x="310.68" xlink:href="#m8953f36c8c" y="98.3858821482"/>
     <use style="fill:#0000ff;stroke:#0000ff;" x="310.68" xlink:href="#m8953f36c8c" y="108.514285996"/>
     <use style="fill:#0000ff;stroke:#0000ff;" x="305.719999607" xlink:href="#m8953f36c8c" y="83.0057144231"/>
     <use style="fill:#0000ff;stroke:#0000ff;" x="310.68" xlink:href="#m8953f36c8c" y="107.238857606"/>
     <use style="fill:#0000ff;stroke:#0000ff;" x="310.68" xlink:href="#m8953f36c8c" y="126.872727721"/>
     <use style="fill:#0000ff;stroke:#0000ff;" x="298.775999696" xlink:href="#m8953f36c8c" y="103.637646957"/>
     <use style="fill:#0000ff;stroke:#0000ff;" x="305.099999515" xlink:href="#m8953f36c8c" y="106.920000846"/>
     <use style="fill:#0000ff;stroke:#0000ff;" x="305.57828532" xlink:href="#m8953f36c8c" y="112.692414295"/>
     <use style="fill:#0000ff;stroke:#0000ff;" x="310.68" xlink:href="#m8953f36c8c" y="134.022856555"/>
     <use style="fill:#0000ff;stroke:#0000ff;" x="299.519999291" xlink:href="#m8953f36c8c" y="90.1799978552"/>
     <use style="fill:#0000ff;stroke:#0000ff;" x="310.68" xlink:href="#m8953f36c8c" y="140.400001373"/>
     <use style="fill:#0000ff;stroke:#0000ff;" x="303.537599601" xlink:href="#m8953f36c8c" y="115.218462044"/>
     <use style="fill:#0000ff;stroke:#0000ff;" x="310.68" xlink:href="#m8953f36c8c" y="112.5000003"/>
     <use style="fill:#0000ff;stroke:#0000ff;" x="304.522758626" xlink:href="#m8953f36c8c" y="102.137144567"/>
     <use style="fill:#0000ff;stroke:#0000ff;" x="305.428226153" xlink:href="#m8953f36c8c" y="122.543998692"/>
     <use style="fill:#0000ff;stroke:#0000ff;" x="304.06666651" xlink:href="#m8953f36c8c" y="123.509190167"/>
     <use style="fill:#0000ff;stroke:#0000ff;" x="310.68" xlink:href="#m8953f36c8c" y="115.600000159"/>
     <use style="fill:#0000ff;stroke:#0000ff;" x="310.68" xlink:href="#m8953f36c8c" y="102.137143293"/>
     <use style="fill:#0000ff;stroke:#0000ff;" x="304.91999953" xlink:href="#m8953f36c8c" y="105.229091056"/>
     <use style="fill:#0000ff;stroke:#0000ff;" x="310.68" xlink:href="#m8953f36c8c" y="106.920000644"/>
     <use style="fill:#0000ff;stroke:#0000ff;" x="302.916521194" xlink:href="#m8953f36c8c" y="99.0263415049"/>
     <use style="fill:#0000ff;stroke:#0000ff;" x="297.925713674" xlink:href="#m8953f36c8c" y="100.72000102"/>
     <use style="fill:#0000ff;stroke:#0000ff;" x="310.68" xlink:href="#m8953f36c8c" y="121.26857237"/>
     <use style="fill:#0000ff;stroke:#0000ff;" x="310.68" xlink:href="#m8953f36c8c" y="116.050909096"/>
     <use style="fill:#0000ff;stroke:#0000ff;" x="310.68" xlink:href="#m8953f36c8c" y="123.866667532"/>
     <use style="fill:#0000ff;stroke:#0000ff;" x="304.522757752" xlink:href="#m8953f36c8c" y="97.0354294331"/>
     <use style="fill:#0000ff;stroke:#0000ff;" x="300.176470183" xlink:href="#m8953f36c8c" y="116.591999906"/>
     <use style="fill:#0000ff;stroke:#0000ff;" x="310.68" xlink:href="#m8953f36c8c" y="116.050909096"/>
     <use style="fill:#0000ff;stroke:#0000ff;" x="304.302856437" xlink:href="#m8953f36c8c" y="95.7600003171"/>
     <use style="fill:#0000ff;stroke:#0000ff;" x="304.919999725" xlink:href="#m8953f36c8c" y="116.050898108"/>
     <use style="fill:#0000ff;stroke:#0000ff;" x="310.68" xlink:href="#m8953f36c8c" y="106.920000644"/>
     <use style="fill:#0000ff;stroke:#0000ff;" x="305.269090352" xlink:href="#m8953f36c8c" y="125.999999823"/>
     <use style="fill:#0000ff;stroke:#0000ff;" x="310.68" xlink:href="#m8953f36c8c" y="114.141177228"/>
     <use style="fill:#0000ff;stroke:#0000ff;" x="310.68" xlink:href="#m8953f36c8c" y="131.002106187"/>
     <use style="fill:#0000ff;stroke:#0000ff;" x="290.117678363" xlink:href="#m8953f36c8c" y="167.99303509"/>
     <use style="fill:#0000ff;stroke:#0000ff;" x="301.028105617" xlink:href="#m8953f36c8c" y="117.253363708"/>
     <use style="fill:#0000ff;stroke:#0000ff;" x="305.719999499" xlink:href="#m8953f36c8c" y="108.514286211"/>
     <use style="fill:#0000ff;stroke:#0000ff;" x="301.028108024" xlink:href="#m8953f36c8c" y="90.8000020137"/>
     <use style="fill:#0000ff;stroke:#0000ff;" x="310.68" xlink:href="#m8953f36c8c" y="144.281739509"/>
     <use style="fill:#0000ff;stroke:#0000ff;" x="299.159999689" xlink:href="#m8953f36c8c" y="88.9963644476"/>
     <use style="fill:#0000ff;stroke:#0000ff;" x="299.160025993" xlink:href="#m8953f36c8c" y="110.640060096"/>
     <use style="fill:#0000ff;stroke:#0000ff;" x="305.269090799" xlink:href="#m8953f36c8c" y="120.240000639"/>
     <use style="fill:#0000ff;stroke:#0000ff;" x="298.365516706" xlink:href="#m8953f36c8c" y="91.9337141405"/>
     <use style="fill:#0000ff;stroke:#0000ff;" x="306.216001344" xlink:href="#m8953f36c8c" y="95.7599897365"/>
     <use style="fill:#0000ff;stroke:#0000ff;" x="300.176470183" xlink:href="#m8953f36c8c" y="116.591999906"/>
     <use style="fill:#0000ff;stroke:#0000ff;" x="299.858181827" xlink:href="#m8953f36c8c" y="102.960000531"/>
     <use style="fill:#0000ff;stroke:#0000ff;" x="310.68" xlink:href="#m8953f36c8c" y="122.544000891"/>
     <use style="fill:#0000ff;stroke:#0000ff;" x="310.68" xlink:href="#m8953f36c8c" y="94.4072735321"/>
     <use style="fill:#0000ff;stroke:#0000ff;" x="304.302858212" xlink:href="#m8953f36c8c" y="105.680004886"/>
     <use style="fill:#0000ff;stroke:#0000ff;" x="305.099999502" xlink:href="#m8953f36c8c" y="95.7600007448"/>
     <use style="fill:#0000ff;stroke:#0000ff;" x="295.153039535" xlink:href="#m8953f36c8c" y="94.6712250777"/>
     <use style="fill:#0000ff;stroke:#0000ff;" x="305.099999794" xlink:href="#m8953f36c8c" y="134.820000411"/>
     <use style="fill:#0000ff;stroke:#0000ff;" x="285.171427894" xlink:href="#m8953f36c8c" y="100.720000455"/>
     <use style="fill:#0000ff;stroke:#0000ff;" x="310.68" xlink:href="#m8953f36c8c" y="126.000000963"/>
     <use style="fill:#0000ff;stroke:#0000ff;" x="301.28210339" xlink:href="#m8953f36c8c" y="112.929235402"/>
     <use style="fill:#0000ff;stroke:#0000ff;" x="306.101538432" xlink:href="#m8953f36c8c" y="86.8319909347"/>
     <use style="fill:#0000ff;stroke:#0000ff;" x="310.68" xlink:href="#m8953f36c8c" y="132.747427953"/>
     <use style="fill:#0000ff;stroke:#0000ff;" x="310.68" xlink:href="#m8953f36c8c" y="132.747427953"/>
     <use style="fill:#0000ff;stroke:#0000ff;" x="305.42823481" xlink:href="#m8953f36c8c" y="92.7840004613"/>
     <use style="fill:#0000ff;stroke:#0000ff;" x="305.428235064" xlink:href="#m8953f36c8c" y="74.9280001636"/>
     <use style="fill:#0000ff;stroke:#0000ff;" x="293.399999292" xlink:href="#m8953f36c8c" y="126.872728244"/>
    </g>
   </g>
   <g id="line2d_1">
    <path clip-path="url(#p7e5c3d7938)" d="M 221.4 51.12 
L 225.780762 51.227542 
L 230.15097 51.549908 
L 234.500097 52.086321 
L 238.817664 52.83549 
L 243.09327 53.79561 
L 247.316616 54.964367 
L 251.477526 56.338946 
L 255.565977 57.916035 
L 259.572119 59.691836 
L 263.486301 61.66207 
L 267.299093 63.82199 
L 271.00131 66.166393 
L 274.584034 68.689632 
L 278.038632 71.385627 
L 281.356783 74.247884 
L 284.530493 77.269507 
L 287.552116 80.443217 
L 290.414373 83.761368 
L 293.110368 87.215966 
L 295.633607 90.79869 
L 297.97801 94.500907 
L 300.13793 98.313699 
L 302.108164 102.227881 
L 303.883965 106.234023 
L 305.461054 110.322474 
L 306.835633 114.483384 
L 308.00439 118.70673 
L 308.96451 122.982336 
L 309.713679 127.299903 
L 310.250092 131.64903 
L 310.572458 136.019238 
L 310.68 140.4 
L 310.572458 144.780762 
L 310.250092 149.15097 
L 309.713679 153.500097 
L 308.96451 157.817664 
L 308.00439 162.09327 
L 306.835633 166.316616 
L 305.461054 170.477526 
L 303.883965 174.565977 
L 302.108164 178.572119 
L 300.13793 182.486301 
L 297.97801 186.299093 
L 295.633607 190.00131 
L 293.110368 193.584034 
L 290.414373 197.038632 
L 287.552116 200.356783 
L 284.530493 203.530493 
L 281.356783 206.552116 
L 278.038632 209.414373 
L 274.584034 212.110368 
L 271.00131 214.633607 
L 267.299093 216.97801 
L 263.486301 219.13793 
L 259.572119 221.108164 
L 255.565977 222.883965 
L 251.477526 224.461054 
L 247.316616 225.835633 
L 243.09327 227.00439 
L 238.817664 227.96451 
L 234.500097 228.713679 
L 230.15097 229.250092 
L 225.780762 229.572458 
L 221.4 229.68 
L 217.019238 229.572458 
L 212.64903 229.250092 
L 208.299903 228.713679 
L 203.982336 227.96451 
L 199.70673 227.00439 
L 195.483384 225.835633 
L 191.322474 224.461054 
L 187.234023 222.883965 
L 183.227881 221.108164 
L 179.313699 219.13793 
L 175.500907 216.97801 
L 171.79869 214.633607 
L 168.215966 212.110368 
L 164.761368 209.414373 
L 161.443217 206.552116 
L 158.269507 203.530493 
L 155.247884 200.356783 
L 152.385627 197.038632 
L 149.689632 193.584034 
L 147.166393 190.00131 
L 144.82199 186.299093 
L 142.66207 182.486301 
L 140.691836 178.572119 
L 138.916035 174.565977 
L 137.338946 170.477526 
L 135.964367 166.316616 
L 134.79561 162.09327 
L 133.83549 157.817664 
L 133.086321 153.500097 
L 132.549908 149.15097 
L 132.227542 144.780762 
L 132.12 140.4 
L 132.227542 136.019238 
L 132.549908 131.64903 
L 133.086321 127.299903 
L 133.83549 122.982336 
L 134.79561 118.70673 
L 135.964367 114.483384 
L 137.338946 110.322474 
L 138.916035 106.234023 
L 140.691836 102.227881 
L 142.66207 98.313699 
L 144.82199 94.500907 
L 147.166393 90.79869 
L 149.689632 87.215966 
L 152.385627 83.761368 
L 155.247884 80.443217 
L 158.269507 77.269507 
L 161.443217 74.247884 
L 164.761368 71.385627 
L 168.215966 68.689632 
L 171.79869 66.166393 
L 175.500907 63.82199 
L 179.313699 61.66207 
L 183.227881 59.691836 
L 187.234023 57.916035 
L 191.322474 56.338946 
L 195.483384 54.964367 
L 199.70673 53.79561 
L 203.982336 52.83549 
L 208.299903 52.086321 
L 212.64903 51.549908 
L 217.019238 51.227542 
L 221.4 51.12 
L 221.4 51.12 
" style="fill:none;stroke:#000000;stroke-linecap:square;"/>
   </g>
   <g id="line2d_2">
    <path clip-path="url(#p7e5c3d7938)" d="M 304.913793 108.834753 
" style="fill:none;"/>
    <defs>
     <path d="M 0 4 
C 1.060812 4 2.078319 3.578535 2.828427 2.828427 
C 3.578535 2.078319 4 1.060812 4 0 
C 4 -1.060812 3.578535 -2.078319 2.828427 -2.828427 
C 2.078319 -3.578535 1.060812 -4 0 -4 
C -1.060812 -4 -2.078319 -3.578535 -2.828427 -2.828427 
C -3.578535 -2.078319 -4 -1.060812 -4 0 
C -4 1.060812 -3.578535 2.078319 -2.828427 2.828427 
C -2.078319 3.578535 -1.060812 4 0 4 
z
" id="mb00804befa" style="stroke:#000000;stroke-width:0.5;"/>
    </defs>
    <g clip-path="url(#p7e5c3d7938)">
     <use style="fill:#ff0000;stroke:#000000;stroke-width:0.5;" x="304.913792873" xlink:href="#mb00804befa" y="108.834753288"/>
    </g>
   </g>
   <g id="line2d_3">
    <path clip-path="url(#p7e5c3d7938)" d="M 303.427476 74.843856 
L 304.472835 75.090527 
L 305.521551 75.576031 
L 306.566608 76.297119 
L 307.806007 77.466496 
L 309.018138 78.956826 
L 310.191327 80.753756 
L 311.495782 83.214439 
L 312.71478 86.036524 
L 313.832347 89.183029 
L 314.833838 92.612721 
L 315.819505 96.821326 
L 316.619612 101.268991 
L 317.220469 105.879615 
L 317.611796 110.574309 
L 317.786895 115.272745 
L 317.742773 119.894532 
L 317.480182 124.36059 
L 317.003617 128.594503 
L 316.321232 132.523828 
L 315.564403 135.659126 
L 314.6688 138.468568 
L 313.64616 140.915337 
L 312.678617 142.699468 
L 311.636879 144.176322 
L 310.53098 145.331677 
L 309.568052 146.04076 
L 308.574396 146.514053 
L 307.556658 146.748389 
L 306.521648 146.742201 
L 305.476289 146.49553 
L 304.427573 146.010026 
L 303.382516 145.288938 
L 302.143117 144.119561 
L 300.930986 142.629231 
L 299.757797 140.832301 
L 298.453342 138.371618 
L 297.234344 135.549533 
L 296.116777 132.403028 
L 295.115286 128.973336 
L 294.129619 124.764731 
L 293.329512 120.317066 
L 292.728655 115.706442 
L 292.337328 111.011748 
L 292.162229 106.313312 
L 292.206351 101.691525 
L 292.468942 97.225467 
L 292.945507 92.991554 
L 293.627892 89.062229 
L 294.384721 85.926931 
L 295.280323 83.117489 
L 296.302964 80.67072 
L 297.270507 78.886589 
L 298.312245 77.409734 
L 299.418144 76.254379 
L 300.381072 75.545296 
L 301.374728 75.072004 
L 302.392465 74.837668 
L 303.427476 74.843856 
L 303.427476 74.843856 
" style="fill:none;stroke:#000000;stroke-linecap:square;"/>
   </g>
   <g id="patch_3">
    <path d="M 109.8 252 
L 333 252 
" style="fill:none;stroke:#000000;stroke-linecap:square;stroke-linejoin:miter;"/>
   </g>
   <g id="patch_4">
    <path d="M 333 252 
L 333 28.8 
" style="fill:none;stroke:#000000;stroke-linecap:square;stroke-linejoin:miter;"/>
   </g>
   <g id="patch_5">
    <path d="M 109.8 28.8 
L 333 28.8 
" style="fill:none;stroke:#000000;stroke-linecap:square;stroke-linejoin:miter;"/>
   </g>
   <g id="patch_6">
    <path d="M 109.8 252 
L 109.8 28.8 
" style="fill:none;stroke:#000000;stroke-linecap:square;stroke-linejoin:miter;"/>
   </g>
   <g id="matplotlib.axis_1">
    <g id="xtick_1">
     <g id="line2d_4">
      <defs>
       <path d="M 0 0 
L 0 -4 
" id="mdf2fc6161f" style="stroke:#000000;stroke-width:0.5;"/>
      </defs>
      <g>
       <use style="stroke:#000000;stroke-width:0.5;" x="132.12" xlink:href="#mdf2fc6161f" y="252.0"/>
      </g>
     </g>
     <g id="line2d_5">
      <defs>
       <path d="M 0 0 
L 0 4 
" id="m372bf6d8e8" style="stroke:#000000;stroke-width:0.5;"/>
      </defs>
      <g>
       <use style="stroke:#000000;stroke-width:0.5;" x="132.12" xlink:href="#m372bf6d8e8" y="28.8"/>
      </g>
     </g>
     <g id="text_1">
      <!-- −1 -->
      <defs>
       <path d="M 7.40625 37.15625 
L 50.59375 37.15625 
L 50.59375 29.953125 
L 7.40625 29.953125 
z
" id="Lato-Medium-2212"/>
       <path d="M 12.34375 7.25 
L 27.59375 7.25 
L 27.59375 54.90625 
Q 27.59375 57.09375 27.75 59.453125 
L 15.40625 48.90625 
Q 14.703125 48.34375 14.015625 48.1875 
Q 13.34375 48.046875 12.75 48.171875 
Q 12.15625 48.296875 11.65625 48.59375 
Q 11.15625 48.90625 10.90625 49.25 
L 7.953125 53.40625 
L 29.40625 71.90625 
L 37.09375 71.90625 
L 37.09375 7.25 
L 51.046875 7.25 
L 51.046875 0 
L 12.34375 0 
z
" id="Lato-Medium-31"/>
      </defs>
      <g transform="translate(126.32 263.375)scale(0.1 -0.1)">
       <use xlink:href="#Lato-Medium-2212"/>
       <use x="58.0" xlink:href="#Lato-Medium-31"/>
      </g>
     </g>
    </g>
    <g id="xtick_2">
     <g id="line2d_6">
      <g>
       <use style="stroke:#000000;stroke-width:0.5;" x="221.4" xlink:href="#mdf2fc6161f" y="252.0"/>
      </g>
     </g>
     <g id="line2d_7">
      <g>
       <use style="stroke:#000000;stroke-width:0.5;" x="221.4" xlink:href="#m372bf6d8e8" y="28.8"/>
      </g>
     </g>
     <g id="text_2">
      <!-- 0 -->
      <defs>
       <path d="M 55.09375 35.90625 
Q 55.09375 26.5 53.0625 19.59375 
Q 51.046875 12.703125 47.515625 8.171875 
Q 44 3.65625 39.21875 1.453125 
Q 34.453125 -0.75 28.953125 -0.75 
Q 23.453125 -0.75 18.703125 1.453125 
Q 13.953125 3.65625 10.421875 8.171875 
Q 6.90625 12.703125 4.90625 19.59375 
Q 2.90625 26.5 2.90625 35.90625 
Q 2.90625 45.296875 4.90625 52.1875 
Q 6.90625 59.09375 10.421875 63.625 
Q 13.953125 68.15625 18.703125 70.34375 
Q 23.453125 72.546875 28.953125 72.546875 
Q 34.453125 72.546875 39.21875 70.34375 
Q 44 68.15625 47.515625 63.625 
Q 51.046875 59.09375 53.0625 52.1875 
Q 55.09375 45.296875 55.09375 35.90625 
M 45.25 35.90625 
Q 45.25 44 43.890625 49.5 
Q 42.546875 55 40.296875 58.34375 
Q 38.046875 61.703125 35.09375 63.125 
Q 32.15625 64.546875 28.953125 64.546875 
Q 25.75 64.546875 22.796875 63.125 
Q 19.84375 61.703125 17.59375 58.34375 
Q 15.34375 55 14.015625 49.5 
Q 12.703125 44 12.703125 35.90625 
Q 12.703125 27.75 14.015625 22.25 
Q 15.34375 16.75 17.59375 13.421875 
Q 19.84375 10.09375 22.796875 8.671875 
Q 25.75 7.25 28.953125 7.25 
Q 32.15625 7.25 35.09375 8.671875 
Q 38.046875 10.09375 40.296875 13.421875 
Q 42.546875 16.75 43.890625 22.25 
Q 45.25 27.75 45.25 35.90625 
" id="Lato-Medium-30"/>
      </defs>
      <g transform="translate(218.5 263.375)scale(0.1 -0.1)">
       <use xlink:href="#Lato-Medium-30"/>
      </g>
     </g>
    </g>
    <g id="xtick_3">
     <g id="line2d_8">
      <g>
       <use style="stroke:#000000;stroke-width:0.5;" x="310.68" xlink:href="#mdf2fc6161f" y="252.0"/>
      </g>
     </g>
     <g id="line2d_9">
      <g>
       <use style="stroke:#000000;stroke-width:0.5;" x="310.68" xlink:href="#m372bf6d8e8" y="28.8"/>
      </g>
     </g>
     <g id="text_3">
      <!-- 1 -->
      <g transform="translate(307.78 263.375)scale(0.1 -0.1)">
       <use xlink:href="#Lato-Medium-31"/>
      </g>
     </g>
    </g>
    <g id="text_4">
     <!-- $\langle X\rangle$ -->
     <defs>
      <path d="M 3.609375 0 
Q 2.59375 0 2.59375 1.3125 
Q 2.640625 1.5625 2.8125 2.1875 
Q 2.984375 2.828125 3.25 3.171875 
Q 3.515625 3.515625 4 3.515625 
Q 13.09375 3.515625 19.578125 10.296875 
Q 19.671875 10.40625 19.796875 10.453125 
Q 19.921875 10.5 19.921875 10.5 
L 41.796875 34.078125 
L 29.890625 62.796875 
Q 28.859375 64.109375 26.5625 64.453125 
Q 24.265625 64.796875 21.1875 64.796875 
Q 20.21875 64.796875 20.21875 66.109375 
Q 20.5625 67.390625 20.75 67.84375 
Q 20.953125 68.3125 21.921875 68.3125 
L 46.921875 68.3125 
Q 47.90625 68.3125 47.90625 67 
Q 47.859375 66.75 47.6875 66.109375 
Q 47.515625 65.484375 47.234375 65.140625 
Q 46.96875 64.796875 46.484375 64.796875 
Q 44.625 64.796875 42.640625 64.1875 
Q 40.671875 63.578125 39.890625 62.203125 
L 48.484375 41.5 
L 64.890625 59.078125 
Q 65.046875 59.421875 65.578125 60.28125 
Q 66.109375 61.140625 66.109375 61.921875 
Q 66.109375 63.375 64.84375 64.078125 
Q 63.578125 64.796875 61.8125 64.796875 
Q 60.796875 64.796875 60.796875 66.109375 
Q 61.140625 67.390625 61.328125 67.84375 
Q 61.53125 68.3125 62.5 68.3125 
L 84.1875 68.3125 
Q 84.71875 68.3125 84.953125 67.921875 
Q 85.203125 67.53125 85.203125 67 
Q 85.15625 66.75 85 66.15625 
Q 84.859375 65.578125 84.609375 65.1875 
Q 84.375 64.796875 83.890625 64.796875 
Q 79.25 64.796875 75.359375 63.109375 
Q 71.484375 61.421875 68.21875 58.015625 
Q 68.171875 57.953125 68.09375 57.921875 
Q 68.015625 57.90625 67.921875 57.8125 
L 49.8125 38.28125 
L 63.484375 5.515625 
Q 65.09375 3.515625 72.21875 3.515625 
Q 73.1875 3.515625 73.1875 2.203125 
Q 72.859375 0.875 72.625 0.4375 
Q 72.40625 0 71.484375 0 
L 46.484375 0 
Q 45.515625 0 45.515625 1.3125 
Q 45.5625 1.5625 45.703125 2.171875 
Q 45.84375 2.78125 46.109375 3.140625 
Q 46.390625 3.515625 46.78125 3.515625 
Q 48.734375 3.515625 50.734375 4.125 
Q 52.734375 4.734375 53.515625 6.109375 
L 43.109375 31 
L 22.90625 9.1875 
Q 22.75 8.84375 22.21875 8 
Q 21.6875 7.171875 21.6875 6.390625 
Q 21.6875 4.9375 23.046875 4.21875 
Q 24.421875 3.515625 25.984375 3.515625 
Q 27 3.515625 27 2.203125 
Q 26.65625 0.78125 26.453125 0.390625 
Q 26.265625 0 25.296875 0 
z
" id="Cmmi10-58"/>
      <path d="M 7.8125 -114.015625 
Q 7.8125 -113.484375 8.015625 -113.28125 
L 33.109375 -56 
L 8.015625 1.3125 
Q 7.8125 1.515625 7.8125 2 
Q 7.8125 2.734375 8.390625 3.359375 
Q 8.984375 4 9.8125 4 
Q 10.984375 4 11.71875 2.78125 
L 37.203125 -55.328125 
Q 37.3125 -55.515625 37.3125 -56 
Q 37.3125 -56.5 37.203125 -56.78125 
L 11.71875 -114.796875 
Q 10.9375 -116.015625 9.8125 -116.015625 
Q 8.984375 -116.015625 8.390625 -115.375 
Q 7.8125 -114.75 7.8125 -114.015625 
" id="Cmex10-ae"/>
      <path d="M 35.5 -114.796875 
L 10.015625 -56.78125 
Q 9.8125 -56.5 9.8125 -56 
Q 9.8125 -55.515625 10.015625 -55.328125 
L 35.5 2.78125 
Q 35.984375 4 37.3125 4 
Q 38.03125 4 38.671875 3.359375 
Q 39.3125 2.734375 39.3125 2 
Q 39.3125 1.515625 39.203125 1.3125 
L 14.015625 -56 
L 39.203125 -113.28125 
Q 39.3125 -113.484375 39.3125 -114.015625 
Q 39.3125 -114.75 38.671875 -115.375 
Q 38.03125 -116.015625 37.3125 -116.015625 
Q 36.03125 -116.015625 35.5 -114.796875 
" id="Cmex10-ad"/>
     </defs>
     <g transform="translate(207.16 285.7596875)scale(0.16 -0.16)">
      <use transform="translate(0.0 94.0)" xlink:href="#Cmex10-ad"/>
      <use transform="translate(47.216796875 0.6588541666666572)" xlink:href="#Cmmi10-58"/>
      <use transform="translate(130.029296875 94.0)" xlink:href="#Cmex10-ae"/>
     </g>
    </g>
   </g>
   <g id="matplotlib.axis_2">
    <g id="ytick_1">
     <g id="line2d_10">
      <defs>
       <path d="M 0 0 
L 4 0 
" id="mbdc53087f2" style="stroke:#000000;stroke-width:0.5;"/>
      </defs>
      <g>
       <use style="stroke:#000000;stroke-width:0.5;" x="109.8" xlink:href="#mbdc53087f2" y="229.68"/>
      </g>
     </g>
     <g id="line2d_11">
      <defs>
       <path d="M 0 0 
L -4 0 
" id="m687cebc208" style="stroke:#000000;stroke-width:0.5;"/>
      </defs>
      <g>
       <use style="stroke:#000000;stroke-width:0.5;" x="333.0" xlink:href="#m687cebc208" y="229.68"/>
      </g>
     </g>
     <g id="text_5">
      <!-- −1 -->
      <g transform="translate(94.2 232.51515625)scale(0.1 -0.1)">
       <use xlink:href="#Lato-Medium-2212"/>
       <use x="58.0" xlink:href="#Lato-Medium-31"/>
      </g>
     </g>
    </g>
    <g id="ytick_2">
     <g id="line2d_12">
      <g>
       <use style="stroke:#000000;stroke-width:0.5;" x="109.8" xlink:href="#mbdc53087f2" y="140.4"/>
      </g>
     </g>
     <g id="line2d_13">
      <g>
       <use style="stroke:#000000;stroke-width:0.5;" x="333.0" xlink:href="#m687cebc208" y="140.4"/>
      </g>
     </g>
     <g id="text_6">
      <!-- 0 -->
      <g transform="translate(100.0 143.23515625)scale(0.1 -0.1)">
       <use xlink:href="#Lato-Medium-30"/>
      </g>
     </g>
    </g>
    <g id="ytick_3">
     <g id="line2d_14">
      <g>
       <use style="stroke:#000000;stroke-width:0.5;" x="109.8" xlink:href="#mbdc53087f2" y="51.12"/>
      </g>
     </g>
     <g id="line2d_15">
      <g>
       <use style="stroke:#000000;stroke-width:0.5;" x="333.0" xlink:href="#m687cebc208" y="51.12"/>
      </g>
     </g>
     <g id="text_7">
      <!-- 1 -->
      <g transform="translate(100.0 53.95515625)scale(0.1 -0.1)">
       <use xlink:href="#Lato-Medium-31"/>
      </g>
     </g>
    </g>
    <g id="text_8">
     <!-- $\langle Z\rangle$ -->
     <defs>
      <path d="M 5.8125 0.78125 
Q 5.8125 2.25 6.5 3.078125 
L 61.53125 64.796875 
L 46.78125 64.796875 
Q 39.453125 64.796875 34.640625 63.0625 
Q 29.828125 61.328125 26.671875 57.296875 
Q 23.53125 53.265625 21.390625 46.296875 
Q 21.1875 45.40625 20.40625 45.40625 
L 19.484375 45.40625 
Q 18.5 45.40625 18.5 46.6875 
L 24.8125 67.390625 
Q 25 68.3125 25.78125 68.3125 
L 71.390625 68.3125 
Q 72.21875 68.3125 72.21875 67.484375 
Q 72.21875 66.015625 71.578125 65.375 
L 16.796875 3.8125 
L 31.984375 3.8125 
Q 40.828125 3.8125 45.875 5.984375 
Q 50.921875 8.15625 53.875 12.84375 
Q 56.84375 17.53125 59.625 26.21875 
Q 59.71875 26.5625 59.984375 26.828125 
Q 60.25 27.09375 60.59375 27.09375 
L 61.53125 27.09375 
Q 62.5 27.09375 62.5 25.78125 
L 54.59375 0.875 
Q 54.15625 0 53.609375 0 
L 6.6875 0 
Q 5.8125 0 5.8125 0.78125 
" id="Cmmi10-5a"/>
     </defs>
     <g transform="translate(85.52 153.44)rotate(-90.0)scale(0.16 -0.16)">
      <use transform="translate(0.0 94.0)" xlink:href="#Cmex10-ad"/>
      <use transform="translate(47.216796875 0.6588541666666572)" xlink:href="#Cmmi10-5a"/>
      <use transform="translate(115.4296875 94.0)" xlink:href="#Cmex10-ae"/>
     </g>
    </g>
   </g>
   <g id="text_9">
    <!-- 128 estimates with 64 samples per estimate -->
    <defs>
     <path d="M 37.75 40.953125 
Q 37.203125 40.09375 36.625 39.71875 
Q 36.046875 39.34375 35.046875 39.34375 
Q 34.046875 39.34375 33 39.84375 
Q 31.953125 40.34375 30.640625 40.921875 
Q 29.34375 41.5 27.671875 42 
Q 26 42.5 23.796875 42.5 
Q 20.453125 42.5 18.59375 41.125 
Q 16.75 39.75 16.75 37.5 
Q 16.75 35.953125 17.796875 34.890625 
Q 18.84375 33.84375 20.5625 33.0625 
Q 22.296875 32.296875 24.5 31.625 
Q 26.703125 30.953125 29.015625 30.140625 
Q 31.34375 29.34375 33.546875 28.296875 
Q 35.75 27.25 37.46875 25.671875 
Q 39.203125 24.09375 40.25 21.875 
Q 41.296875 19.65625 41.296875 16.5 
Q 41.296875 12.75 39.921875 9.578125 
Q 38.546875 6.40625 35.890625 4.09375 
Q 33.25 1.796875 29.296875 0.5 
Q 25.34375 -0.796875 20.203125 -0.796875 
Q 17.546875 -0.796875 14.9375 -0.3125 
Q 12.34375 0.15625 10 1.03125 
Q 7.65625 1.90625 5.59375 3.046875 
Q 3.546875 4.203125 2.046875 5.546875 
L 5.25 10.703125 
Q 5.796875 11.59375 6.625 12.09375 
Q 7.453125 12.59375 8.75 12.59375 
Q 10 12.59375 11.046875 11.96875 
Q 12.09375 11.34375 13.390625 10.625 
Q 14.703125 9.90625 16.46875 9.28125 
Q 18.25 8.65625 20.90625 8.65625 
Q 22.90625 8.65625 24.34375 9.09375 
Q 25.796875 9.546875 26.6875 10.3125 
Q 27.59375 11.09375 28.015625 12.0625 
Q 28.453125 13.046875 28.453125 14.09375 
Q 28.453125 15.796875 27.375 16.875 
Q 26.296875 17.953125 24.5625 18.75 
Q 22.84375 19.546875 20.59375 20.1875 
Q 18.34375 20.84375 16.015625 21.640625 
Q 13.703125 22.453125 11.46875 23.546875 
Q 9.25 24.65625 7.515625 26.328125 
Q 5.796875 28 4.71875 30.453125 
Q 3.65625 32.90625 3.65625 36.40625 
Q 3.65625 39.59375 4.90625 42.46875 
Q 6.15625 45.34375 8.65625 47.546875 
Q 11.15625 49.75 14.875 51.046875 
Q 18.59375 52.34375 23.5 52.34375 
Q 29 52.34375 33.5 50.546875 
Q 38 48.75 40.90625 45.84375 
z
" id="Lato-Heavy-73"/>
     <path d="M 5.703125 -16.65625 
L 5.703125 51.546875 
L 14.203125 51.546875 
Q 16.796875 51.546875 17.65625 49.15625 
L 18.703125 44.796875 
Q 20.25 46.5 22 47.921875 
Q 23.75 49.34375 25.75 50.375 
Q 27.75 51.40625 30.046875 51.96875 
Q 32.34375 52.546875 35.046875 52.546875 
Q 39.203125 52.546875 42.671875 50.765625 
Q 46.15625 49 48.65625 45.625 
Q 51.15625 42.25 52.546875 37.34375 
Q 53.953125 32.453125 53.953125 26.15625 
Q 53.953125 20.34375 52.375 15.421875 
Q 50.796875 10.5 47.890625 6.890625 
Q 45 3.296875 40.921875 1.265625 
Q 36.84375 -0.75 31.84375 -0.75 
Q 27.65625 -0.75 24.71875 0.5 
Q 21.796875 1.75 19.5 3.90625 
L 19.5 -16.65625 
z
M 30.296875 41.796875 
Q 26.65625 41.796875 24.171875 40.34375 
Q 21.703125 38.90625 19.5 36.203125 
L 19.5 13.59375 
Q 21.453125 11.34375 23.71875 10.4375 
Q 26 9.546875 28.59375 9.546875 
Q 31.09375 9.546875 33.140625 10.5 
Q 35.203125 11.453125 36.671875 13.46875 
Q 38.15625 15.5 38.953125 18.640625 
Q 39.75 21.796875 39.75 26.15625 
Q 39.75 30.453125 39.078125 33.453125 
Q 38.40625 36.453125 37.171875 38.296875 
Q 35.953125 40.15625 34.203125 40.96875 
Q 32.453125 41.796875 30.296875 41.796875 
" id="Lato-Heavy-70"/>
     <path d="M 29.75 73.34375 
Q 34.90625 73.34375 39.125 71.8125 
Q 43.34375 70.296875 46.34375 67.5625 
Q 49.34375 64.84375 51 61 
Q 52.65625 57.15625 52.65625 52.5 
Q 52.65625 48.5 51.5 45.09375 
Q 50.34375 41.703125 48.375 38.625 
Q 46.40625 35.546875 43.796875 32.640625 
Q 41.203125 29.75 38.296875 26.796875 
L 22.90625 11.046875 
Q 25.453125 11.75 27.953125 12.203125 
Q 30.453125 12.65625 32.65625 12.65625 
L 48.953125 12.65625 
Q 51.203125 12.65625 52.46875 11.40625 
Q 53.75 10.15625 53.75 8.09375 
L 53.75 0 
L 3.453125 0 
L 3.453125 4.5 
Q 3.453125 5.796875 4 7.3125 
Q 4.546875 8.84375 5.84375 10.09375 
L 27.34375 31.65625 
Q 30.09375 34.40625 32.1875 36.921875 
Q 34.296875 39.453125 35.6875 41.875 
Q 37.09375 44.296875 37.796875 46.796875 
Q 38.5 49.296875 38.5 52.046875 
Q 38.5 56.90625 36 59.421875 
Q 33.5 61.953125 28.953125 61.953125 
Q 26.953125 61.953125 25.265625 61.375 
Q 23.59375 60.796875 22.265625 59.796875 
Q 20.953125 58.796875 20 57.4375 
Q 19.046875 56.09375 18.59375 54.5 
Q 17.703125 52 16.171875 51.171875 
Q 14.65625 50.34375 11.84375 50.796875 
L 4.546875 52.09375 
Q 5.34375 57.40625 7.546875 61.40625 
Q 9.75 65.40625 13.046875 68.046875 
Q 16.34375 70.703125 20.59375 72.015625 
Q 24.84375 73.34375 29.75 73.34375 
" id="Lato-Heavy-32"/>
     <path id="Lato-Heavy-20"/>
     <path d="M 39.796875 0 
Q 37.84375 0 36.8125 0.546875 
Q 35.796875 1.09375 35.15625 2.84375 
L 34.046875 6.09375 
Q 32.09375 4.40625 30.265625 3.125 
Q 28.453125 1.84375 26.46875 0.96875 
Q 24.5 0.09375 22.265625 -0.34375 
Q 20.046875 -0.796875 17.34375 -0.796875 
Q 13.953125 -0.796875 11.140625 0.09375 
Q 8.34375 1 6.3125 2.765625 
Q 4.296875 4.546875 3.1875 7.1875 
Q 2.09375 9.84375 2.09375 13.296875 
Q 2.09375 16.15625 3.546875 18.96875 
Q 5 21.796875 8.515625 24.125 
Q 12.046875 26.453125 17.921875 28 
Q 23.796875 29.546875 32.65625 29.75 
L 32.65625 32.40625 
Q 32.65625 37.25 30.59375 39.515625 
Q 28.546875 41.796875 24.703125 41.796875 
Q 21.84375 41.796875 19.9375 41.125 
Q 18.046875 40.453125 16.625 39.671875 
Q 15.203125 38.90625 13.953125 38.21875 
Q 12.703125 37.546875 11.046875 37.546875 
Q 9.59375 37.546875 8.625 38.265625 
Q 7.65625 39 7 40 
L 4.546875 44.40625 
Q 9.09375 48.5 14.59375 50.515625 
Q 20.09375 52.546875 26.5 52.546875 
Q 31.09375 52.546875 34.71875 51.046875 
Q 38.34375 49.546875 40.875 46.875 
Q 43.40625 44.203125 44.75 40.5 
Q 46.09375 36.796875 46.09375 32.40625 
L 46.09375 0 
z
M 21.65625 8.5 
Q 25.046875 8.5 27.59375 9.71875 
Q 30.15625 10.953125 32.65625 13.5 
L 32.65625 21.5 
Q 27.59375 21.296875 24.25 20.640625 
Q 20.90625 20 18.921875 19.015625 
Q 16.953125 18.046875 16.125 16.765625 
Q 15.296875 15.5 15.296875 14 
Q 15.296875 11 16.96875 9.75 
Q 18.65625 8.5 21.65625 8.5 
" id="Lato-Heavy-61"/>
     <path d="M 29 -0.796875 
Q 23.296875 -0.796875 18.59375 0.71875 
Q 13.90625 2.25 10.546875 5.015625 
Q 7.203125 7.796875 5.34375 11.75 
Q 3.5 15.703125 3.5 20.546875 
Q 3.5 26.75 6.5 31.171875 
Q 9.5 35.59375 16.09375 37.796875 
Q 10.953125 40.046875 8.421875 44.09375 
Q 5.90625 48.15625 5.90625 53.75 
Q 5.90625 57.953125 7.59375 61.515625 
Q 9.296875 65.09375 12.375 67.71875 
Q 15.453125 70.34375 19.703125 71.84375 
Q 23.953125 73.34375 29 73.34375 
Q 34.046875 73.34375 38.296875 71.84375 
Q 42.546875 70.34375 45.625 67.71875 
Q 48.703125 65.09375 50.390625 61.515625 
Q 52.09375 57.953125 52.09375 53.75 
Q 52.09375 48.15625 49.546875 44.09375 
Q 47 40.046875 41.90625 37.796875 
Q 48.453125 35.59375 51.46875 31.171875 
Q 54.5 26.75 54.5 20.546875 
Q 54.5 15.703125 52.640625 11.75 
Q 50.796875 7.796875 47.4375 5.015625 
Q 44.09375 2.25 39.390625 0.71875 
Q 34.703125 -0.796875 29 -0.796875 
M 29 9.75 
Q 31.84375 9.75 33.96875 10.59375 
Q 36.09375 11.453125 37.5 12.921875 
Q 38.90625 14.40625 39.59375 16.421875 
Q 40.296875 18.453125 40.296875 20.796875 
Q 40.296875 26.203125 37.515625 29.171875 
Q 34.75 32.15625 29 32.15625 
Q 23.25 32.15625 20.46875 29.171875 
Q 17.703125 26.203125 17.703125 20.796875 
Q 17.703125 18.453125 18.390625 16.421875 
Q 19.09375 14.40625 20.5 12.921875 
Q 21.90625 11.453125 24.03125 10.59375 
Q 26.15625 9.75 29 9.75 
M 29 42.796875 
Q 31.84375 42.796875 33.6875 43.6875 
Q 35.546875 44.59375 36.640625 46.09375 
Q 37.75 47.59375 38.203125 49.515625 
Q 38.65625 51.453125 38.65625 53.5 
Q 38.65625 55.40625 38.09375 57.15625 
Q 37.546875 58.90625 36.375 60.21875 
Q 35.203125 61.546875 33.375 62.34375 
Q 31.546875 63.15625 29 63.15625 
Q 26.453125 63.15625 24.625 62.34375 
Q 22.796875 61.546875 21.625 60.21875 
Q 20.453125 58.90625 19.890625 57.15625 
Q 19.34375 55.40625 19.34375 53.5 
Q 19.34375 51.453125 19.796875 49.515625 
Q 20.25 47.59375 21.34375 46.09375 
Q 22.453125 44.59375 24.296875 43.6875 
Q 26.15625 42.796875 29 42.796875 
" id="Lato-Heavy-38"/>
     <path d="M 19.59375 74.546875 
L 19.59375 0 
L 5.796875 0 
L 5.796875 74.546875 
z
" id="Lato-Heavy-6c"/>
     <path d="M 5.703125 0 
L 5.703125 74.546875 
L 19.5 74.546875 
L 19.5 46.453125 
Q 22.40625 49.09375 25.84375 50.71875 
Q 29.296875 52.34375 34.046875 52.34375 
Q 38.25 52.34375 41.5 50.890625 
Q 44.75 49.453125 46.96875 46.84375 
Q 49.203125 44.25 50.328125 40.640625 
Q 51.453125 37.046875 51.453125 32.75 
L 51.453125 0 
L 37.703125 0 
L 37.703125 32.75 
Q 37.703125 37.046875 35.703125 39.421875 
Q 33.703125 41.796875 29.796875 41.796875 
Q 26.84375 41.796875 24.3125 40.515625 
Q 21.796875 39.25 19.5 37.046875 
L 19.5 0 
z
" id="Lato-Heavy-68"/>
     <path d="M 0.59375 51.546875 
L 11.59375 51.546875 
Q 13.09375 51.546875 14.125 50.84375 
Q 15.15625 50.15625 15.5 49.046875 
L 21.84375 23.546875 
Q 22.40625 21.09375 22.875 18.796875 
Q 23.34375 16.5 23.703125 14.25 
Q 24.296875 16.5 25 18.796875 
Q 25.703125 21.09375 26.453125 23.546875 
L 34 49.15625 
Q 34.34375 50.203125 35.34375 50.890625 
Q 36.34375 51.59375 37.703125 51.59375 
L 43.796875 51.59375 
Q 45.25 51.59375 46.265625 50.890625 
Q 47.296875 50.203125 47.65625 49.15625 
L 54.953125 23.546875 
Q 55.65625 21.09375 56.296875 18.796875 
Q 56.953125 16.5 57.5 14.203125 
Q 57.90625 16.453125 58.375 18.765625 
Q 58.84375 21.09375 59.5 23.546875 
L 66.15625 49.046875 
Q 66.5 50.15625 67.5 50.84375 
Q 68.5 51.546875 69.84375 51.546875 
L 80.34375 51.546875 
L 64.15625 0 
L 53 0 
Q 52.15625 0 51.46875 0.546875 
Q 50.796875 1.09375 50.453125 2.40625 
L 42.046875 30.296875 
Q 41.546875 31.90625 41.140625 33.453125 
Q 40.75 35 40.453125 36.59375 
Q 40.15625 35 39.78125 33.390625 
Q 39.40625 31.796875 38.90625 30.203125 
L 30.40625 2.40625 
Q 29.703125 0 27.40625 0 
L 16.796875 0 
z
" id="Lato-Heavy-77"/>
     <path d="M 47.203125 27.703125 
L 55.59375 27.703125 
L 55.59375 19.90625 
Q 55.59375 18.796875 54.875 18.015625 
Q 54.15625 17.25 52.84375 17.25 
L 47.203125 17.25 
L 47.203125 0 
L 35.203125 0 
L 35.203125 17.25 
L 5.25 17.25 
Q 3.953125 17.25 2.875 18.046875 
Q 1.796875 18.84375 1.546875 20.15625 
L 0.09375 27.046875 
L 34.09375 72.59375 
L 47.203125 72.59375 
z
M 35.203125 49.296875 
Q 35.203125 51 35.296875 52.890625 
Q 35.40625 54.796875 35.65625 56.90625 
L 14.703125 27.703125 
L 35.203125 27.703125 
z
" id="Lato-Heavy-34"/>
     <path d="M 19.90625 51.546875 
L 19.90625 0 
L 6.09375 0 
L 6.09375 51.546875 
z
M 21.546875 66.203125 
Q 21.546875 64.453125 20.84375 62.953125 
Q 20.15625 61.453125 18.96875 60.296875 
Q 17.796875 59.15625 16.21875 58.5 
Q 14.65625 57.84375 12.84375 57.84375 
Q 11.15625 57.84375 9.625 58.5 
Q 8.09375 59.15625 6.9375 60.296875 
Q 5.796875 61.453125 5.125 62.953125 
Q 4.453125 64.453125 4.453125 66.203125 
Q 4.453125 67.953125 5.125 69.46875 
Q 5.796875 71 6.9375 72.140625 
Q 8.09375 73.296875 9.625 73.9375 
Q 11.15625 74.59375 12.84375 74.59375 
Q 14.65625 74.59375 16.21875 73.9375 
Q 17.796875 73.296875 18.96875 72.140625 
Q 20.15625 71 20.84375 69.46875 
Q 21.546875 67.953125 21.546875 66.203125 
" id="Lato-Heavy-69"/>
     <path d="M 28.046875 52.34375 
Q 33 52.34375 37.171875 50.765625 
Q 41.34375 49.203125 44.375 46.203125 
Q 47.40625 43.203125 49.078125 38.828125 
Q 50.75 34.453125 50.75 28.84375 
Q 50.75 27.296875 50.59375 26.296875 
Q 50.453125 25.296875 50.09375 24.6875 
Q 49.75 24.09375 49.140625 23.875 
Q 48.546875 23.65625 47.59375 23.65625 
L 16.65625 23.65625 
Q 17.296875 16.40625 20.765625 13.046875 
Q 24.25 9.703125 29.90625 9.703125 
Q 32.75 9.703125 34.828125 10.375 
Q 36.90625 11.046875 38.46875 11.875 
Q 40.046875 12.703125 41.3125 13.375 
Q 42.59375 14.046875 43.84375 14.046875 
Q 45.453125 14.046875 46.34375 12.84375 
L 50.34375 7.84375 
Q 48.15625 5.296875 45.5 3.625 
Q 42.84375 1.953125 40 0.96875 
Q 37.15625 0 34.25 -0.375 
Q 31.34375 -0.75 28.65625 -0.75 
Q 23.25 -0.75 18.578125 1.015625 
Q 13.90625 2.796875 10.421875 6.265625 
Q 6.953125 9.75 4.953125 14.890625 
Q 2.953125 20.046875 2.953125 26.84375 
Q 2.953125 32.09375 4.671875 36.75 
Q 6.40625 41.40625 9.65625 44.84375 
Q 12.90625 48.296875 17.546875 50.3125 
Q 22.203125 52.34375 28.046875 52.34375 
M 28.296875 42.65625 
Q 23.34375 42.65625 20.546875 39.828125 
Q 17.75 37 16.90625 31.84375 
L 38.40625 31.84375 
Q 38.40625 34 37.828125 35.953125 
Q 37.25 37.90625 36 39.40625 
Q 34.75 40.90625 32.84375 41.78125 
Q 30.953125 42.65625 28.296875 42.65625 
" id="Lato-Heavy-65"/>
     <path d="M 11.40625 10.15625 
L 25.796875 10.15625 
L 25.796875 49.84375 
Q 25.796875 52.40625 25.953125 55.203125 
L 16.5 47.34375 
Q 15.5 46.59375 14.546875 46.390625 
Q 13.59375 46.203125 12.75 46.375 
Q 11.90625 46.546875 11.25 46.96875 
Q 10.59375 47.40625 10.25 47.84375 
L 5.90625 53.703125 
L 28.203125 72.59375 
L 39.546875 72.59375 
L 39.546875 10.15625 
L 52.09375 10.15625 
L 52.09375 0 
L 11.40625 0 
z
" id="Lato-Heavy-31"/>
     <path d="M 23.5 -0.796875 
Q 20 -0.796875 17.296875 0.21875 
Q 14.59375 1.25 12.75 3.140625 
Q 10.90625 5.046875 9.953125 7.75 
Q 9 10.453125 9 13.84375 
L 9 41.65625 
L 4.15625 41.65625 
Q 3.046875 41.65625 2.265625 42.34375 
Q 1.5 43.046875 1.5 44.453125 
L 1.5 49.84375 
L 9.75 51.34375 
L 12.546875 64.703125 
Q 13.09375 66.953125 15.59375 66.953125 
L 22.796875 66.953125 
L 22.796875 51.25 
L 36.09375 51.25 
L 36.09375 41.65625 
L 22.796875 41.65625 
L 22.796875 14.75 
Q 22.796875 12.59375 23.8125 11.34375 
Q 24.84375 10.09375 26.75 10.09375 
Q 27.75 10.09375 28.453125 10.3125 
Q 29.15625 10.546875 29.65625 10.8125 
Q 30.15625 11.09375 30.578125 11.3125 
Q 31 11.546875 31.453125 11.546875 
Q 32.046875 11.546875 32.4375 11.265625 
Q 32.84375 11 33.25 10.34375 
L 37.40625 3.75 
Q 34.546875 1.5 30.9375 0.34375 
Q 27.34375 -0.796875 23.5 -0.796875 
" id="Lato-Heavy-74"/>
     <path d="M 5.703125 0 
L 5.703125 51.546875 
L 13.84375 51.546875 
Q 15.953125 51.546875 16.75 50.796875 
Q 17.546875 50.046875 17.90625 48.203125 
L 18.59375 43.046875 
Q 21.046875 47.453125 24.265625 50 
Q 27.5 52.546875 31.796875 52.546875 
Q 35.296875 52.546875 37.5 50.90625 
L 36.59375 40.703125 
Q 36.34375 39.703125 35.8125 39.328125 
Q 35.296875 38.953125 34.40625 38.953125 
Q 33.59375 38.953125 32.09375 39.171875 
Q 30.59375 39.40625 29.296875 39.40625 
Q 25.5 39.40625 23.265625 37.328125 
Q 21.046875 35.25 19.5 31.546875 
L 19.5 0 
z
" id="Lato-Heavy-72"/>
     <path d="M 27.09375 46.5 
Q 25.90625 45.15625 24.84375 43.796875 
Q 26.75 44.65625 28.96875 45.125 
Q 31.203125 45.59375 33.75 45.59375 
Q 37.796875 45.59375 41.640625 44.25 
Q 45.5 42.90625 48.5 40.203125 
Q 51.5 37.5 53.328125 33.421875 
Q 55.15625 29.34375 55.15625 23.84375 
Q 55.15625 18.796875 53.28125 14.296875 
Q 51.40625 9.796875 47.96875 6.4375 
Q 44.546875 3.09375 39.765625 1.140625 
Q 35 -0.796875 29.15625 -0.796875 
Q 23.203125 -0.796875 18.5 1.078125 
Q 13.796875 2.953125 10.5 6.34375 
Q 7.203125 9.75 5.453125 14.46875 
Q 3.703125 19.203125 3.703125 24.90625 
Q 3.703125 30.15625 5.765625 35.546875 
Q 7.84375 40.953125 12.09375 46.65625 
L 28.953125 69.34375 
Q 29.953125 70.65625 31.890625 71.59375 
Q 33.84375 72.546875 36.34375 72.546875 
L 48.59375 72.546875 
z
M 16.953125 22.90625 
Q 16.953125 20.046875 17.703125 17.71875 
Q 18.453125 15.40625 19.953125 13.75 
Q 21.453125 12.09375 23.671875 11.1875 
Q 25.90625 10.296875 28.90625 10.296875 
Q 31.59375 10.296875 33.890625 11.25 
Q 36.203125 12.203125 37.84375 13.890625 
Q 39.5 15.59375 40.453125 17.875 
Q 41.40625 20.15625 41.40625 22.84375 
Q 41.40625 25.796875 40.5 28.140625 
Q 39.59375 30.5 37.9375 32.125 
Q 36.296875 33.75 34 34.59375 
Q 31.703125 35.453125 28.90625 35.453125 
Q 26.25 35.453125 24.046875 34.515625 
Q 21.84375 33.59375 20.265625 31.921875 
Q 18.703125 30.25 17.828125 27.953125 
Q 16.953125 25.65625 16.953125 22.90625 
" id="Lato-Heavy-36"/>
     <path d="M 5.703125 0 
L 5.703125 51.546875 
L 14.203125 51.546875 
Q 16.796875 51.546875 17.65625 49.15625 
L 18.453125 45.796875 
Q 19.796875 47.203125 21.21875 48.390625 
Q 22.65625 49.59375 24.296875 50.46875 
Q 25.953125 51.34375 27.875 51.84375 
Q 29.796875 52.34375 32.046875 52.34375 
Q 36.796875 52.34375 39.890625 49.8125 
Q 43 47.296875 44.59375 43.09375 
Q 45.84375 45.546875 47.671875 47.3125 
Q 49.5 49.09375 51.671875 50.1875 
Q 53.84375 51.296875 56.265625 51.8125 
Q 58.703125 52.34375 61.15625 52.34375 
Q 65.5 52.34375 68.84375 51.046875 
Q 72.203125 49.75 74.46875 47.21875 
Q 76.75 44.703125 77.953125 41.046875 
Q 79.15625 37.40625 79.15625 32.75 
L 79.15625 0 
L 65.34375 0 
L 65.34375 32.75 
Q 65.34375 41.796875 57.59375 41.796875 
Q 55.84375 41.796875 54.375 41.21875 
Q 52.90625 40.65625 51.78125 39.5 
Q 50.65625 38.34375 50.03125 36.640625 
Q 49.40625 34.953125 49.40625 32.75 
L 49.40625 0 
L 35.59375 0 
L 35.59375 32.75 
Q 35.59375 37.65625 33.671875 39.71875 
Q 31.75 41.796875 28 41.796875 
Q 25.59375 41.796875 23.46875 40.671875 
Q 21.34375 39.546875 19.5 37.546875 
L 19.5 0 
z
" id="Lato-Heavy-6d"/>
    </defs>
    <g transform="translate(103.584375 23.8)scale(0.12 -0.12)">
     <use xlink:href="#Lato-Heavy-31"/>
     <use x="58.0" xlink:href="#Lato-Heavy-32"/>
     <use x="116.0" xlink:href="#Lato-Heavy-38"/>
     <use x="174.0" xlink:href="#Lato-Heavy-20"/>
     <use x="197.75" xlink:href="#Lato-Heavy-65"/>
     <use x="251.35000610351562" xlink:href="#Lato-Heavy-73"/>
     <use x="295.6000061035156" xlink:href="#Lato-Heavy-74"/>
     <use x="333.3500061035156" xlink:href="#Lato-Heavy-69"/>
     <use x="359.3500061035156" xlink:href="#Lato-Heavy-6d"/>
     <use x="443.70001220703125" xlink:href="#Lato-Heavy-61"/>
     <use x="494.9000244140625" xlink:href="#Lato-Heavy-74"/>
     <use x="532.6500244140625" xlink:href="#Lato-Heavy-65"/>
     <use x="586.2500305175781" xlink:href="#Lato-Heavy-73"/>
     <use x="630.5000305175781" xlink:href="#Lato-Heavy-20"/>
     <use x="654.2187805175781" xlink:href="#Lato-Heavy-77"/>
     <use x="735.1687927246094" xlink:href="#Lato-Heavy-69"/>
     <use x="761.1687927246094" xlink:href="#Lato-Heavy-74"/>
     <use x="798.9187927246094" xlink:href="#Lato-Heavy-68"/>
     <use x="855.6188049316406" xlink:href="#Lato-Heavy-20"/>
     <use x="879.3688049316406" xlink:href="#Lato-Heavy-36"/>
     <use x="937.3688049316406" xlink:href="#Lato-Heavy-34"/>
     <use x="995.3688049316406" xlink:href="#Lato-Heavy-20"/>
     <use x="1019.1188049316406" xlink:href="#Lato-Heavy-73"/>
     <use x="1063.3688049316406" xlink:href="#Lato-Heavy-61"/>
     <use x="1114.5688171386719" xlink:href="#Lato-Heavy-6d"/>
     <use x="1198.9188232421875" xlink:href="#Lato-Heavy-70"/>
     <use x="1256.0188293457031" xlink:href="#Lato-Heavy-6c"/>
     <use x="1281.4188232421875" xlink:href="#Lato-Heavy-65"/>
     <use x="1335.0188293457031" xlink:href="#Lato-Heavy-73"/>
     <use x="1379.2688293457031" xlink:href="#Lato-Heavy-20"/>
     <use x="1403.0188293457031" xlink:href="#Lato-Heavy-70"/>
     <use x="1460.1188354492188" xlink:href="#Lato-Heavy-65"/>
     <use x="1513.7188415527344" xlink:href="#Lato-Heavy-72"/>
     <use x="1551.3875885009766" xlink:href="#Lato-Heavy-20"/>
     <use x="1575.1375885009766" xlink:href="#Lato-Heavy-65"/>
     <use x="1628.7375946044922" xlink:href="#Lato-Heavy-73"/>
     <use x="1672.9875946044922" xlink:href="#Lato-Heavy-74"/>
     <use x="1710.7375946044922" xlink:href="#Lato-Heavy-69"/>
     <use x="1736.7375946044922" xlink:href="#Lato-Heavy-6d"/>
     <use x="1821.0876007080078" xlink:href="#Lato-Heavy-61"/>
     <use x="1872.287612915039" xlink:href="#Lato-Heavy-74"/>
     <use x="1910.037612915039" xlink:href="#Lato-Heavy-65"/>
    </g>
   </g>
   <g id="legend_1">
    <g id="patch_7">
     <path d="M 115.8 246 
L 210.135 246 
L 210.135 208.60875 
L 115.8 208.60875 
z
" style="fill:#ffffff;opacity:0.75;stroke:#ffffff;stroke-linejoin:miter;"/>
    </g>
    <g id="line2d_16">
     <path d="M 120.6 218.05875 
L 144.6 218.05875 
" style="fill:none;"/>
    </g>
    <g id="line2d_17">
     <g>
      <use style="fill:#ff0000;stroke:#000000;stroke-width:0.5;" x="132.6" xlink:href="#mb00804befa" y="218.05875"/>
     </g>
    </g>
    <g id="text_10">
     <!-- Truth -->
     <defs>
      <path d="M 6.90625 0 
L 6.90625 73.75 
L 16.40625 73.75 
L 16.40625 44.25 
Q 19.59375 47.546875 23.5 49.546875 
Q 27.40625 51.546875 32.5 51.546875 
Q 36.65625 51.546875 39.828125 50.140625 
Q 43 48.75 45.140625 46.21875 
Q 47.296875 43.703125 48.390625 40.171875 
Q 49.5 36.65625 49.5 32.34375 
L 49.5 0 
L 40 0 
L 40 32.34375 
Q 40 37.84375 37.453125 40.921875 
Q 34.90625 44 29.703125 44 
Q 25.84375 44 22.546875 42.203125 
Q 19.25 40.40625 16.40625 37.25 
L 16.40625 0 
z
" id="Lato-Medium-68"/>
      <path d="M 57.75 71.75 
L 57.75 63.09375 
L 34.796875 63.09375 
L 34.796875 0 
L 24.5 0 
L 24.5 63.09375 
L 1.5 63.09375 
L 1.5 71.75 
z
" id="Lato-Medium-54"/>
      <path d="M 15.90625 50.75 
L 15.90625 18.40625 
Q 15.90625 12.90625 18.453125 9.828125 
Q 21 6.75 26.203125 6.75 
Q 30 6.75 33.328125 8.515625 
Q 36.65625 10.296875 39.5 13.453125 
L 39.5 50.75 
L 49 50.75 
L 49 0 
L 43.296875 0 
Q 41.296875 0 40.796875 1.90625 
L 40.046875 7.15625 
Q 36.75 3.59375 32.71875 1.390625 
Q 28.703125 -0.796875 23.40625 -0.796875 
Q 19.203125 -0.796875 16.015625 0.59375 
Q 12.84375 2 10.71875 4.515625 
Q 8.59375 7.046875 7.5 10.5625 
Q 6.40625 14.09375 6.40625 18.40625 
L 6.40625 50.75 
z
" id="Lato-Medium-75"/>
      <path d="M 6.90625 0 
L 6.90625 50.75 
L 12.34375 50.75 
Q 13.90625 50.75 14.46875 50.203125 
Q 15.046875 49.65625 15.25 48.203125 
L 15.84375 40.796875 
Q 18.25 45.84375 21.75 48.75 
Q 25.25 51.65625 30.15625 51.65625 
Q 31.796875 51.65625 33.265625 51.296875 
Q 34.75 50.953125 35.84375 50.203125 
L 35.203125 43.09375 
Q 34.90625 41.75 33.59375 41.75 
Q 32.90625 41.75 31.53125 42.046875 
Q 30.15625 42.34375 28.5 42.34375 
Q 26.15625 42.34375 24.328125 41.640625 
Q 22.5 40.953125 21.046875 39.59375 
Q 19.59375 38.25 18.46875 36.296875 
Q 17.34375 34.34375 16.40625 31.84375 
L 16.40625 0 
z
" id="Lato-Medium-72"/>
      <path d="M 22.703125 -0.796875 
Q 16.59375 -0.796875 13.296875 2.59375 
Q 10 6 10 12.40625 
L 10 43 
L 4.046875 43 
Q 3.203125 43 2.640625 43.515625 
Q 2.09375 44.046875 2.09375 45.046875 
L 2.09375 48.84375 
L 10.34375 49.953125 
L 12.5 65.296875 
Q 12.703125 66.09375 13.25 66.5625 
Q 13.796875 67.046875 14.703125 67.046875 
L 19.5 67.046875 
L 19.5 49.90625 
L 33.953125 49.90625 
L 33.953125 43 
L 19.5 43 
L 19.5 13.046875 
Q 19.5 10 20.96875 8.46875 
Q 22.453125 6.953125 24.84375 6.953125 
Q 26.203125 6.953125 27.203125 7.296875 
Q 28.203125 7.65625 28.890625 8.09375 
Q 29.59375 8.546875 30.125 8.890625 
Q 30.65625 9.25 31.046875 9.25 
Q 31.5 9.25 31.765625 9.046875 
Q 32.046875 8.84375 32.34375 8.34375 
L 35.15625 3.796875 
Q 32.75 1.59375 29.46875 0.390625 
Q 26.203125 -0.796875 22.703125 -0.796875 
" id="Lato-Medium-74"/>
     </defs>
     <g transform="translate(154.2 222.25875)scale(0.12 -0.12)">
      <use xlink:href="#Lato-Medium-54"/>
      <use x="59.04376220703125" xlink:href="#Lato-Medium-72"/>
      <use x="95.59376525878906" xlink:href="#Lato-Medium-75"/>
      <use x="151.4437713623047" xlink:href="#Lato-Medium-74"/>
      <use x="187.4937744140625" xlink:href="#Lato-Medium-68"/>
     </g>
    </g>
    <g id="PathCollection_2">
     <path d="M 124.2 236.711482 
C 124.387527 236.711482 124.567398 236.636977 124.7 236.504375 
C 124.832602 236.371773 124.907107 236.191902 124.907107 236.004375 
C 124.907107 235.816848 124.832602 235.636977 124.7 235.504375 
C 124.567398 235.371773 124.387527 235.297268 124.2 235.297268 
C 124.012473 235.297268 123.832602 235.371773 123.7 235.504375 
C 123.567398 235.636977 123.492893 235.816848 123.492893 236.004375 
C 123.492893 236.191902 123.567398 236.371773 123.7 236.504375 
C 123.832602 236.636977 124.012473 236.711482 124.2 236.711482 
z
" style="fill:#0000ff;stroke:#0000ff;"/>
     <path d="M 132.6 235.661482 
C 132.787527 235.661482 132.967398 235.586977 133.1 235.454375 
C 133.232602 235.321773 133.307107 235.141902 133.307107 234.954375 
C 133.307107 234.766848 133.232602 234.586977 133.1 234.454375 
C 132.967398 234.321773 132.787527 234.247268 132.6 234.247268 
C 132.412473 234.247268 132.232602 234.321773 132.1 234.454375 
C 131.967398 234.586977 131.892893 234.766848 131.892893 234.954375 
C 131.892893 235.141902 131.967398 235.321773 132.1 235.454375 
C 132.232602 235.586977 132.412473 235.661482 132.6 235.661482 
z
" style="fill:#0000ff;stroke:#0000ff;"/>
     <path d="M 141 237.236482 
C 141.187527 237.236482 141.367398 237.161977 141.5 237.029375 
C 141.632602 236.896773 141.707107 236.716902 141.707107 236.529375 
C 141.707107 236.341848 141.632602 236.161977 141.5 236.029375 
C 141.367398 235.896773 141.187527 235.822268 141 235.822268 
C 140.812473 235.822268 140.632602 235.896773 140.5 236.029375 
C 140.367398 236.161977 140.292893 236.341848 140.292893 236.529375 
C 140.292893 236.716902 140.367398 236.896773 140.5 237.029375 
C 140.632602 237.161977 140.812473 237.236482 141 237.236482 
z
" style="fill:#0000ff;stroke:#0000ff;"/>
    </g>
    <g id="text_11">
     <!-- Estimates -->
     <defs>
      <path d="M 53.34375 71.75 
L 53.34375 63.34375 
L 19.296875 63.34375 
L 19.296875 40.25 
L 46.75 40.25 
L 46.75 32.15625 
L 19.296875 32.15625 
L 19.296875 8.40625 
L 53.40625 8.40625 
L 53.34375 0 
L 8.953125 0 
L 8.953125 71.75 
z
" id="Lato-Medium-45"/>
      <path d="M 6.90625 0 
L 6.90625 50.75 
L 12.59375 50.75 
Q 14.59375 50.75 15.09375 48.84375 
L 15.75 43.90625 
Q 18.546875 47.25 22 49.390625 
Q 25.453125 51.546875 30.046875 51.546875 
Q 35.15625 51.546875 38.296875 48.765625 
Q 41.453125 46 42.84375 41.25 
Q 43.953125 43.953125 45.703125 45.890625 
Q 47.453125 47.84375 49.59375 49.09375 
Q 51.75 50.34375 54.171875 50.9375 
Q 56.59375 51.546875 59.09375 51.546875 
Q 67.25 51.546875 71.703125 46.5625 
Q 76.15625 41.59375 76.15625 32.34375 
L 76.15625 0 
L 66.65625 0 
L 66.65625 32.34375 
Q 66.65625 38.09375 64.125 41.046875 
Q 61.59375 44 56.796875 44 
Q 54.65625 44 52.71875 43.25 
Q 50.796875 42.5 49.34375 41.046875 
Q 47.90625 39.59375 47.046875 37.390625 
Q 46.203125 35.203125 46.203125 32.34375 
L 46.203125 0 
L 36.703125 0 
L 36.703125 32.34375 
Q 36.703125 38.25 34.328125 41.125 
Q 31.953125 44 27.34375 44 
Q 24.203125 44 21.421875 42.328125 
Q 18.65625 40.65625 16.40625 37.703125 
L 16.40625 0 
z
" id="Lato-Medium-6d"/>
      <path d="M 16.84375 50.75 
L 16.84375 0 
L 7.34375 0 
L 7.34375 50.75 
z
M 18.703125 66.5 
Q 18.703125 65.15625 18.171875 63.96875 
Q 17.65625 62.796875 16.71875 61.890625 
Q 15.796875 61 14.5625 60.46875 
Q 13.34375 59.953125 12 59.953125 
Q 10.703125 59.953125 9.515625 60.46875 
Q 8.34375 61 7.4375 61.890625 
Q 6.546875 62.796875 6.015625 63.96875 
Q 5.5 65.15625 5.5 66.5 
Q 5.5 67.84375 6.015625 69.0625 
Q 6.546875 70.296875 7.4375 71.1875 
Q 8.34375 72.09375 9.515625 72.625 
Q 10.703125 73.15625 12 73.15625 
Q 13.34375 73.15625 14.5625 72.625 
Q 15.796875 72.09375 16.71875 71.1875 
Q 17.65625 70.296875 18.171875 69.0625 
Q 18.703125 67.84375 18.703125 66.5 
" id="Lato-Medium-69"/>
      <path d="M 39.34375 0 
Q 37.953125 0 37.203125 0.453125 
Q 36.453125 0.90625 36 2.203125 
L 34.953125 6.75 
Q 33 4.953125 31.09375 3.515625 
Q 29.203125 2.09375 27.125 1.140625 
Q 25.046875 0.203125 22.6875 -0.296875 
Q 20.34375 -0.796875 17.453125 -0.796875 
Q 14.453125 -0.796875 11.84375 0.015625 
Q 9.25 0.84375 7.328125 2.546875 
Q 5.40625 4.25 4.28125 6.765625 
Q 3.15625 9.296875 3.15625 12.75 
Q 3.15625 15.75 4.78125 18.5 
Q 6.40625 21.25 10.078125 23.421875 
Q 13.75 25.59375 19.671875 27 
Q 25.59375 28.40625 34.25 28.59375 
L 34.25 32.40625 
Q 34.25 38.15625 31.765625 41.078125 
Q 29.296875 44 24.5 44 
Q 21.25 44 19.078125 43.171875 
Q 16.90625 42.34375 15.328125 41.375 
Q 13.75 40.40625 12.546875 39.59375 
Q 11.34375 38.796875 10.15625 38.796875 
Q 9.15625 38.796875 8.46875 39.3125 
Q 7.796875 39.84375 7.296875 40.546875 
L 5.59375 43.65625 
Q 9.84375 47.65625 14.765625 49.65625 
Q 19.703125 51.65625 25.65625 51.65625 
Q 29.953125 51.65625 33.296875 50.25 
Q 36.65625 48.84375 38.921875 46.3125 
Q 41.203125 43.796875 42.375 40.25 
Q 43.546875 36.703125 43.546875 32.40625 
L 43.546875 0 
z
M 20.296875 5.84375 
Q 22.546875 5.84375 24.46875 6.296875 
Q 26.40625 6.75 28.078125 7.59375 
Q 29.75 8.453125 31.25 9.671875 
Q 32.75 10.90625 34.25 12.453125 
L 34.25 22.65625 
Q 28.25 22.453125 24.046875 21.703125 
Q 19.84375 20.953125 17.21875 19.75 
Q 14.59375 18.546875 13.390625 16.875 
Q 12.203125 15.203125 12.203125 13.203125 
Q 12.203125 11.25 12.828125 9.84375 
Q 13.453125 8.453125 14.546875 7.578125 
Q 15.65625 6.703125 17.125 6.265625 
Q 18.59375 5.84375 20.296875 5.84375 
" id="Lato-Medium-61"/>
      <path d="M 27.84375 51.546875 
Q 32.453125 51.546875 36.34375 50.015625 
Q 40.25 48.5 43.09375 45.59375 
Q 45.953125 42.703125 47.546875 38.46875 
Q 49.15625 34.25 49.15625 28.796875 
Q 49.15625 26.59375 48.671875 25.84375 
Q 48.203125 25.09375 46.90625 25.09375 
L 13.40625 25.09375 
Q 13.546875 20.453125 14.71875 17 
Q 15.90625 13.546875 17.921875 11.265625 
Q 19.953125 9 22.796875 7.875 
Q 25.65625 6.75 29.15625 6.75 
Q 32.453125 6.75 34.828125 7.5 
Q 37.203125 8.25 38.921875 9.140625 
Q 40.65625 10.046875 41.84375 10.796875 
Q 43.046875 11.546875 43.953125 11.546875 
Q 45.15625 11.546875 45.703125 10.65625 
L 48.40625 7.203125 
Q 46.65625 5.09375 44.34375 3.625 
Q 42.046875 2.15625 39.390625 1.171875 
Q 36.75 0.203125 33.921875 -0.25 
Q 31.09375 -0.703125 28.34375 -0.703125 
Q 23.09375 -0.703125 18.625 1.0625 
Q 14.15625 2.84375 10.90625 6.265625 
Q 7.65625 9.703125 5.828125 14.765625 
Q 4 19.84375 4 26.453125 
Q 4 31.75 5.640625 36.328125 
Q 7.296875 40.90625 10.375 44.28125 
Q 13.453125 47.65625 17.875 49.59375 
Q 22.296875 51.546875 27.84375 51.546875 
M 28 44.59375 
Q 21.75 44.59375 18.171875 40.96875 
Q 14.59375 37.34375 13.703125 30.953125 
L 40.65625 30.953125 
Q 40.65625 33.953125 39.796875 36.453125 
Q 38.953125 38.953125 37.328125 40.75 
Q 35.703125 42.546875 33.34375 43.5625 
Q 31 44.59375 28 44.59375 
" id="Lato-Medium-65"/>
      <path d="M 36.703125 42.15625 
Q 36 40.953125 34.75 40.953125 
Q 33.953125 40.953125 32.96875 41.5 
Q 32 42.046875 30.640625 42.71875 
Q 29.296875 43.40625 27.421875 43.953125 
Q 25.546875 44.5 23 44.5 
Q 20.84375 44.5 19.09375 43.953125 
Q 17.34375 43.40625 16.125 42.453125 
Q 14.90625 41.5 14.21875 40.21875 
Q 13.546875 38.953125 13.546875 37.453125 
Q 13.546875 35.546875 14.671875 34.265625 
Q 15.796875 33 17.625 32.078125 
Q 19.453125 31.15625 21.796875 30.421875 
Q 24.15625 29.703125 26.59375 28.890625 
Q 29.046875 28.09375 31.390625 27.0625 
Q 33.75 26.046875 35.578125 24.546875 
Q 37.40625 23.046875 38.53125 20.875 
Q 39.65625 18.703125 39.65625 15.65625 
Q 39.65625 12.09375 38.375 9.09375 
Q 37.09375 6.09375 34.625 3.890625 
Q 32.15625 1.703125 28.546875 0.453125 
Q 24.953125 -0.796875 20.25 -0.796875 
Q 14.953125 -0.796875 10.578125 0.953125 
Q 6.203125 2.703125 3.203125 5.40625 
L 5.40625 9 
Q 5.796875 9.703125 6.390625 10.078125 
Q 7 10.453125 7.90625 10.453125 
Q 8.84375 10.453125 9.84375 9.75 
Q 10.84375 9.046875 12.265625 8.21875 
Q 13.703125 7.40625 15.71875 6.703125 
Q 17.75 6 20.75 6 
Q 23.296875 6 25.171875 6.640625 
Q 27.046875 7.296875 28.296875 8.375 
Q 29.546875 9.453125 30.140625 10.890625 
Q 30.75 12.34375 30.75 13.953125 
Q 30.75 16 29.625 17.34375 
Q 28.5 18.703125 26.671875 19.640625 
Q 24.84375 20.59375 22.5 21.296875 
Q 20.15625 22 17.671875 22.796875 
Q 15.203125 23.59375 12.84375 24.625 
Q 10.5 25.65625 8.671875 27.25 
Q 6.84375 28.84375 5.71875 31.125 
Q 4.59375 33.40625 4.59375 36.703125 
Q 4.59375 39.65625 5.796875 42.34375 
Q 7 45.046875 9.328125 47.09375 
Q 11.65625 49.15625 15.046875 50.34375 
Q 18.453125 51.546875 22.796875 51.546875 
Q 27.796875 51.546875 31.875 49.96875 
Q 35.953125 48.40625 38.796875 45.59375 
z
" id="Lato-Medium-73"/>
     </defs>
     <g transform="translate(154.2 239.154375)scale(0.12 -0.12)">
      <use xlink:href="#Lato-Medium-45"/>
      <use x="57.70001220703125" xlink:href="#Lato-Medium-73"/>
      <use x="101.10002136230469" xlink:href="#Lato-Medium-74"/>
      <use x="137.1500244140625" xlink:href="#Lato-Medium-69"/>
      <use x="161.3500213623047" xlink:href="#Lato-Medium-6d"/>
      <use x="243.85003662109375" xlink:href="#Lato-Medium-61"/>
      <use x="293.7500457763672" xlink:href="#Lato-Medium-74"/>
      <use x="329.800048828125" xlink:href="#Lato-Medium-65"/>
      <use x="382.70005798339844" xlink:href="#Lato-Medium-73"/>
     </g>
    </g>
   </g>
  </g>
 </g>
 <defs>
  <clipPath id="p7e5c3d7938">
   <rect height="223.2" width="223.2" x="109.8" y="28.8"/>
  </clipPath>
 </defs>
</svg>
