<?xml version="1.0" encoding="utf-8" standalone="no"?>
<!DOCTYPE svg PUBLIC "-//W3C//DTD SVG 1.1//EN"
  "http://www.w3.org/Graphics/SVG/1.1/DTD/svg11.dtd">
<!-- Created with matplotlib (http://matplotlib.org/) -->
<svg height="274pt" version="1.1" viewBox="0 0 391 274" width="391pt" xmlns="http://www.w3.org/2000/svg" xmlns:xlink="http://www.w3.org/1999/xlink">
 <defs>
  <style type="text/css">
*{stroke-linecap:butt;stroke-linejoin:round;stroke-miterlimit:100000;}
  </style>
 </defs>
 <g id="figure_1">
  <g id="patch_1">
   <path d="M 0 274.619531 
L 391.9125 274.619531 
L 391.9125 0 
L 0 0 
L 0 274.619531 
z
" style="fill:none;"/>
  </g>
  <g id="axes_1">
   <g id="patch_2">
    <path d="M 49.9125 234.939844 
L 384.7125 234.939844 
L 384.7125 11.739844 
L 49.9125 11.739844 
L 49.9125 234.939844 
z
" style="fill:none;"/>
   </g>
   <g id="PathCollection_1">
    <defs>
     <path d="M 0 2.236068 
C 0.593012 2.236068 1.161816 2.000462 1.581139 1.581139 
C 2.000462 1.161816 2.236068 0.593012 2.236068 0 
C 2.236068 -0.593012 2.000462 -1.161816 1.581139 -1.581139 
C 1.161816 -2.000462 0.593012 -2.236068 0 -2.236068 
C -0.593012 -2.236068 -1.161816 -2.000462 -1.581139 -1.581139 
C -2.000462 -1.161816 -2.236068 -0.593012 -2.236068 0 
C -2.236068 0.593012 -2.000462 1.161816 -1.581139 1.581139 
C -1.161816 2.000462 -0.593012 2.236068 0 2.236068 
z
" id="m89f3ad97cc" style="stroke:#000000;"/>
    </defs>
    <g clip-path="url(#p52de2b82db)">
     <use style="fill:#0000ff;stroke:#000000;" x="91.7625" xlink:href="#m89f3ad97cc" y="20.138580629"/>
     <use style="fill:#0000ff;stroke:#000000;" x="175.4625" xlink:href="#m89f3ad97cc" y="54.7083111244"/>
     <use style="fill:#0000ff;stroke:#000000;" x="259.1625" xlink:href="#m89f3ad97cc" y="122.802146993"/>
     <use style="fill:#0000ff;stroke:#000000;" x="342.8625" xlink:href="#m89f3ad97cc" y="228.92266934"/>
    </g>
   </g>
   <g id="patch_3">
    <path d="M 49.9125 234.939844 
L 49.9125 11.739844 
" style="fill:none;stroke:#000000;stroke-linecap:square;stroke-linejoin:miter;"/>
   </g>
   <g id="patch_4">
    <path d="M 384.7125 234.939844 
L 384.7125 11.739844 
" style="fill:none;stroke:#000000;stroke-linecap:square;stroke-linejoin:miter;"/>
   </g>
   <g id="patch_5">
    <path d="M 49.9125 234.939844 
L 384.7125 234.939844 
" style="fill:none;stroke:#000000;stroke-linecap:square;stroke-linejoin:miter;"/>
   </g>
   <g id="patch_6">
    <path d="M 49.9125 11.739844 
L 384.7125 11.739844 
" style="fill:none;stroke:#000000;stroke-linecap:square;stroke-linejoin:miter;"/>
   </g>
   <g id="matplotlib.axis_1">
    <g id="xtick_1">
     <g id="line2d_1">
      <defs>
       <path d="M 0 0 
L 0 -4 
" id="mae5982928d" style="stroke:#000000;stroke-width:0.5;"/>
      </defs>
      <g>
       <use style="stroke:#000000;stroke-width:0.5;" x="91.7625" xlink:href="#mae5982928d" y="234.93984375"/>
      </g>
     </g>
     <g id="line2d_2">
      <defs>
       <path d="M 0 0 
L 0 4 
" id="m896e91a8e6" style="stroke:#000000;stroke-width:0.5;"/>
      </defs>
      <g>
       <use style="stroke:#000000;stroke-width:0.5;" x="91.7625" xlink:href="#m896e91a8e6" y="11.73984375"/>
      </g>
     </g>
     <g id="text_1">
      <!-- 2 -->
      <defs>
       <path d="M 29.59375 72.546875 
Q 34.25 72.546875 38.203125 71.171875 
Q 42.15625 69.796875 45.046875 67.21875 
Q 47.953125 64.65625 49.59375 60.921875 
Q 51.25 57.203125 51.25 52.5 
Q 51.25 48.5 50.078125 45.078125 
Q 48.90625 41.65625 46.875 38.546875 
Q 44.84375 35.453125 42.171875 32.5 
Q 39.5 29.546875 36.5 26.546875 
L 18.046875 7.75 
Q 20.09375 8.296875 22.1875 8.640625 
Q 24.296875 9 26.203125 9 
L 49.296875 9 
Q 50.84375 9 51.75 8.09375 
Q 52.65625 7.203125 52.65625 5.75 
L 52.65625 0 
L 4.546875 0 
L 4.546875 3.25 
Q 4.546875 4.25 4.96875 5.328125 
Q 5.40625 6.40625 6.296875 7.25 
L 29.046875 30.15625 
Q 31.90625 33.046875 34.203125 35.6875 
Q 36.5 38.34375 38.140625 41 
Q 39.796875 43.65625 40.671875 46.375 
Q 41.546875 49.09375 41.546875 52.203125 
Q 41.546875 55.25 40.59375 57.546875 
Q 39.65625 59.84375 37.96875 61.390625 
Q 36.296875 62.953125 34 63.703125 
Q 31.703125 64.453125 29.046875 64.453125 
Q 26.40625 64.453125 24.203125 63.671875 
Q 22 62.90625 20.265625 61.53125 
Q 18.546875 60.15625 17.375 58.28125 
Q 16.203125 56.40625 15.703125 54.15625 
Q 15.046875 52.296875 13.96875 51.671875 
Q 12.90625 51.046875 10.953125 51.34375 
L 5.953125 52.25 
Q 6.703125 57.203125 8.71875 61 
Q 10.75 64.796875 13.84375 67.375 
Q 16.953125 69.953125 20.953125 71.25 
Q 24.953125 72.546875 29.59375 72.546875 
" id="Lato-Medium-32"/>
      </defs>
      <g transform="translate(88.8625 246.31484375)scale(0.1 -0.1)">
       <use xlink:href="#Lato-Medium-32"/>
      </g>
     </g>
    </g>
    <g id="xtick_2">
     <g id="line2d_3">
      <g>
       <use style="stroke:#000000;stroke-width:0.5;" x="175.4625" xlink:href="#mae5982928d" y="234.93984375"/>
      </g>
     </g>
     <g id="line2d_4">
      <g>
       <use style="stroke:#000000;stroke-width:0.5;" x="175.4625" xlink:href="#m896e91a8e6" y="11.73984375"/>
      </g>
     </g>
     <g id="text_2">
      <!-- 3 -->
      <defs>
       <path d="M 29.953125 72.546875 
Q 34.59375 72.546875 38.4375 71.21875 
Q 42.296875 69.90625 45.0625 67.46875 
Q 47.84375 65.046875 49.390625 61.671875 
Q 50.953125 58.296875 50.953125 54.203125 
Q 50.953125 50.75 50.09375 48.078125 
Q 49.25 45.40625 47.640625 43.40625 
Q 46.046875 41.40625 43.765625 40.03125 
Q 41.5 38.65625 38.65625 37.75 
Q 45.59375 35.84375 49.0625 31.546875 
Q 52.546875 27.25 52.546875 20.703125 
Q 52.546875 15.65625 50.640625 11.671875 
Q 48.75 7.703125 45.5 4.921875 
Q 42.25 2.15625 37.875 0.671875 
Q 33.5 -0.796875 28.546875 -0.796875 
Q 22.90625 -0.796875 18.84375 0.59375 
Q 14.796875 2 11.9375 4.46875 
Q 9.09375 6.953125 7.25 10.390625 
Q 5.40625 13.84375 4.15625 17.953125 
L 8.25 19.703125 
Q 9.84375 20.40625 11.34375 20.09375 
Q 12.84375 19.796875 13.546875 18.34375 
Q 14.25 16.90625 15.25 15 
Q 16.25 13.09375 17.890625 11.375 
Q 19.546875 9.65625 22.0625 8.46875 
Q 24.59375 7.296875 28.453125 7.296875 
Q 32.09375 7.296875 34.84375 8.5 
Q 37.59375 9.703125 39.421875 11.59375 
Q 41.25 13.5 42.140625 15.828125 
Q 43.046875 18.15625 43.046875 20.453125 
Q 43.046875 23.296875 42.3125 25.640625 
Q 41.59375 28 39.625 29.703125 
Q 37.65625 31.40625 34.125 32.34375 
Q 30.59375 33.296875 25 33.296875 
L 25 40.203125 
Q 29.59375 40.25 32.765625 41.171875 
Q 35.953125 42.09375 37.953125 43.71875 
Q 39.953125 45.34375 40.828125 47.59375 
Q 41.703125 49.84375 41.703125 52.546875 
Q 41.703125 55.546875 40.765625 57.765625 
Q 39.84375 60 38.1875 61.46875 
Q 36.546875 62.953125 34.296875 63.703125 
Q 32.046875 64.453125 29.40625 64.453125 
Q 26.75 64.453125 24.515625 63.671875 
Q 22.296875 62.90625 20.5625 61.53125 
Q 18.84375 60.15625 17.671875 58.28125 
Q 16.5 56.40625 16 54.15625 
Q 15.296875 52.296875 14.265625 51.671875 
Q 13.25 51.046875 11.296875 51.34375 
L 6.296875 52.25 
Q 7 57.203125 9.046875 61 
Q 11.09375 64.796875 14.1875 67.375 
Q 17.296875 69.953125 21.296875 71.25 
Q 25.296875 72.546875 29.953125 72.546875 
" id="Lato-Medium-33"/>
      </defs>
      <g transform="translate(172.5625 246.31484375)scale(0.1 -0.1)">
       <use xlink:href="#Lato-Medium-33"/>
      </g>
     </g>
    </g>
    <g id="xtick_3">
     <g id="line2d_5">
      <g>
       <use style="stroke:#000000;stroke-width:0.5;" x="259.1625" xlink:href="#mae5982928d" y="234.93984375"/>
      </g>
     </g>
     <g id="line2d_6">
      <g>
       <use style="stroke:#000000;stroke-width:0.5;" x="259.1625" xlink:href="#m896e91a8e6" y="11.73984375"/>
      </g>
     </g>
     <g id="text_3">
      <!-- 4 -->
      <defs>
       <path d="M 44.65625 26.09375 
L 55.203125 26.09375 
L 55.203125 20.59375 
Q 55.203125 19.75 54.671875 19.171875 
Q 54.15625 18.59375 53.15625 18.59375 
L 44.65625 18.59375 
L 44.65625 0 
L 36.34375 0 
L 36.34375 18.59375 
L 4.75 18.59375 
Q 3.703125 18.59375 2.953125 19.1875 
Q 2.203125 19.796875 2 20.75 
L 1.046875 25.59375 
L 35.796875 71.796875 
L 44.65625 71.796875 
z
M 36.34375 54.59375 
Q 36.34375 55.953125 36.4375 57.546875 
Q 36.546875 59.15625 36.796875 60.84375 
L 11.296875 26.09375 
L 36.34375 26.09375 
z
" id="Lato-Medium-34"/>
      </defs>
      <g transform="translate(256.2625 246.31484375)scale(0.1 -0.1)">
       <use xlink:href="#Lato-Medium-34"/>
      </g>
     </g>
    </g>
    <g id="xtick_4">
     <g id="line2d_7">
      <g>
       <use style="stroke:#000000;stroke-width:0.5;" x="342.8625" xlink:href="#mae5982928d" y="234.93984375"/>
      </g>
     </g>
     <g id="line2d_8">
      <g>
       <use style="stroke:#000000;stroke-width:0.5;" x="342.8625" xlink:href="#m896e91a8e6" y="11.73984375"/>
      </g>
     </g>
     <g id="text_4">
      <!-- 5 -->
      <defs>
       <path d="M 49.25 67.65625 
Q 49.25 65.59375 47.96875 64.296875 
Q 46.703125 63 43.703125 63 
L 21.59375 63 
L 18.453125 44.84375 
Q 23.90625 46.046875 28.546875 46.046875 
Q 34.15625 46.046875 38.453125 44.375 
Q 42.75 42.703125 45.640625 39.765625 
Q 48.546875 36.84375 50.015625 32.875 
Q 51.5 28.90625 51.5 24.296875 
Q 51.5 18.59375 49.5 13.9375 
Q 47.5 9.296875 44.015625 6.015625 
Q 40.546875 2.75 35.796875 0.96875 
Q 31.046875 -0.796875 25.546875 -0.796875 
Q 22.34375 -0.796875 19.421875 -0.171875 
Q 16.5 0.453125 13.953125 1.515625 
Q 11.40625 2.59375 9.25 4 
Q 7.09375 5.40625 5.40625 6.90625 
L 8.296875 11 
Q 9.25 12.34375 10.796875 12.34375 
Q 11.84375 12.34375 13.09375 11.5625 
Q 14.34375 10.796875 16.125 9.84375 
Q 17.90625 8.90625 20.328125 8.125 
Q 22.75 7.34375 26.046875 7.34375 
Q 29.703125 7.34375 32.640625 8.515625 
Q 35.59375 9.703125 37.671875 11.875 
Q 39.75 14.046875 40.84375 17.09375 
Q 41.953125 20.15625 41.953125 23.84375 
Q 41.953125 27.15625 40.96875 29.78125 
Q 40 32.40625 38.09375 34.28125 
Q 36.203125 36.15625 33.296875 37.15625 
Q 30.40625 38.15625 26.59375 38.15625 
Q 21.25 38.15625 15.15625 36.25 
L 9.203125 38 
L 15 71.75 
L 49.25 71.75 
z
" id="Lato-Medium-35"/>
      </defs>
      <g transform="translate(339.9625 246.31484375)scale(0.1 -0.1)">
       <use xlink:href="#Lato-Medium-35"/>
      </g>
     </g>
    </g>
    <g id="text_5">
     <!-- $d$ -->
     <defs>
      <path d="M 17.390625 -1.125 
Q 11.078125 -1.125 7.4375 3.640625 
Q 3.8125 8.40625 3.8125 14.890625 
Q 3.8125 21.296875 7.125 28.171875 
Q 10.453125 35.0625 16.09375 39.625 
Q 21.734375 44.1875 28.21875 44.1875 
Q 31.15625 44.1875 33.515625 42.546875 
Q 35.890625 40.921875 37.203125 38.1875 
L 42.828125 60.5 
Q 43.21875 62.203125 43.3125 63.1875 
Q 43.3125 64.796875 36.8125 64.796875 
Q 35.796875 64.796875 35.796875 66.109375 
Q 35.84375 66.359375 36.015625 66.984375 
Q 36.1875 67.625 36.453125 67.96875 
Q 36.71875 68.3125 37.203125 68.3125 
L 50.6875 69.390625 
Q 51.90625 69.390625 51.90625 68.109375 
L 37.5 10.59375 
Q 36.8125 8.9375 36.8125 5.8125 
Q 36.8125 1.515625 39.703125 1.515625 
Q 42.828125 1.515625 44.453125 5.484375 
Q 46.09375 9.46875 47.21875 14.703125 
Q 47.40625 15.28125 48 15.28125 
L 49.21875 15.28125 
Q 49.609375 15.28125 49.84375 14.9375 
Q 50.09375 14.59375 50.09375 14.3125 
Q 48.34375 7.328125 46.265625 3.09375 
Q 44.1875 -1.125 39.5 -1.125 
Q 36.140625 -1.125 33.546875 0.84375 
Q 30.953125 2.828125 30.328125 6.109375 
Q 23.875 -1.125 17.390625 -1.125 
M 17.484375 1.515625 
Q 21.09375 1.515625 24.484375 4.21875 
Q 27.875 6.9375 30.328125 10.59375 
Q 30.421875 10.6875 30.421875 10.984375 
L 35.890625 33.015625 
Q 35.296875 36.53125 33.296875 39.0625 
Q 31.296875 41.609375 27.984375 41.609375 
Q 24.609375 41.609375 21.703125 38.84375 
Q 18.796875 36.078125 16.796875 32.328125 
Q 14.84375 28.328125 13.0625 21.34375 
Q 11.28125 14.359375 11.28125 10.5 
Q 11.28125 7.03125 12.765625 4.265625 
Q 14.265625 1.515625 17.484375 1.515625 
" id="Cmmi10-64"/>
     </defs>
     <g transform="translate(213.0725 264.53953125)scale(0.16 -0.16)">
      <use transform="translate(0.0 0.609375)" xlink:href="#Cmmi10-64"/>
     </g>
    </g>
   </g>
   <g id="matplotlib.axis_2">
    <g id="ytick_1">
     <g id="line2d_9">
      <defs>
       <path d="M 0 0 
L 4 0 
" id="m836597f0e8" style="stroke:#000000;stroke-width:0.5;"/>
      </defs>
      <g>
       <use style="stroke:#000000;stroke-width:0.5;" x="49.9125" xlink:href="#m836597f0e8" y="234.93984375"/>
      </g>
     </g>
     <g id="line2d_10">
      <defs>
       <path d="M 0 0 
L -4 0 
" id="m27a2af9b9d" style="stroke:#000000;stroke-width:0.5;"/>
      </defs>
      <g>
       <use style="stroke:#000000;stroke-width:0.5;" x="384.7125" xlink:href="#m27a2af9b9d" y="234.93984375"/>
      </g>
     </g>
     <g id="text_6">
      <!-- $\mathdefault{10^{-8}}$ -->
      <defs>
       <path d="M 55.09375 35.90625 
Q 55.09375 26.5 53.0625 19.59375 
Q 51.046875 12.703125 47.515625 8.171875 
Q 44 3.65625 39.21875 1.453125 
Q 34.453125 -0.75 28.953125 -0.75 
Q 23.453125 -0.75 18.703125 1.453125 
Q 13.953125 3.65625 10.421875 8.171875 
Q 6.90625 12.703125 4.90625 19.59375 
Q 2.90625 26.5 2.90625 35.90625 
Q 2.90625 45.296875 4.90625 52.1875 
Q 6.90625 59.09375 10.421875 63.625 
Q 13.953125 68.15625 18.703125 70.34375 
Q 23.453125 72.546875 28.953125 72.546875 
Q 34.453125 72.546875 39.21875 70.34375 
Q 44 68.15625 47.515625 63.625 
Q 51.046875 59.09375 53.0625 52.1875 
Q 55.09375 45.296875 55.09375 35.90625 
M 45.25 35.90625 
Q 45.25 44 43.890625 49.5 
Q 42.546875 55 40.296875 58.34375 
Q 38.046875 61.703125 35.09375 63.125 
Q 32.15625 64.546875 28.953125 64.546875 
Q 25.75 64.546875 22.796875 63.125 
Q 19.84375 61.703125 17.59375 58.34375 
Q 15.34375 55 14.015625 49.5 
Q 12.703125 44 12.703125 35.90625 
Q 12.703125 27.75 14.015625 22.25 
Q 15.34375 16.75 17.59375 13.421875 
Q 19.84375 10.09375 22.796875 8.671875 
Q 25.75 7.25 28.953125 7.25 
Q 32.15625 7.25 35.09375 8.671875 
Q 38.046875 10.09375 40.296875 13.421875 
Q 42.546875 16.75 43.890625 22.25 
Q 45.25 27.75 45.25 35.90625 
" id="Lato-Medium-30"/>
       <path d="M 29 -0.796875 
Q 23.59375 -0.796875 19.125 0.640625 
Q 14.65625 2.09375 11.453125 4.765625 
Q 8.25 7.453125 6.46875 11.21875 
Q 4.703125 15 4.703125 19.703125 
Q 4.703125 26.546875 8.21875 31 
Q 11.75 35.453125 18.453125 37.40625 
Q 12.84375 39.5 10 43.671875 
Q 7.15625 47.84375 7.15625 53.65625 
Q 7.15625 57.65625 8.71875 61.09375 
Q 10.296875 64.546875 13.171875 67.09375 
Q 16.046875 69.65625 20.0625 71.09375 
Q 24.09375 72.546875 29 72.546875 
Q 33.90625 72.546875 37.921875 71.09375 
Q 41.953125 69.65625 44.828125 67.09375 
Q 47.703125 64.546875 49.265625 61.09375 
Q 50.84375 57.65625 50.84375 53.65625 
Q 50.84375 47.84375 47.96875 43.671875 
Q 45.09375 39.5 39.5 37.40625 
Q 46.203125 35.453125 49.75 31 
Q 53.296875 26.546875 53.296875 19.703125 
Q 53.296875 15 51.515625 11.21875 
Q 49.75 7.453125 46.546875 4.765625 
Q 43.34375 2.09375 38.875 0.640625 
Q 34.40625 -0.796875 29 -0.796875 
M 29 6.75 
Q 32.453125 6.75 35.140625 7.71875 
Q 37.84375 8.703125 39.71875 10.453125 
Q 41.59375 12.203125 42.5625 14.59375 
Q 43.546875 17 43.546875 19.90625 
Q 43.546875 23.453125 42.375 26 
Q 41.203125 28.546875 39.203125 30.171875 
Q 37.203125 31.796875 34.546875 32.5625 
Q 31.90625 33.34375 29 33.34375 
Q 26.046875 33.34375 23.421875 32.5625 
Q 20.796875 31.796875 18.796875 30.171875 
Q 16.796875 28.546875 15.625 26 
Q 14.453125 23.453125 14.453125 19.90625 
Q 14.453125 17 15.421875 14.59375 
Q 16.40625 12.203125 18.28125 10.453125 
Q 20.15625 8.703125 22.84375 7.71875 
Q 25.546875 6.75 29 6.75 
M 29 40.953125 
Q 32.453125 40.953125 34.828125 42 
Q 37.203125 43.046875 38.703125 44.796875 
Q 40.203125 46.546875 40.875 48.796875 
Q 41.546875 51.046875 41.546875 53.453125 
Q 41.546875 55.84375 40.765625 58 
Q 40 60.15625 38.421875 61.78125 
Q 36.84375 63.40625 34.5 64.328125 
Q 32.15625 65.25 29 65.25 
Q 25.84375 65.25 23.5 64.328125 
Q 21.15625 63.40625 19.578125 61.78125 
Q 18 60.15625 17.21875 58 
Q 16.453125 55.84375 16.453125 53.453125 
Q 16.453125 51.046875 17.125 48.796875 
Q 17.796875 46.546875 19.296875 44.796875 
Q 20.796875 43.046875 23.171875 42 
Q 25.546875 40.953125 29 40.953125 
" id="Lato-Medium-38"/>
       <path d="M 6.15625 34.046875 
L 31.046875 34.046875 
L 31.046875 26 
L 6.15625 26 
z
" id="Lato-Medium-2d"/>
       <path d="M 12.34375 7.25 
L 27.59375 7.25 
L 27.59375 54.90625 
Q 27.59375 57.09375 27.75 59.453125 
L 15.40625 48.90625 
Q 14.703125 48.34375 14.015625 48.1875 
Q 13.34375 48.046875 12.75 48.171875 
Q 12.15625 48.296875 11.65625 48.59375 
Q 11.15625 48.90625 10.90625 49.25 
L 7.953125 53.40625 
L 29.40625 71.90625 
L 37.09375 71.90625 
L 37.09375 7.25 
L 51.046875 7.25 
L 51.046875 0 
L 12.34375 0 
z
" id="Lato-Medium-31"/>
      </defs>
      <g transform="translate(26.9125 237.775)scale(0.1 -0.1)">
       <use transform="translate(0.0 0.37968750000000284)" xlink:href="#Lato-Medium-31"/>
       <use transform="translate(58.0 0.37968750000000284)" xlink:href="#Lato-Medium-30"/>
       <use transform="translate(118.664375 23.21718750000001)scale(0.7)" xlink:href="#Lato-Medium-2d"/>
       <use transform="translate(144.70437286376955 23.21718750000001)scale(0.7)" xlink:href="#Lato-Medium-38"/>
      </g>
     </g>
    </g>
    <g id="ytick_2">
     <g id="line2d_11">
      <g>
       <use style="stroke:#000000;stroke-width:0.5;" x="49.9125" xlink:href="#m836597f0e8" y="207.03984375"/>
      </g>
     </g>
     <g id="line2d_12">
      <g>
       <use style="stroke:#000000;stroke-width:0.5;" x="384.7125" xlink:href="#m27a2af9b9d" y="207.03984375"/>
      </g>
     </g>
     <g id="text_7">
      <!-- $\mathdefault{10^{-7}}$ -->
      <defs>
       <path d="M 54.15625 71.75 
L 54.15625 67.546875 
Q 54.15625 65.703125 53.75 64.546875 
Q 53.34375 63.40625 52.953125 62.546875 
L 23.65625 3.34375 
Q 22.953125 1.953125 21.75 0.96875 
Q 20.546875 0 18.5 0 
L 11.703125 0 
L 41.453125 58.40625 
Q 42.75 61 44.453125 63 
L 7.546875 63 
Q 6.59375 63 5.921875 63.703125 
Q 5.25 64.40625 5.25 65.296875 
L 5.25 71.75 
z
" id="Lato-Medium-37"/>
      </defs>
      <g transform="translate(26.9125 209.875)scale(0.1 -0.1)">
       <use transform="translate(0.0 0.9375)" xlink:href="#Lato-Medium-31"/>
       <use transform="translate(58.0 0.9375)" xlink:href="#Lato-Medium-30"/>
       <use transform="translate(118.664375 23.775000000000006)scale(0.7)" xlink:href="#Lato-Medium-2d"/>
       <use transform="translate(144.70437286376955 23.775000000000006)scale(0.7)" xlink:href="#Lato-Medium-37"/>
      </g>
     </g>
    </g>
    <g id="ytick_3">
     <g id="line2d_13">
      <g>
       <use style="stroke:#000000;stroke-width:0.5;" x="49.9125" xlink:href="#m836597f0e8" y="179.13984375"/>
      </g>
     </g>
     <g id="line2d_14">
      <g>
       <use style="stroke:#000000;stroke-width:0.5;" x="384.7125" xlink:href="#m27a2af9b9d" y="179.13984375"/>
      </g>
     </g>
     <g id="text_8">
      <!-- $\mathdefault{10^{-6}}$ -->
      <defs>
       <path d="M 24.09375 45 
Q 23.203125 43.84375 22.34375 42.796875 
Q 21.5 41.75 20.75 40.703125 
Q 23.203125 42.296875 26.171875 43.1875 
Q 29.15625 44.09375 32.59375 44.09375 
Q 36.90625 44.09375 40.75 42.6875 
Q 44.59375 41.296875 47.515625 38.5625 
Q 50.453125 35.84375 52.140625 31.84375 
Q 53.84375 27.84375 53.84375 22.703125 
Q 53.84375 17.75 52.046875 13.453125 
Q 50.25 9.15625 46.96875 6 
Q 43.703125 2.84375 39.140625 1.015625 
Q 34.59375 -0.796875 29.09375 -0.796875 
Q 23.59375 -0.796875 19.1875 0.953125 
Q 14.796875 2.703125 11.671875 5.921875 
Q 8.546875 9.15625 6.875 13.703125 
Q 5.203125 18.25 5.203125 23.84375 
Q 5.203125 28.59375 7.265625 33.921875 
Q 9.34375 39.25 13.84375 45.296875 
L 31.90625 69.453125 
Q 32.59375 70.453125 33.9375 71.09375 
Q 35.296875 71.75 36.953125 71.75 
L 45.40625 71.75 
z
M 14.296875 22.203125 
Q 14.296875 18.84375 15.265625 16.0625 
Q 16.25 13.296875 18.125 11.296875 
Q 20 9.296875 22.71875 8.1875 
Q 25.453125 7.09375 28.90625 7.09375 
Q 32.40625 7.09375 35.25 8.21875 
Q 38.09375 9.34375 40.125 11.34375 
Q 42.15625 13.34375 43.25 16.0625 
Q 44.34375 18.796875 44.34375 22 
Q 44.34375 25.453125 43.265625 28.21875 
Q 42.203125 31 40.21875 32.890625 
Q 38.25 34.796875 35.515625 35.8125 
Q 32.796875 36.84375 29.5 36.84375 
Q 26 36.84375 23.171875 35.671875 
Q 20.34375 34.5 18.375 32.46875 
Q 16.40625 30.453125 15.34375 27.796875 
Q 14.296875 25.15625 14.296875 22.203125 
" id="Lato-Medium-36"/>
      </defs>
      <g transform="translate(26.9125 181.975)scale(0.1 -0.1)">
       <use transform="translate(0.0 0.9375)" xlink:href="#Lato-Medium-31"/>
       <use transform="translate(58.0 0.9375)" xlink:href="#Lato-Medium-30"/>
       <use transform="translate(118.664375 23.775000000000006)scale(0.7)" xlink:href="#Lato-Medium-2d"/>
       <use transform="translate(144.70437286376955 23.775000000000006)scale(0.7)" xlink:href="#Lato-Medium-36"/>
      </g>
     </g>
    </g>
    <g id="ytick_4">
     <g id="line2d_15">
      <g>
       <use style="stroke:#000000;stroke-width:0.5;" x="49.9125" xlink:href="#m836597f0e8" y="151.23984375"/>
      </g>
     </g>
     <g id="line2d_16">
      <g>
       <use style="stroke:#000000;stroke-width:0.5;" x="384.7125" xlink:href="#m27a2af9b9d" y="151.23984375"/>
      </g>
     </g>
     <g id="text_9">
      <!-- $\mathdefault{10^{-5}}$ -->
      <g transform="translate(26.9125 154.075)scale(0.1 -0.1)">
       <use transform="translate(0.0 0.9375)" xlink:href="#Lato-Medium-31"/>
       <use transform="translate(58.0 0.9375)" xlink:href="#Lato-Medium-30"/>
       <use transform="translate(118.664375 23.775000000000006)scale(0.7)" xlink:href="#Lato-Medium-2d"/>
       <use transform="translate(144.70437286376955 23.775000000000006)scale(0.7)" xlink:href="#Lato-Medium-35"/>
      </g>
     </g>
    </g>
    <g id="ytick_5">
     <g id="line2d_17">
      <g>
       <use style="stroke:#000000;stroke-width:0.5;" x="49.9125" xlink:href="#m836597f0e8" y="123.33984375"/>
      </g>
     </g>
     <g id="line2d_18">
      <g>
       <use style="stroke:#000000;stroke-width:0.5;" x="384.7125" xlink:href="#m27a2af9b9d" y="123.33984375"/>
      </g>
     </g>
     <g id="text_10">
      <!-- $\mathdefault{10^{-4}}$ -->
      <g transform="translate(26.9125 126.175)scale(0.1 -0.1)">
       <use transform="translate(0.0 0.9046874999999943)" xlink:href="#Lato-Medium-31"/>
       <use transform="translate(58.0 0.9046874999999943)" xlink:href="#Lato-Medium-30"/>
       <use transform="translate(118.664375 23.7421875)scale(0.7)" xlink:href="#Lato-Medium-2d"/>
       <use transform="translate(144.70437286376955 23.7421875)scale(0.7)" xlink:href="#Lato-Medium-34"/>
      </g>
     </g>
    </g>
    <g id="ytick_6">
     <g id="line2d_19">
      <g>
       <use style="stroke:#000000;stroke-width:0.5;" x="49.9125" xlink:href="#m836597f0e8" y="95.43984375"/>
      </g>
     </g>
     <g id="line2d_20">
      <g>
       <use style="stroke:#000000;stroke-width:0.5;" x="384.7125" xlink:href="#m27a2af9b9d" y="95.43984375"/>
      </g>
     </g>
     <g id="text_11">
      <!-- $\mathdefault{10^{-3}}$ -->
      <g transform="translate(26.9125 98.275)scale(0.1 -0.1)">
       <use transform="translate(0.0 0.37968750000000284)" xlink:href="#Lato-Medium-31"/>
       <use transform="translate(58.0 0.37968750000000284)" xlink:href="#Lato-Medium-30"/>
       <use transform="translate(118.664375 23.21718750000001)scale(0.7)" xlink:href="#Lato-Medium-2d"/>
       <use transform="translate(144.70437286376955 23.21718750000001)scale(0.7)" xlink:href="#Lato-Medium-33"/>
      </g>
     </g>
    </g>
    <g id="ytick_7">
     <g id="line2d_21">
      <g>
       <use style="stroke:#000000;stroke-width:0.5;" x="49.9125" xlink:href="#m836597f0e8" y="67.53984375"/>
      </g>
     </g>
     <g id="line2d_22">
      <g>
       <use style="stroke:#000000;stroke-width:0.5;" x="384.7125" xlink:href="#m27a2af9b9d" y="67.53984375"/>
      </g>
     </g>
     <g id="text_12">
      <!-- $\mathdefault{10^{-2}}$ -->
      <g transform="translate(26.9125 70.375)scale(0.1 -0.1)">
       <use transform="translate(0.0 0.37968750000000284)" xlink:href="#Lato-Medium-31"/>
       <use transform="translate(58.0 0.37968750000000284)" xlink:href="#Lato-Medium-30"/>
       <use transform="translate(118.664375 23.21718750000001)scale(0.7)" xlink:href="#Lato-Medium-2d"/>
       <use transform="translate(144.70437286376955 23.21718750000001)scale(0.7)" xlink:href="#Lato-Medium-32"/>
      </g>
     </g>
    </g>
    <g id="ytick_8">
     <g id="line2d_23">
      <g>
       <use style="stroke:#000000;stroke-width:0.5;" x="49.9125" xlink:href="#m836597f0e8" y="39.63984375"/>
      </g>
     </g>
     <g id="line2d_24">
      <g>
       <use style="stroke:#000000;stroke-width:0.5;" x="384.7125" xlink:href="#m27a2af9b9d" y="39.63984375"/>
      </g>
     </g>
     <g id="text_13">
      <!-- $\mathdefault{10^{-1}}$ -->
      <g transform="translate(26.9125 42.475)scale(0.1 -0.1)">
       <use transform="translate(0.0 0.828125)" xlink:href="#Lato-Medium-31"/>
       <use transform="translate(58.0 0.828125)" xlink:href="#Lato-Medium-30"/>
       <use transform="translate(118.664375 23.665625000000006)scale(0.7)" xlink:href="#Lato-Medium-2d"/>
       <use transform="translate(144.70437286376955 23.665625000000006)scale(0.7)" xlink:href="#Lato-Medium-31"/>
      </g>
     </g>
    </g>
    <g id="ytick_9">
     <g id="line2d_25">
      <g>
       <use style="stroke:#000000;stroke-width:0.5;" x="49.9125" xlink:href="#m836597f0e8" y="11.73984375"/>
      </g>
     </g>
     <g id="line2d_26">
      <g>
       <use style="stroke:#000000;stroke-width:0.5;" x="384.7125" xlink:href="#m27a2af9b9d" y="11.73984375"/>
      </g>
     </g>
     <g id="text_14">
      <!-- $\mathdefault{10^{0}}$ -->
      <g transform="translate(29.5125 14.575)scale(0.1 -0.1)">
       <use transform="translate(0.0 0.37968750000000284)" xlink:href="#Lato-Medium-31"/>
       <use transform="translate(58.0 0.37968750000000284)" xlink:href="#Lato-Medium-30"/>
       <use transform="translate(118.664375 23.21718750000001)scale(0.7)" xlink:href="#Lato-Medium-30"/>
      </g>
     </g>
    </g>
    <g id="ytick_10">
     <g id="line2d_27">
      <defs>
       <path d="M 0 0 
L 2 0 
" id="me04128944b" style="stroke:#000000;stroke-width:0.5;"/>
      </defs>
      <g>
       <use style="stroke:#000000;stroke-width:0.5;" x="49.9125" xlink:href="#me04128944b" y="226.541106871"/>
      </g>
     </g>
     <g id="line2d_28">
      <defs>
       <path d="M 0 0 
L -2 0 
" id="mf594cbf26a" style="stroke:#000000;stroke-width:0.5;"/>
      </defs>
      <g>
       <use style="stroke:#000000;stroke-width:0.5;" x="384.7125" xlink:href="#mf594cbf26a" y="226.541106871"/>
      </g>
     </g>
    </g>
    <g id="ytick_11">
     <g id="line2d_29">
      <g>
       <use style="stroke:#000000;stroke-width:0.5;" x="49.9125" xlink:href="#me04128944b" y="218.142369992"/>
      </g>
     </g>
     <g id="line2d_30">
      <g>
       <use style="stroke:#000000;stroke-width:0.5;" x="384.7125" xlink:href="#mf594cbf26a" y="218.142369992"/>
      </g>
     </g>
    </g>
    <g id="ytick_12">
     <g id="line2d_31">
      <g>
       <use style="stroke:#000000;stroke-width:0.5;" x="49.9125" xlink:href="#me04128944b" y="213.229423864"/>
      </g>
     </g>
     <g id="line2d_32">
      <g>
       <use style="stroke:#000000;stroke-width:0.5;" x="384.7125" xlink:href="#mf594cbf26a" y="213.229423864"/>
      </g>
     </g>
    </g>
    <g id="ytick_13">
     <g id="line2d_33">
      <g>
       <use style="stroke:#000000;stroke-width:0.5;" x="49.9125" xlink:href="#me04128944b" y="209.743633113"/>
      </g>
     </g>
     <g id="line2d_34">
      <g>
       <use style="stroke:#000000;stroke-width:0.5;" x="384.7125" xlink:href="#mf594cbf26a" y="209.743633113"/>
      </g>
     </g>
    </g>
    <g id="ytick_14">
     <g id="line2d_35">
      <g>
       <use style="stroke:#000000;stroke-width:0.5;" x="49.9125" xlink:href="#me04128944b" y="198.641106871"/>
      </g>
     </g>
     <g id="line2d_36">
      <g>
       <use style="stroke:#000000;stroke-width:0.5;" x="384.7125" xlink:href="#mf594cbf26a" y="198.641106871"/>
      </g>
     </g>
    </g>
    <g id="ytick_15">
     <g id="line2d_37">
      <g>
       <use style="stroke:#000000;stroke-width:0.5;" x="49.9125" xlink:href="#me04128944b" y="190.242369992"/>
      </g>
     </g>
     <g id="line2d_38">
      <g>
       <use style="stroke:#000000;stroke-width:0.5;" x="384.7125" xlink:href="#mf594cbf26a" y="190.242369992"/>
      </g>
     </g>
    </g>
    <g id="ytick_16">
     <g id="line2d_39">
      <g>
       <use style="stroke:#000000;stroke-width:0.5;" x="49.9125" xlink:href="#me04128944b" y="185.329423864"/>
      </g>
     </g>
     <g id="line2d_40">
      <g>
       <use style="stroke:#000000;stroke-width:0.5;" x="384.7125" xlink:href="#mf594cbf26a" y="185.329423864"/>
      </g>
     </g>
    </g>
    <g id="ytick_17">
     <g id="line2d_41">
      <g>
       <use style="stroke:#000000;stroke-width:0.5;" x="49.9125" xlink:href="#me04128944b" y="181.843633113"/>
      </g>
     </g>
     <g id="line2d_42">
      <g>
       <use style="stroke:#000000;stroke-width:0.5;" x="384.7125" xlink:href="#mf594cbf26a" y="181.843633113"/>
      </g>
     </g>
    </g>
    <g id="ytick_18">
     <g id="line2d_43">
      <g>
       <use style="stroke:#000000;stroke-width:0.5;" x="49.9125" xlink:href="#me04128944b" y="170.741106871"/>
      </g>
     </g>
     <g id="line2d_44">
      <g>
       <use style="stroke:#000000;stroke-width:0.5;" x="384.7125" xlink:href="#mf594cbf26a" y="170.741106871"/>
      </g>
     </g>
    </g>
    <g id="ytick_19">
     <g id="line2d_45">
      <g>
       <use style="stroke:#000000;stroke-width:0.5;" x="49.9125" xlink:href="#me04128944b" y="162.342369992"/>
      </g>
     </g>
     <g id="line2d_46">
      <g>
       <use style="stroke:#000000;stroke-width:0.5;" x="384.7125" xlink:href="#mf594cbf26a" y="162.342369992"/>
      </g>
     </g>
    </g>
    <g id="ytick_20">
     <g id="line2d_47">
      <g>
       <use style="stroke:#000000;stroke-width:0.5;" x="49.9125" xlink:href="#me04128944b" y="157.429423864"/>
      </g>
     </g>
     <g id="line2d_48">
      <g>
       <use style="stroke:#000000;stroke-width:0.5;" x="384.7125" xlink:href="#mf594cbf26a" y="157.429423864"/>
      </g>
     </g>
    </g>
    <g id="ytick_21">
     <g id="line2d_49">
      <g>
       <use style="stroke:#000000;stroke-width:0.5;" x="49.9125" xlink:href="#me04128944b" y="153.943633113"/>
      </g>
     </g>
     <g id="line2d_50">
      <g>
       <use style="stroke:#000000;stroke-width:0.5;" x="384.7125" xlink:href="#mf594cbf26a" y="153.943633113"/>
      </g>
     </g>
    </g>
    <g id="ytick_22">
     <g id="line2d_51">
      <g>
       <use style="stroke:#000000;stroke-width:0.5;" x="49.9125" xlink:href="#me04128944b" y="142.841106871"/>
      </g>
     </g>
     <g id="line2d_52">
      <g>
       <use style="stroke:#000000;stroke-width:0.5;" x="384.7125" xlink:href="#mf594cbf26a" y="142.841106871"/>
      </g>
     </g>
    </g>
    <g id="ytick_23">
     <g id="line2d_53">
      <g>
       <use style="stroke:#000000;stroke-width:0.5;" x="49.9125" xlink:href="#me04128944b" y="134.442369992"/>
      </g>
     </g>
     <g id="line2d_54">
      <g>
       <use style="stroke:#000000;stroke-width:0.5;" x="384.7125" xlink:href="#mf594cbf26a" y="134.442369992"/>
      </g>
     </g>
    </g>
    <g id="ytick_24">
     <g id="line2d_55">
      <g>
       <use style="stroke:#000000;stroke-width:0.5;" x="49.9125" xlink:href="#me04128944b" y="129.529423864"/>
      </g>
     </g>
     <g id="line2d_56">
      <g>
       <use style="stroke:#000000;stroke-width:0.5;" x="384.7125" xlink:href="#mf594cbf26a" y="129.529423864"/>
      </g>
     </g>
    </g>
    <g id="ytick_25">
     <g id="line2d_57">
      <g>
       <use style="stroke:#000000;stroke-width:0.5;" x="49.9125" xlink:href="#me04128944b" y="126.043633113"/>
      </g>
     </g>
     <g id="line2d_58">
      <g>
       <use style="stroke:#000000;stroke-width:0.5;" x="384.7125" xlink:href="#mf594cbf26a" y="126.043633113"/>
      </g>
     </g>
    </g>
    <g id="ytick_26">
     <g id="line2d_59">
      <g>
       <use style="stroke:#000000;stroke-width:0.5;" x="49.9125" xlink:href="#me04128944b" y="114.941106871"/>
      </g>
     </g>
     <g id="line2d_60">
      <g>
       <use style="stroke:#000000;stroke-width:0.5;" x="384.7125" xlink:href="#mf594cbf26a" y="114.941106871"/>
      </g>
     </g>
    </g>
    <g id="ytick_27">
     <g id="line2d_61">
      <g>
       <use style="stroke:#000000;stroke-width:0.5;" x="49.9125" xlink:href="#me04128944b" y="106.542369992"/>
      </g>
     </g>
     <g id="line2d_62">
      <g>
       <use style="stroke:#000000;stroke-width:0.5;" x="384.7125" xlink:href="#mf594cbf26a" y="106.542369992"/>
      </g>
     </g>
    </g>
    <g id="ytick_28">
     <g id="line2d_63">
      <g>
       <use style="stroke:#000000;stroke-width:0.5;" x="49.9125" xlink:href="#me04128944b" y="101.629423864"/>
      </g>
     </g>
     <g id="line2d_64">
      <g>
       <use style="stroke:#000000;stroke-width:0.5;" x="384.7125" xlink:href="#mf594cbf26a" y="101.629423864"/>
      </g>
     </g>
    </g>
    <g id="ytick_29">
     <g id="line2d_65">
      <g>
       <use style="stroke:#000000;stroke-width:0.5;" x="49.9125" xlink:href="#me04128944b" y="98.1436331129"/>
      </g>
     </g>
     <g id="line2d_66">
      <g>
       <use style="stroke:#000000;stroke-width:0.5;" x="384.7125" xlink:href="#mf594cbf26a" y="98.1436331129"/>
      </g>
     </g>
    </g>
    <g id="ytick_30">
     <g id="line2d_67">
      <g>
       <use style="stroke:#000000;stroke-width:0.5;" x="49.9125" xlink:href="#me04128944b" y="87.041106871"/>
      </g>
     </g>
     <g id="line2d_68">
      <g>
       <use style="stroke:#000000;stroke-width:0.5;" x="384.7125" xlink:href="#mf594cbf26a" y="87.041106871"/>
      </g>
     </g>
    </g>
    <g id="ytick_31">
     <g id="line2d_69">
      <g>
       <use style="stroke:#000000;stroke-width:0.5;" x="49.9125" xlink:href="#me04128944b" y="78.6423699919"/>
      </g>
     </g>
     <g id="line2d_70">
      <g>
       <use style="stroke:#000000;stroke-width:0.5;" x="384.7125" xlink:href="#mf594cbf26a" y="78.6423699919"/>
      </g>
     </g>
    </g>
    <g id="ytick_32">
     <g id="line2d_71">
      <g>
       <use style="stroke:#000000;stroke-width:0.5;" x="49.9125" xlink:href="#me04128944b" y="73.7294238643"/>
      </g>
     </g>
     <g id="line2d_72">
      <g>
       <use style="stroke:#000000;stroke-width:0.5;" x="384.7125" xlink:href="#mf594cbf26a" y="73.7294238643"/>
      </g>
     </g>
    </g>
    <g id="ytick_33">
     <g id="line2d_73">
      <g>
       <use style="stroke:#000000;stroke-width:0.5;" x="49.9125" xlink:href="#me04128944b" y="70.2436331129"/>
      </g>
     </g>
     <g id="line2d_74">
      <g>
       <use style="stroke:#000000;stroke-width:0.5;" x="384.7125" xlink:href="#mf594cbf26a" y="70.2436331129"/>
      </g>
     </g>
    </g>
    <g id="ytick_34">
     <g id="line2d_75">
      <g>
       <use style="stroke:#000000;stroke-width:0.5;" x="49.9125" xlink:href="#me04128944b" y="59.141106871"/>
      </g>
     </g>
     <g id="line2d_76">
      <g>
       <use style="stroke:#000000;stroke-width:0.5;" x="384.7125" xlink:href="#mf594cbf26a" y="59.141106871"/>
      </g>
     </g>
    </g>
    <g id="ytick_35">
     <g id="line2d_77">
      <g>
       <use style="stroke:#000000;stroke-width:0.5;" x="49.9125" xlink:href="#me04128944b" y="50.7423699919"/>
      </g>
     </g>
     <g id="line2d_78">
      <g>
       <use style="stroke:#000000;stroke-width:0.5;" x="384.7125" xlink:href="#mf594cbf26a" y="50.7423699919"/>
      </g>
     </g>
    </g>
    <g id="ytick_36">
     <g id="line2d_79">
      <g>
       <use style="stroke:#000000;stroke-width:0.5;" x="49.9125" xlink:href="#me04128944b" y="45.8294238643"/>
      </g>
     </g>
     <g id="line2d_80">
      <g>
       <use style="stroke:#000000;stroke-width:0.5;" x="384.7125" xlink:href="#mf594cbf26a" y="45.8294238643"/>
      </g>
     </g>
    </g>
    <g id="ytick_37">
     <g id="line2d_81">
      <g>
       <use style="stroke:#000000;stroke-width:0.5;" x="49.9125" xlink:href="#me04128944b" y="42.3436331129"/>
      </g>
     </g>
     <g id="line2d_82">
      <g>
       <use style="stroke:#000000;stroke-width:0.5;" x="384.7125" xlink:href="#mf594cbf26a" y="42.3436331129"/>
      </g>
     </g>
    </g>
    <g id="ytick_38">
     <g id="line2d_83">
      <g>
       <use style="stroke:#000000;stroke-width:0.5;" x="49.9125" xlink:href="#me04128944b" y="31.241106871"/>
      </g>
     </g>
     <g id="line2d_84">
      <g>
       <use style="stroke:#000000;stroke-width:0.5;" x="384.7125" xlink:href="#mf594cbf26a" y="31.241106871"/>
      </g>
     </g>
    </g>
    <g id="ytick_39">
     <g id="line2d_85">
      <g>
       <use style="stroke:#000000;stroke-width:0.5;" x="49.9125" xlink:href="#me04128944b" y="22.8423699919"/>
      </g>
     </g>
     <g id="line2d_86">
      <g>
       <use style="stroke:#000000;stroke-width:0.5;" x="384.7125" xlink:href="#mf594cbf26a" y="22.8423699919"/>
      </g>
     </g>
    </g>
    <g id="ytick_40">
     <g id="line2d_87">
      <g>
       <use style="stroke:#000000;stroke-width:0.5;" x="49.9125" xlink:href="#me04128944b" y="17.9294238643"/>
      </g>
     </g>
     <g id="line2d_88">
      <g>
       <use style="stroke:#000000;stroke-width:0.5;" x="384.7125" xlink:href="#mf594cbf26a" y="17.9294238643"/>
      </g>
     </g>
    </g>
    <g id="ytick_41">
     <g id="line2d_89">
      <g>
       <use style="stroke:#000000;stroke-width:0.5;" x="49.9125" xlink:href="#me04128944b" y="14.4436331129"/>
      </g>
     </g>
     <g id="line2d_90">
      <g>
       <use style="stroke:#000000;stroke-width:0.5;" x="384.7125" xlink:href="#mf594cbf26a" y="14.4436331129"/>
      </g>
     </g>
    </g>
    <g id="text_15">
     <!-- solid angle -->
     <defs>
      <path d="M 16.84375 50.75 
L 16.84375 0 
L 7.34375 0 
L 7.34375 50.75 
z
M 18.703125 66.5 
Q 18.703125 65.15625 18.171875 63.96875 
Q 17.65625 62.796875 16.71875 61.890625 
Q 15.796875 61 14.5625 60.46875 
Q 13.34375 59.953125 12 59.953125 
Q 10.703125 59.953125 9.515625 60.46875 
Q 8.34375 61 7.4375 61.890625 
Q 6.546875 62.796875 6.015625 63.96875 
Q 5.5 65.15625 5.5 66.5 
Q 5.5 67.84375 6.015625 69.0625 
Q 6.546875 70.296875 7.4375 71.1875 
Q 8.34375 72.09375 9.515625 72.625 
Q 10.703125 73.15625 12 73.15625 
Q 13.34375 73.15625 14.5625 72.625 
Q 15.796875 72.09375 16.71875 71.1875 
Q 17.65625 70.296875 18.171875 69.0625 
Q 18.703125 67.84375 18.703125 66.5 
" id="Lato-Medium-69"/>
      <path d="M 16.65625 73.75 
L 16.65625 0 
L 7.15625 0 
L 7.15625 73.75 
z
" id="Lato-Medium-6c"/>
      <path d="M 39.34375 0 
Q 37.953125 0 37.203125 0.453125 
Q 36.453125 0.90625 36 2.203125 
L 34.953125 6.75 
Q 33 4.953125 31.09375 3.515625 
Q 29.203125 2.09375 27.125 1.140625 
Q 25.046875 0.203125 22.6875 -0.296875 
Q 20.34375 -0.796875 17.453125 -0.796875 
Q 14.453125 -0.796875 11.84375 0.015625 
Q 9.25 0.84375 7.328125 2.546875 
Q 5.40625 4.25 4.28125 6.765625 
Q 3.15625 9.296875 3.15625 12.75 
Q 3.15625 15.75 4.78125 18.5 
Q 6.40625 21.25 10.078125 23.421875 
Q 13.75 25.59375 19.671875 27 
Q 25.59375 28.40625 34.25 28.59375 
L 34.25 32.40625 
Q 34.25 38.15625 31.765625 41.078125 
Q 29.296875 44 24.5 44 
Q 21.25 44 19.078125 43.171875 
Q 16.90625 42.34375 15.328125 41.375 
Q 13.75 40.40625 12.546875 39.59375 
Q 11.34375 38.796875 10.15625 38.796875 
Q 9.15625 38.796875 8.46875 39.3125 
Q 7.796875 39.84375 7.296875 40.546875 
L 5.59375 43.65625 
Q 9.84375 47.65625 14.765625 49.65625 
Q 19.703125 51.65625 25.65625 51.65625 
Q 29.953125 51.65625 33.296875 50.25 
Q 36.65625 48.84375 38.921875 46.3125 
Q 41.203125 43.796875 42.375 40.25 
Q 43.546875 36.703125 43.546875 32.40625 
L 43.546875 0 
z
M 20.296875 5.84375 
Q 22.546875 5.84375 24.46875 6.296875 
Q 26.40625 6.75 28.078125 7.59375 
Q 29.75 8.453125 31.25 9.671875 
Q 32.75 10.90625 34.25 12.453125 
L 34.25 22.65625 
Q 28.25 22.453125 24.046875 21.703125 
Q 19.84375 20.953125 17.21875 19.75 
Q 14.59375 18.546875 13.390625 16.875 
Q 12.203125 15.203125 12.203125 13.203125 
Q 12.203125 11.25 12.828125 9.84375 
Q 13.453125 8.453125 14.546875 7.578125 
Q 15.65625 6.703125 17.125 6.265625 
Q 18.59375 5.84375 20.296875 5.84375 
" id="Lato-Medium-61"/>
      <path d="M 24.703125 51.59375 
Q 28 51.59375 30.828125 50.875 
Q 33.65625 50.15625 36.046875 48.796875 
L 50.046875 48.796875 
L 50.046875 45.296875 
Q 50.046875 43.5 47.84375 43.046875 
L 42.296875 42.25 
Q 43.84375 39.046875 43.84375 35.25 
Q 43.84375 31.5 42.421875 28.5 
Q 41 25.5 38.453125 23.34375 
Q 35.90625 21.203125 32.375 20.046875 
Q 28.84375 18.90625 24.703125 18.90625 
Q 21.203125 18.90625 18.203125 19.65625 
Q 15.046875 17.75 15.046875 15.453125 
Q 15.046875 13.703125 16.515625 12.828125 
Q 18 11.953125 20.390625 11.546875 
Q 22.796875 11.15625 25.84375 11.046875 
Q 28.90625 10.953125 32.09375 10.71875 
Q 35.296875 10.5 38.34375 9.953125 
Q 41.40625 9.40625 43.796875 8.125 
Q 46.203125 6.84375 47.671875 4.640625 
Q 49.15625 2.453125 49.15625 -1.09375 
Q 49.15625 -4.40625 47.53125 -7.46875 
Q 45.90625 -10.546875 42.828125 -12.921875 
Q 39.75 -15.296875 35.296875 -16.75 
Q 30.84375 -18.203125 25.25 -18.203125 
Q 19.65625 -18.203125 15.46875 -17.09375 
Q 11.296875 -16 8.515625 -14.140625 
Q 5.75 -12.296875 4.375 -9.875 
Q 3 -7.453125 3 -4.796875 
Q 3 -1.046875 5.328125 1.515625 
Q 7.65625 4.09375 11.703125 5.546875 
Q 9.453125 6.546875 8.140625 8.265625 
Q 6.84375 10 6.84375 12.84375 
Q 6.84375 13.953125 7.25 15.125 
Q 7.65625 16.296875 8.46875 17.46875 
Q 9.296875 18.65625 10.515625 19.703125 
Q 11.75 20.75 13.34375 21.546875 
Q 9.59375 23.65625 7.4375 27.125 
Q 5.296875 30.59375 5.296875 35.25 
Q 5.296875 39 6.75 42 
Q 8.203125 45 10.765625 47.140625 
Q 13.34375 49.296875 16.890625 50.4375 
Q 20.453125 51.59375 24.703125 51.59375 
M 40.40625 -2.65625 
Q 40.40625 -0.84375 39.375 0.25 
Q 38.34375 1.34375 36.59375 2 
Q 34.84375 2.65625 32.546875 2.90625 
Q 30.25 3.15625 27.703125 3.296875 
Q 25.15625 3.453125 22.46875 3.59375 
Q 19.796875 3.75 17.34375 4.09375 
Q 14.65625 2.796875 12.953125 0.890625 
Q 11.25 -1 11.25 -3.546875 
Q 11.25 -5.203125 12.09375 -6.625 
Q 12.953125 -8.046875 14.671875 -9.0625 
Q 16.40625 -10.09375 19.078125 -10.6875 
Q 21.75 -11.296875 25.40625 -11.296875 
Q 29 -11.296875 31.796875 -10.640625 
Q 34.59375 -10 36.5 -8.84375 
Q 38.40625 -7.703125 39.40625 -6.125 
Q 40.40625 -4.546875 40.40625 -2.65625 
M 24.703125 25.15625 
Q 27.34375 25.15625 29.34375 25.875 
Q 31.34375 26.59375 32.6875 27.890625 
Q 34.046875 29.203125 34.71875 31 
Q 35.40625 32.796875 35.40625 35 
Q 35.40625 39.5 32.671875 42.171875 
Q 29.953125 44.84375 24.703125 44.84375 
Q 19.453125 44.84375 16.71875 42.171875 
Q 14 39.5 14 35 
Q 14 32.84375 14.703125 31.046875 
Q 15.40625 29.25 16.75 27.921875 
Q 18.09375 26.59375 20.09375 25.875 
Q 22.09375 25.15625 24.703125 25.15625 
" id="Lato-Medium-67"/>
      <path id="Lato-Medium-20"/>
      <path d="M 6.90625 0 
L 6.90625 50.75 
L 12.59375 50.75 
Q 14.59375 50.75 15.09375 48.84375 
L 15.796875 43.59375 
Q 19.09375 47.15625 23.140625 49.34375 
Q 27.203125 51.546875 32.5 51.546875 
Q 36.65625 51.546875 39.828125 50.140625 
Q 43 48.75 45.140625 46.21875 
Q 47.296875 43.703125 48.390625 40.171875 
Q 49.5 36.65625 49.5 32.34375 
L 49.5 0 
L 40 0 
L 40 32.34375 
Q 40 37.84375 37.453125 40.921875 
Q 34.90625 44 29.703125 44 
Q 25.84375 44 22.546875 42.203125 
Q 19.25 40.40625 16.40625 37.25 
L 16.40625 0 
z
" id="Lato-Medium-6e"/>
      <path d="M 36.703125 42.15625 
Q 36 40.953125 34.75 40.953125 
Q 33.953125 40.953125 32.96875 41.5 
Q 32 42.046875 30.640625 42.71875 
Q 29.296875 43.40625 27.421875 43.953125 
Q 25.546875 44.5 23 44.5 
Q 20.84375 44.5 19.09375 43.953125 
Q 17.34375 43.40625 16.125 42.453125 
Q 14.90625 41.5 14.21875 40.21875 
Q 13.546875 38.953125 13.546875 37.453125 
Q 13.546875 35.546875 14.671875 34.265625 
Q 15.796875 33 17.625 32.078125 
Q 19.453125 31.15625 21.796875 30.421875 
Q 24.15625 29.703125 26.59375 28.890625 
Q 29.046875 28.09375 31.390625 27.0625 
Q 33.75 26.046875 35.578125 24.546875 
Q 37.40625 23.046875 38.53125 20.875 
Q 39.65625 18.703125 39.65625 15.65625 
Q 39.65625 12.09375 38.375 9.09375 
Q 37.09375 6.09375 34.625 3.890625 
Q 32.15625 1.703125 28.546875 0.453125 
Q 24.953125 -0.796875 20.25 -0.796875 
Q 14.953125 -0.796875 10.578125 0.953125 
Q 6.203125 2.703125 3.203125 5.40625 
L 5.40625 9 
Q 5.796875 9.703125 6.390625 10.078125 
Q 7 10.453125 7.90625 10.453125 
Q 8.84375 10.453125 9.84375 9.75 
Q 10.84375 9.046875 12.265625 8.21875 
Q 13.703125 7.40625 15.71875 6.703125 
Q 17.75 6 20.75 6 
Q 23.296875 6 25.171875 6.640625 
Q 27.046875 7.296875 28.296875 8.375 
Q 29.546875 9.453125 30.140625 10.890625 
Q 30.75 12.34375 30.75 13.953125 
Q 30.75 16 29.625 17.34375 
Q 28.5 18.703125 26.671875 19.640625 
Q 24.84375 20.59375 22.5 21.296875 
Q 20.15625 22 17.671875 22.796875 
Q 15.203125 23.59375 12.84375 24.625 
Q 10.5 25.65625 8.671875 27.25 
Q 6.84375 28.84375 5.71875 31.125 
Q 4.59375 33.40625 4.59375 36.703125 
Q 4.59375 39.65625 5.796875 42.34375 
Q 7 45.046875 9.328125 47.09375 
Q 11.65625 49.15625 15.046875 50.34375 
Q 18.453125 51.546875 22.796875 51.546875 
Q 27.796875 51.546875 31.875 49.96875 
Q 35.953125 48.40625 38.796875 45.59375 
z
" id="Lato-Medium-73"/>
      <path d="M 28.453125 51.546875 
Q 34.046875 51.546875 38.546875 49.71875 
Q 43.046875 47.90625 46.1875 44.5 
Q 49.34375 41.09375 51.046875 36.265625 
Q 52.75 31.453125 52.75 25.453125 
Q 52.75 19.453125 51.046875 14.59375 
Q 49.34375 9.75 46.1875 6.34375 
Q 43.046875 2.953125 38.546875 1.125 
Q 34.046875 -0.703125 28.453125 -0.703125 
Q 22.84375 -0.703125 18.3125 1.125 
Q 13.796875 2.953125 10.625 6.34375 
Q 7.453125 9.75 5.75 14.59375 
Q 4.046875 19.453125 4.046875 25.453125 
Q 4.046875 31.453125 5.75 36.265625 
Q 7.453125 41.09375 10.625 44.5 
Q 13.796875 47.90625 18.3125 49.71875 
Q 22.84375 51.546875 28.453125 51.546875 
M 28.453125 6.703125 
Q 35.75 6.703125 39.34375 11.59375 
Q 42.953125 16.5 42.953125 25.40625 
Q 42.953125 34.25 39.34375 39.203125 
Q 35.75 44.15625 28.453125 44.15625 
Q 21.046875 44.15625 17.421875 39.203125 
Q 13.796875 34.25 13.796875 25.40625 
Q 13.796875 16.5 17.421875 11.59375 
Q 21.046875 6.703125 28.453125 6.703125 
" id="Lato-Medium-6f"/>
      <path d="M 27.84375 51.546875 
Q 32.453125 51.546875 36.34375 50.015625 
Q 40.25 48.5 43.09375 45.59375 
Q 45.953125 42.703125 47.546875 38.46875 
Q 49.15625 34.25 49.15625 28.796875 
Q 49.15625 26.59375 48.671875 25.84375 
Q 48.203125 25.09375 46.90625 25.09375 
L 13.40625 25.09375 
Q 13.546875 20.453125 14.71875 17 
Q 15.90625 13.546875 17.921875 11.265625 
Q 19.953125 9 22.796875 7.875 
Q 25.65625 6.75 29.15625 6.75 
Q 32.453125 6.75 34.828125 7.5 
Q 37.203125 8.25 38.921875 9.140625 
Q 40.65625 10.046875 41.84375 10.796875 
Q 43.046875 11.546875 43.953125 11.546875 
Q 45.15625 11.546875 45.703125 10.65625 
L 48.40625 7.203125 
Q 46.65625 5.09375 44.34375 3.625 
Q 42.046875 2.15625 39.390625 1.171875 
Q 36.75 0.203125 33.921875 -0.25 
Q 31.09375 -0.703125 28.34375 -0.703125 
Q 23.09375 -0.703125 18.625 1.0625 
Q 14.15625 2.84375 10.90625 6.265625 
Q 7.65625 9.703125 5.828125 14.765625 
Q 4 19.84375 4 26.453125 
Q 4 31.75 5.640625 36.328125 
Q 7.296875 40.90625 10.375 44.28125 
Q 13.453125 47.65625 17.875 49.59375 
Q 22.296875 51.546875 27.84375 51.546875 
M 28 44.59375 
Q 21.75 44.59375 18.171875 40.96875 
Q 14.59375 37.34375 13.703125 30.953125 
L 40.65625 30.953125 
Q 40.65625 33.953125 39.796875 36.453125 
Q 38.953125 38.953125 37.328125 40.75 
Q 35.703125 42.546875 33.34375 43.5625 
Q 31 44.59375 28 44.59375 
" id="Lato-Medium-65"/>
      <path d="M 43.546875 0 
Q 41.546875 0 41.046875 1.90625 
L 40.203125 7.84375 
Q 38.59375 5.90625 36.75 4.328125 
Q 34.90625 2.75 32.796875 1.625 
Q 30.703125 0.5 28.34375 -0.09375 
Q 26 -0.703125 23.296875 -0.703125 
Q 18.953125 -0.703125 15.421875 0.96875 
Q 11.90625 2.65625 9.375 5.953125 
Q 6.84375 9.25 5.5 14.078125 
Q 4.15625 18.90625 4.15625 25.203125 
Q 4.15625 30.84375 5.65625 35.671875 
Q 7.15625 40.5 10 44.046875 
Q 12.84375 47.59375 16.890625 49.625 
Q 20.953125 51.65625 26.046875 51.65625 
Q 30.65625 51.65625 33.921875 50.125 
Q 37.203125 48.59375 39.75 45.84375 
L 39.75 73.75 
L 49.25 73.75 
L 49.25 0 
z
M 26.40625 6.953125 
Q 30.65625 6.953125 33.84375 8.875 
Q 37.046875 10.796875 39.75 14.34375 
L 39.75 38.546875 
Q 37.34375 41.75 34.5 43.015625 
Q 31.65625 44.296875 28.203125 44.296875 
Q 21.34375 44.296875 17.640625 39.390625 
Q 13.953125 34.5 13.953125 25.203125 
Q 13.953125 20.34375 14.796875 16.890625 
Q 15.65625 13.453125 17.25 11.21875 
Q 18.84375 9 21.140625 7.96875 
Q 23.453125 6.953125 26.40625 6.953125 
" id="Lato-Medium-64"/>
     </defs>
     <g transform="translate(19.0 160.48984375)rotate(-90.0)scale(0.16 -0.16)">
      <use xlink:href="#Lato-Medium-73"/>
      <use x="43.40000915527344" xlink:href="#Lato-Medium-6f"/>
      <use x="100.20001220703125" xlink:href="#Lato-Medium-6c"/>
      <use x="124.00001525878906" xlink:href="#Lato-Medium-69"/>
      <use x="148.20001220703125" xlink:href="#Lato-Medium-64"/>
      <use x="204.3500213623047" xlink:href="#Lato-Medium-20"/>
      <use x="229.7000274658203" xlink:href="#Lato-Medium-61"/>
      <use x="279.60003662109375" xlink:href="#Lato-Medium-6e"/>
      <use x="335.5000457763672" xlink:href="#Lato-Medium-67"/>
      <use x="387.6500549316406" xlink:href="#Lato-Medium-6c"/>
      <use x="411.45005798339844" xlink:href="#Lato-Medium-65"/>
     </g>
    </g>
   </g>
  </g>
 </g>
 <defs>
  <clipPath id="p52de2b82db">
   <rect height="223.2" width="334.8" x="49.9125" y="11.73984375"/>
  </clipPath>
 </defs>
</svg>
